<?xml version="1.0" encoding="UTF-8" standalone="no"?>
<svg
   version="1.1"
   id="Layer_1"
   x="0px"
   y="0px"
   width="622.78925"
   viewBox="0 0 622.78925 622.14325"
   enable-background="new 0 0 900 900"
   xml:space="preserve"
   sodipodi:docname="Logo-Kansha2.svg"
   height="622.14325"
   inkscape:version="1.1.2 (0a00cf5339, 2022-02-04)"
   xmlns:inkscape="http://www.inkscape.org/namespaces/inkscape"
   xmlns:sodipodi="http://sodipodi.sourceforge.net/DTD/sodipodi-0.dtd"
   xmlns="http://www.w3.org/2000/svg"
   xmlns:svg="http://www.w3.org/2000/svg"><defs
   id="defs23" /><sodipodi:namedview
   id="namedview21"
   pagecolor="#ffffff"
   bordercolor="#666666"
   borderopacity="1.0"
   inkscape:pageshadow="2"
   inkscape:pageopacity="0.0"
   inkscape:pagecheckerboard="true"
   showgrid="false"
   fit-margin-top="0"
   fit-margin-left="0"
   fit-margin-right="0"
   fit-margin-bottom="0"
   inkscape:zoom="0.79888889"
   inkscape:cx="302.29485"
   inkscape:cy="319.81919"
   inkscape:window-width="1920"
   inkscape:window-height="1012"
   inkscape:window-x="0"
   inkscape:window-y="0"
   inkscape:window-maximized="1"
   inkscape:current-layer="Layer_1" />
<path
   style="fill:#280b0b;stroke:#000000;stroke-width:5.99811;stroke-linejoin:bevel;paint-order:markers stroke fill"
   id="path922"
   sodipodi:type="arc"
   sodipodi:cx="311.71814"
   sodipodi:cy="311.07162"
   sodipodi:rx="308.07205"
   sodipodi:ry="308.07257"
   sodipodi:start="0"
   sodipodi:end="6.2827007"
   sodipodi:arc-type="slice"
   d="M 619.79019,311.07162 A 308.07205,308.07257 0 0 1 311.75546,619.14419 308.07205,308.07257 0 0 1 3.6460967,311.14627 308.07205,308.07257 0 0 1 311.60617,2.9990743 308.07205,308.07257 0 0 1 619.79016,310.92233 l -308.07202,0.14929 z" />
<path
   fill="#bf2e11"
   opacity="1"
   stroke="none"
   d="m 10.361236,392.71176 c -2.05356,-8.72351 -4.43906,-17.38458 -6.09525,-26.18289 -4.12189,-21.89697 -4.82483,-44.07959 -3.91312,-66.25351 0.49169,-11.95877 1.73688,-23.9985 3.98018,-35.74621 3.12718,-16.3765 6.71199,-32.7544 11.53777,-48.69678 7.19545,-23.77069 18.18457,-46.00607 31.38994,-67.02206 15.27203,-24.30504 33.73616,-46.07572 54.946884,-65.391931 23.01839,-20.96242 48.73448,-38.08946 77.06609,-50.9971 22.4028,-10.20656 45.68322,-17.8945 69.93875,-22.68252 21.74216,-4.29194 43.64297,-6.2768 65.7272,-5.80695 34.30652,0.72989 67.70853,6.56534 100.10202,18.24782 22.10553,7.97223 42.98578,18.16656 62.84937,30.71458 23.29327,14.7145 43.89477,32.60337 62.4555,52.747061 14.07697,15.27749 26.85834,31.82107 36.69031,50.18023 8.77118,16.37851 17.30341,33.07325 23.79462,50.4311 6.38226,17.06619 10.44116,35.05041 14.7677,52.81494 2.08361,8.55499 2.5943,17.51452 3.53015,26.32138 0.87115,8.1976 1.91034,16.43771 1.88013,24.65542 -0.0375,10.22364 -0.82026,20.46988 -1.7909,30.65778 -1.01263,10.62994 -2.35553,21.24728 -4.0802,31.78403 -1.18793,7.25784 -3.27185,14.36898 -5.42706,21.90298 -5.77277,0.39685 -11.07379,0.46832 -16.37482,0.47064 -32.3836,0.0139 -64.76727,0.0121 -97.45685,-0.13781 -1.78222,-2.32959 -3.36041,-4.4444 -4.71722,-6.69269 -6.37769,-10.56793 -19.69946,-15.87146 -30.42285,-5.09888 -4.20648,4.22577 -8.78278,8.0835 -13.67993,12.07862 -37.98523,-0.0637 -75.48121,-0.0973 -113.21891,-0.3794 -9.03253,-17.76849 -17.82336,-35.28845 -26.65133,-53.21866 -0.15516,-1.77719 -0.27311,-3.1441 -0.21753,-4.86368 6.19198,-17.229 7.25519,-34.58871 3.83008,-52.00158 -11.00077,-55.92719 -64.3068,-91.02945 -120.29551,-79.56696 -51.34344,10.51145 -86.90031,61.9339 -78.58615,113.26273 4.57462,28.24197 18.49176,50.58941 41.19776,67.8862 -0.0269,0.21893 -0.0892,0.6557 -0.38825,0.7948 -3.99743,2.8078 -7.69586,5.4765 -11.7832,7.97436 -3.18396,-0.46515 -5.97852,-1.01044 -8.77402,-1.01562 -33.799804,-0.0629 -67.599964,0.0141 -101.399504,-0.10077 -6.80509,-0.0231 -13.60796,-0.69556 -20.41185,-1.06867 z"
   id="path4" />
<path
   fill="#d6a49d"
   opacity="1"
   stroke="none"
   d="m 307.22658,341.8212 c 8.7908,17.51996 17.58163,35.03992 26.6614,53.16827 2.19025,9.20704 8.5315,11.9289 16.32764,12.75727 1.80978,0.19232 3.69922,0.22509 5.39639,0.7948 17.07715,5.73266 34.76014,8.41467 52.53278,10.7409 4.1377,0.54163 7.80304,0.27033 11.27722,-2.3584 8.44324,-6.38873 17.03437,-12.58166 25.51447,-18.9223 1.03216,-0.77173 1.74933,-1.96478 2.61242,-2.96258 4.4079,-4.02527 8.9842,-7.883 13.19068,-12.10877 10.72339,-10.77258 24.04516,-5.46905 30.42285,5.09888 1.35681,2.24829 2.935,4.3631 4.89361,6.97168 4.72107,5.63916 10.50599,10.24481 12.82136,16.19952 3.15539,8.11493 8.20043,11.93103 16.10974,13.51172 14.31268,2.86017 25.92157,10.78406 31.95111,23.57318 4.79614,10.1731 10.40991,17.51532 21.23968,20.50714 0.31885,0.0881 0.62299,0.22901 0.93402,0.34534 -4.62744,7.19513 -9.2373,14.40167 -13.88861,21.58136 -3.039,4.6908 -4.95837,5.18109 -9.69378,2.67371 -5.93598,-3.14301 -10.80872,-6.72724 -12.58045,-14.1092 -1.68597,-7.02459 -6.5141,-12.41076 -12.42566,-16.98407 -6.06769,-4.69415 -11.78723,-8.97345 -19.78638,-10.51635 -7.0819,-1.36615 -12.30755,-6.16938 -15.15173,-13.75318 -1.89148,-5.04382 -6.21991,-9.17749 -9.47693,-13.70453 -2.5935,-3.60473 -5.88208,-6.88275 -7.69806,-10.84002 -4.93554,-10.75495 -19.70953,-13.23206 -26.59594,-3.72614 -8.12714,11.21875 -20.00257,17.85779 -30.40699,26.3042 -1.66253,1.34961 -3.95715,2.27149 -4.99554,3.97778 -4.3537,7.15424 -10.81842,6.54908 -17.63574,5.51429 -8.35022,-1.26752 -16.72962,-2.34265 -25.09717,-3.49512 -0.32849,-0.0452 -0.68152,0.0307 -0.99567,-0.0529 -11.64865,-3.09985 -23.33938,-6.05878 -34.89386,-9.4779 -1.85818,-0.54981 -3.6632,-2.90961 -4.54355,-4.86097 -4.635,-10.27343 -8.85571,-20.73327 -13.45471,-31.02362 -1.87729,-4.20062 -4.52234,-8.05297 -6.5018,-12.21423 -2.74359,-5.7677 -5.60614,-11.53732 -7.62985,-17.5704 -1.61676,-4.82001 -6.237,-4.47306 -9.29532,-7.39035 3.58283,-6.27677 7.2226,-11.96286 10.86237,-17.64899 z"
   id="path6" />
<path
   fill="#c14618"
   opacity="1"
   stroke="none"
   d="m 579.40852,468.91794 c -0.6076,0.10358 -0.91174,-0.0373 -1.23059,-0.12543 -10.82977,-2.99182 -16.44354,-10.33404 -21.23968,-20.50714 -6.02954,-12.78912 -17.63843,-20.71301 -31.95111,-23.57318 -7.90931,-1.58069 -12.95435,-5.39679 -16.10974,-13.51172 -2.31537,-5.95471 -8.10029,-10.56036 -12.51533,-16.0462 32.20716,-0.28241 64.59083,-0.28064 96.97443,-0.2945 5.30103,-0.002 10.60205,-0.0738 16.29205,-0.0848 -5.80688,17.13073 -11.68658,34.35717 -18.3388,51.27996 -3.08667,7.85224 -7.67633,15.11371 -11.88123,22.86298 z"
   id="path8" />
<path
   fill="#d6b8b6"
   opacity="1"
   stroke="none"
   d="m 307.18941,341.41095 c -3.6026,6.09638 -7.24237,11.78247 -11.05393,17.74982 -3.80932,-1.85019 -4.45617,-5.04627 -4.23776,-9.06934 0.47711,-8.78836 -1.76819,-17.07419 -8.43774,-22.99215 -2.23517,-1.98328 -6.92688,-2.20917 -10.24952,-1.68314 -3.62054,0.57318 -7.33859,2.4285 -10.35022,4.6322 -15.88678,11.6247 -34.52411,17.66913 -52.03381,25.97159 -5.93082,2.81219 -10.26324,6.85117 -14.30402,11.91351 -8.07837,10.1207 -16.78411,19.7406 -25.81933,29.43036 -6.28378,-3.6181 -11.97904,-7.09924 -17.67426,-10.58044 0,0 0.0624,-0.43677 0.27481,-0.94171 2.22367,-2.93915 4.02439,-5.59131 6.28101,-7.77164 12.49027,-12.06793 24.20679,-24.78107 33.91873,-39.24896 4.23715,-6.31217 10.0575,-10.47647 17.35376,-12.7728 17.36862,-5.4664 34.06552,-12.42691 49.6543,-22.00372 4.16076,-2.55612 9.06546,-3.92166 13.66891,-5.73127 4.93915,-1.94149 8.19043,-0.0649 11.57035,3.94193 3.64074,4.31595 6.33111,8.89334 6.18637,14.29425 -0.29169,10.8855 4.78164,17.3107 14.86133,20.35046 0.11791,1.36695 0.23586,2.73386 0.39102,4.51105 z"
   id="path10" />
<path
   fill="#d5a49c"
   opacity="1"
   stroke="none"
   d="m 152.72981,386.92246 c 5.99423,3.3421 11.68949,6.82324 17.6561,10.60303 -4.64502,6.34576 -9.49628,12.44726 -14.49478,18.42565 -5.83264,6.97602 -13.69156,10.40155 -22.39993,11.90369 -8.01413,1.38251 -14.71003,4.9472 -20.31223,10.76721 -1.72717,1.79431 -3.5499,3.51282 -5.45421,5.11731 -6.32278,5.32721 -12.885794,9.66345 -21.910224,8.88367 -6.4237,-0.55518 -12.95166,0.20013 -19.4322,0.17163 -8.24268,-0.0363 -15.18199,2.87012 -21.03063,8.62036 -1.63072,1.60321 -3.45645,3.00812 -5.73744,4.97333 -4.68127,-9.75043 -9.1195,-18.99457 -13.43045,-28.53015 1.97821,-1.3805 3.77109,-2.58716 5.6918,-3.53479 4.43374,-2.18763 8.74277,-5.28998 13.44124,-6.1333 8.28539,-1.48713 16.84227,-2.27472 25.25153,-2.05512 10.76901,0.28113 19.90266,-2.57806 27.67958,-10.01129 1.912724,-1.82819 4.177024,-3.28387 6.232964,-4.96783 6.70845,-5.49482 14.29164,-8.60584 22.91355,-10.115 4.84705,-0.84844 9.30683,-3.90917 13.94108,-5.97326 3.69839,-2.66864 7.39682,-5.33734 11.39425,-8.14514 z"
   id="path12" />
<path
   fill="#c14718"
   opacity="1"
   stroke="none"
   d="m 140.94661,394.89682 c -4.2453,2.23487 -8.70508,5.2956 -13.55213,6.14404 -8.62191,1.50916 -16.2051,4.62018 -22.91355,10.115 -2.05594,1.68396 -4.32024,3.13964 -6.232964,4.96783 -7.77692,7.43323 -16.91057,10.29242 -27.67958,10.01129 -8.40926,-0.2196 -16.96614,0.56799 -25.25153,2.05512 -4.69847,0.84332 -9.0075,3.94567 -13.44124,6.1333 -1.92071,0.94763 -3.71359,2.15429 -5.96421,3.23254 -5.4955,-14.68457 -10.59131,-29.3584 -15.61864,-44.43817 6.87236,-0.0329 13.67523,0.63953 20.48032,0.66266 33.79954,0.11487 67.5997,0.0378 101.399504,0.10077 2.7955,0.005 5.59006,0.55047 8.77402,1.01562 z"
   id="path14" />
<path
   fill="#d6a49d"
   opacity="1"
   stroke="none"
   d="m 306.97188,336.54727 c -10.25318,-2.68713 -15.32651,-9.11233 -15.03482,-19.99783 0.14474,-5.40091 -2.54563,-9.9783 -6.18637,-14.29425 -3.37992,-4.0068 -6.6312,-5.88342 -11.57035,-3.94193 -4.60345,1.80961 -9.50815,3.17515 -13.66891,5.73127 -15.58878,9.57681 -32.28568,16.53732 -49.6543,22.00372 -7.29626,2.29633 -13.11661,6.46063 -17.35376,12.7728 -9.71194,14.46789 -21.42846,27.18103 -33.91873,39.24896 -2.25662,2.18033 -4.05734,4.83249 -6.25415,7.55276 -22.91843,-16.7919 -36.83557,-39.13934 -41.41019,-67.38131 -8.31416,-51.32883 27.24271,-102.75128 78.58615,-113.26273 55.98871,-11.46249 109.29474,23.63977 120.29551,79.56696 3.42511,17.41287 2.3619,34.77258 -3.83008,52.00158 z"
   id="path16" />
<path
   fill="#c14718"
   opacity="1"
   stroke="none"
   d="m 447.05965,395.00901 c -0.37384,1.02795 -1.09101,2.221 -2.12317,2.99273 -8.4801,6.34064 -17.07123,12.53357 -25.51447,18.9223 -3.47418,2.62873 -7.13952,2.90003 -11.27722,2.3584 -17.77264,-2.32623 -35.45563,-5.00824 -52.53278,-10.7409 -1.69717,-0.56971 -3.58661,-0.60248 -5.39639,-0.7948 -7.79614,-0.82837 -14.13739,-3.55023 -16.08594,-12.50873 37.44876,-0.3263 74.94474,-0.29273 112.92997,-0.229 z"
   id="path18" />
</svg>
