<?xml version="1.0" encoding="UTF-8" standalone="no"?>
<svg
   version="1.1"
   id="Layer_1"
   x="0px"
   y="0px"
   width="813.11743"
   viewBox="0 0 813.11743 864.66022"
   enable-background="new 0 0 1000 1080"
   xml:space="preserve"
   sodipodi:docname="logo-icon-for-herbal-ingredients-business-vector-19172081.svg"
   height="864.66022"
   inkscape:version="1.1.2 (0a00cf5339, 2022-02-04)"
   xmlns:inkscape="http://www.inkscape.org/namespaces/inkscape"
   xmlns:sodipodi="http://sodipodi.sourceforge.net/DTD/sodipodi-0.dtd"
   xmlns="http://www.w3.org/2000/svg"
   xmlns:svg="http://www.w3.org/2000/svg"><defs
   id="defs115" /><sodipodi:namedview
   id="namedview113"
   pagecolor="#ffffff"
   bordercolor="#666666"
   borderopacity="1.0"
   inkscape:pageshadow="2"
   inkscape:pageopacity="0.0"
   inkscape:pagecheckerboard="0"
   showgrid="false"
   fit-margin-top="0"
   fit-margin-left="0"
   fit-margin-right="0"
   fit-margin-bottom="0"
   inkscape:zoom="0.66574074"
   inkscape:cx="404.81224"
   inkscape:cy="400.30598"
   inkscape:window-width="1920"
   inkscape:window-height="1012"
   inkscape:window-x="0"
   inkscape:window-y="0"
   inkscape:window-maximized="1"
   inkscape:current-layer="Layer_1" />


<path
   fill="#2a7fb8"
   opacity="1"
   stroke="none"
   d="m 261.20861,653.88725 c 6.76257,-25.32611 25.22036,-39.98358 45.48284,-52.27191 C 190.43324,546.61375 130.56622,455.08012 126.05846,326.13819 c 193.02878,0 384.8526,0 577.23071,0 0.68201,60.0821 -14.96502,115.28012 -47.87237,165.36521 -32.8097,49.93628 -77.16144,86.22546 -132.7035,109.5393 25.08503,15.51477 46.43433,33.10779 47.78791,65.76667 -103.72913,0 -206.90961,0 -310.78107,0 0.49118,-4.33814 0.9538,-8.42365 1.48847,-12.92212 M 163.1657,403.94499 c 2.24917,6.77096 4.34179,13.59875 6.7767,20.30227 7.50626,20.66538 17.8418,39.91764 30.3884,57.89548 11.70254,16.76837 25.01996,32.146 40.41089,45.81061 14.07895,12.49975 28.93902,23.78241 45.28753,33.02539 18.9603,10.71954 38.75583,19.6167 59.95127,24.98785 8.65408,2.19306 17.39663,4.18232 26.20837,5.56849 9.46646,1.48907 19.05673,2.20758 28.60251,3.16778 4.11557,0.41388 8.25128,0.69879 12.38476,0.8429 3.99445,0.13934 8.00806,0.19897 11.99427,-0.0328 3.9306,-0.22852 7.83746,-0.86609 11.7547,-1.32422 -62.04624,-8.13127 -114.93451,-34.74424 -158.03968,-79.64982 -43.24875,-45.05512 -67.03164,-99.55826 -72.88791,-161.5445 -17.69845,0 -34.59304,0 -52.13272,0 2.09488,17.23801 4.3835,33.90586 9.30091,50.95057 z"
   id="path6" />
<path
   fill="#8fb022"
   opacity="1"
   stroke="none"
   d="m 713.25945,252.68653 c -13.31891,19.69736 -31.70813,33.04862 -53.45276,41.86289 -35.54657,14.40887 -71.60004,12.90115 -107.7085,2.30411 -35.47509,-10.4112 -66.65631,-28.92774 -96.16839,-50.80658 -45.89667,-34.02558 -94.26764,-63.92194 -147.63959,-84.96866 -37.30045,-14.70908 -75.69351,-24.37876 -116.19226,-23.66713 -21.69986,0.38133 -42.70926,4.04542 -62.84938,12.28676 -0.87924,0.35978 -1.78556,0.65341 -3.45858,0.18882 4.74778,-6.22839 9.27913,-12.63639 14.27631,-18.6578 C 199.28221,59.876168 274.53258,16.633499 366.47371,3.5595939 c 75.17661,-10.690017 146.78574,3.121872 214.65109,35.7302741 94.51026,45.41088 161.85041,117.251252 202.02045,214.079372 23.33179,56.23993 32.91272,115.07547 29.19336,175.89044 -4.93561,80.7013 -30.74304,154.12293 -79.12933,219.00904 C 675.13152,726.1511 598.81029,778.06516 504.46337,801.17143 384.71361,830.49888 273.43163,808.90336 171.82982,739.2509 127.89169,709.12937 92.103647,670.74949 63.325317,625.89476 c -0.92861,-1.44739 -1.41551,-3.17804 -2.10832,-4.77668 0.4532,-0.30377 0.9064,-0.60748 1.3596,-0.91125 1.0721,1.06451 2.25324,2.04046 3.2007,3.2063 C 123.84255,694.85734 198.8492,737.88157 289.05477,753.46116 411.16103,774.55039 521.90392,746.67851 620.09679,671.1475 681.78508,623.69627 725.91466,563.20701 749.57506,488.58421 765.4962,438.37065 770.57933,387.04609 764.3662,334.62946 760.06066,298.30577 751.18724,263.13337 735.57573,230.12077 714.33275,185.19978 683.59514,147.32929 645.28093,115.72476 603.15801,80.978488 555.08177,57.638908 502.90752,42.318478 c -0.94696,-0.27805 -1.91217,-0.54664 -2.88733,-0.65861 -0.76593,-0.0879 -1.56042,0.0732 -1.90149,-0.64388 20.69373,9.42015 41.85925,17.93521 61.99347,28.42881 62.3288,32.484592 111.91937,78.228032 143.72101,141.798622 3.04919,6.09533 5.62481,12.42761 8.1076,18.98593 -0.83185,-0.2464 -1.44763,-0.76828 -1.85553,-1.42029 -5.35882,-8.56552 -10.34381,-17.38843 -16.0957,-25.67978 -12.53632,-18.07098 -27.49567,-34.07695 -43.75909,-48.8123 -7.97669,-7.22726 -16.10895,-14.46057 -25.00318,-20.45656 -13.98944,-9.43097 -28.1402,-18.91569 -43.21728,-26.3645 -17.92401,-8.855352 -36.60749,-16.421892 -55.50159,-22.995882 -19.21808,-6.68671 -39.20459,-10.99585 -59.54346,-13.10959 -16.11883,-1.67515 -32.22339,-3.78143 -48.38989,-4.60747 -12.24225,-0.62555 -24.58899,0.17264 -36.85821,0.87745 -11.55955,0.66407 -23.19355,1.3497 -34.58698,3.26304 -15.15384,2.54485 -30.17487,6.00198 -45.12973,9.58196 -24.26154,5.80781 -47.38669,14.8619 -69.85922,25.611902 -2.38462,1.14071 -4.58191,2.67284 -7.73023,4.53429 1.73688,0.53886 2.3067,0.77814 2.90051,0.89081 18.01929,3.41907 36.29459,5.86005 53.99033,10.50793 17.41409,4.57389 34.55695,10.6083 51.24524,17.40932 20.8208,8.48514 41.47015,17.60785 61.42584,27.93825 20.13144,10.42135 39.52097,22.33563 58.86399,34.20151 15.52777,9.52539 30.86035,19.45782 45.61969,30.12274 15.39245,11.12231 31.63073,20.79043 48.80554,28.51983 21.16772,9.52643 43.05206,17.40436 66.53497,19.50827 15.59998,1.39762 31.1875,1.88572 46.59937,-1.263 15.07135,-3.07919 29.32916,-8.31643 41.70666,-17.86239 3.61151,-2.78531 7.43195,-5.29975 11.15662,-7.93836 z"
   id="path8" />
<path
   fill="#a5c63b"
   opacity="1"
   stroke="none"
   d="m 713.23619,252.66261 c -3.70141,2.66253 -7.52185,5.17697 -11.13336,7.96228 -12.3775,9.54596 -26.63531,14.7832 -41.70666,17.86239 -15.41187,3.14872 -30.99939,2.66062 -46.59937,1.263 -23.48291,-2.10391 -45.36725,-9.98184 -66.53497,-19.50827 -17.17481,-7.7294 -33.41309,-17.39752 -48.80554,-28.51983 -14.75934,-10.66492 -30.09192,-20.59735 -45.61969,-30.12274 -19.34302,-11.86588 -38.73255,-23.78016 -58.86399,-34.20151 -19.95569,-10.3304 -40.60504,-19.45311 -61.42584,-27.93825 -16.68829,-6.80102 -33.83115,-12.83543 -51.24524,-17.40932 -17.69574,-4.64788 -35.97104,-7.08886 -53.99033,-10.50793 -0.59381,-0.11267 -1.16363,-0.35195 -2.90051,-0.89081 3.14832,-1.86145 5.34561,-3.39358 7.73023,-4.53429 22.47253,-10.750002 45.59768,-19.804092 69.85922,-25.611902 14.95486,-3.57998 29.97589,-7.03711 45.12973,-9.58196 11.39343,-1.91334 23.02743,-2.59897 34.58698,-3.26304 12.26922,-0.70481 24.61596,-1.503 36.85821,-0.87745 16.1665,0.82604 32.27106,2.93232 48.38989,4.60747 20.33887,2.11374 40.32538,6.42288 59.54346,13.10959 18.8941,6.57399 37.57758,14.14053 55.50159,22.995882 15.07708,7.44881 29.22784,16.93353 43.21728,26.3645 8.89423,5.99599 17.02649,13.2293 25.00318,20.45656 16.26342,14.73535 31.22277,30.74132 43.75909,48.8123 5.75189,8.29135 10.73688,17.11426 16.0957,25.67978 0.4079,0.65201 1.02368,1.17389 1.91181,1.79822 2.09405,4.2605 4.12933,8.38974 5.38373,12.74393 0.46783,1.62417 -0.88813,3.77374 -1.96412,6.0133 -0.78601,0.66233 -1.02044,0.99509 -1.25488,1.32788 0,0 0.0783,-0.11212 -0.17108,0.0484 -0.4375,0.7584 -0.62555,1.35617 -0.81354,1.95398 0,0 0.0357,-0.0561 0.059,-0.0322 z"
   id="path10" />
<path
   fill="#3698db"
   opacity="1"
   stroke="none"
   d="m 133.84038,119.31564 c -42.665603,51.84146 -70.169343,110.38255 -79.725373,176.5442 -18.01296,124.7135 18.32623,232.01947 107.773983,320.32257 56.63392,55.90918 125.81086,88.13318 204.80091,98.48902 82.05856,10.75799 159.01791,-4.88312 230.83114,-45.969 0.1446,-0.0827 0.28052,-0.21234 0.43525,-0.24109 1.57183,-0.29254 3.14672,-0.56848 4.72082,-0.84912 -0.90881,1.20557 -1.59344,2.71753 -2.75995,3.57074 -19.13476,13.99616 -39.38531,26.15149 -60.71618,36.50171 -45.59369,22.12335 -93.60492,35.41767 -144.17844,39.08136 C 312.316,752.75749 234.35808,736.98368 163.45262,693.07725 79.019397,640.79405 26.167227,565.37248 7.2729567,467.91203 -14.063554,357.85398 12.247207,257.81834 76.980037,167.37945 104.38576,129.09063 138.43395,97.358508 177.30745,70.817758 c 1.5979,-1.09096 3.45664,-1.79991 5.35376,-2.06674 -16.19708,16.76493 -32.39419,33.529892 -48.82083,50.564622 z"
   id="path12" />
<path
   fill="#7e8c8d"
   opacity="1"
   stroke="none"
   d="m 292.12801,311.6114 c -26.65344,0.0429 -53.30728,0.15011 -79.95963,-8.5e-4 -1.99518,-0.0113 -4.42053,-1.43296 -5.90317,-2.93308 -20.859,-21.10486 -41.29571,-42.57825 -56.42404,-68.41681 -0.24478,-0.41809 -0.63952,-0.74841 -0.72221,-0.84296 -5.90303,2.54261 -11.47571,5.59617 -17.42841,7.38587 -18.72383,5.62958 -32.859453,-5.46396 -30.13513,-24.76746 4.36096,-30.90014 21.84314,-52.55118 50.28325,-65.29227 2.39172,-1.07148 5.08966,-1.6497 7.70642,-1.99789 17.05762,-2.2697 27.91211,9.77901 25.21546,28.02118 -0.65235,4.41281 -1.7678,8.75717 -2.61893,12.884 12.03772,4.12458 24.17813,7.67597 35.84866,12.39041 45.77399,18.49115 87.8457,43.75348 128.49582,71.48148 14.68573,10.01739 29.00412,20.5733 43.49014,30.88348 -0.1224,0.4094 -0.24478,0.81882 -0.36718,1.22821 -10.84687,0 -21.6937,0 -33.06272,-0.402 -3.52633,-2.68814 -6.42373,-5.1334 -9.55258,-7.23389 -16.79944,-11.27802 -33.4053,-22.87381 -50.57529,-33.56097 -13.07782,-8.14011 -26.90557,-15.0738 -40.38418,-22.57203 -24.00086,-13.35177 -48.95633,-24.4588 -75.55716,-31.51822 -5.99735,-1.59161 -12.29626,-2.0469 -18.45633,-3.02526 -0.12146,0.4562 -0.24289,0.91238 -0.36435,1.36859 1.47787,1.2944 2.86563,2.71252 4.44733,3.86435 18.74185,13.6485 37.53311,27.22924 56.27014,40.88434 18.46689,13.45825 36.9245,26.93002 55.302,40.50973 4.97397,3.67542 9.64307,7.7634 14.45209,11.66205 z"
   id="path14" />
<path
   fill="#e6e6e6"
   opacity="1"
   stroke="none"
   d="m 227.9912,862.60667 c -18.77481,-0.34656 -37.07419,-0.43897 -55.35239,-1.10968 -18.5547,-0.68085 -37.10719,-1.67664 -55.62431,-3.03113 -10.86919,-0.7951 -21.674723,-2.50458 -32.489673,-3.94672 -1.56288,-0.20837 -3.01795,-1.22515 -4.52291,-1.86785 0.0429,-0.56135 0.0858,-1.12275 0.12868,-1.68409 5.55223,-1.1015 11.06029,-2.62756 16.66643,-3.21099 9.880483,-1.02826 19.811923,-1.67109 29.737913,-2.13709 24.03707,-1.12866 48.08349,-2.05682 72.1256,-3.07892 6.96039,-0.29584 13.91577,-0.79053 20.87875,-0.92785 21.28812,-0.42005 42.57785,-0.90699 63.86875,-1.01624 79.27789,-0.40662 158.5563,-0.74036 237.83499,-0.93665 16.78998,-0.0416 33.58404,0.52253 50.37195,0.9676 21.75268,0.57659 43.50439,1.22228 65.25006,2.0158 13.09149,0.47779 26.19531,0.98603 39.2492,2.03388 16.64692,1.33624 33.25397,3.18329 49.86371,4.9469 2.0152,0.21399 3.94043,1.27563 5.90735,1.94445 0.0361,0.43976 0.0723,0.87952 0.1084,1.31928 -1.52411,0.56982 -3.01154,1.4906 -4.57813,1.65448 -13.65374,1.42828 -27.29638,3.14569 -40.99096,3.95892 -22.85468,1.35718 -45.74487,2.11823 -68.62085,3.11328 -8.12439,0.35346 -16.24823,0.78589 -24.37708,0.95807 -19.62127,0.41571 -39.24414,0.87274 -58.86847,1.00397 -62.44738,0.41773 -124.89566,0.71698 -187.34384,1.01111 -17.99597,0.0847 -35.99392,0.1253 -53.98877,-0.0461 -18.625,-0.17743 -37.24807,-0.60205 -55.86999,-1.00891 -2.96521,-0.0648 -5.92008,-0.60474 -9.36441,-0.92554 z"
   id="path16" />
<path
   fill="#95a5a5"
   opacity="1"
   stroke="none"
   d="m 292.59285,311.67259 c -5.27386,-3.95984 -9.94296,-8.04782 -14.91693,-11.72324 -18.3775,-13.57971 -36.83511,-27.05148 -55.302,-40.50973 -18.73703,-13.6551 -37.52829,-27.23584 -56.27014,-40.88434 -1.5817,-1.15183 -2.96946,-2.56995 -4.44733,-3.86435 0.12146,-0.45621 0.24289,-0.91239 0.36435,-1.36859 6.16007,0.97836 12.45898,1.43365 18.45633,3.02526 26.60083,7.05942 51.5563,18.16645 75.55716,31.51822 13.47861,7.49823 27.30636,14.43192 40.38418,22.57203 17.16999,10.68716 33.77585,22.28295 50.57529,33.56097 3.12885,2.10049 6.02625,4.54575 9.08978,7.16302 -20.96902,0.41144 -41.99743,0.4917 -63.49069,0.51075 z"
   id="path18" />
<path
   fill="#8fb022"
   opacity="1"
   stroke="none"
   d="m 713.4475,252.5344 c -0.0823,-0.43741 0.10571,-1.03518 0.59802,-1.75271 0.0936,0.45095 -0.117,1.02163 -0.59802,1.75271 z"
   id="path20" />
<path
   fill="#8fb022"
   opacity="1"
   stroke="none"
   d="m 714.49803,250.6309 c -0.1018,-0.2713 0.13263,-0.60406 0.62171,-1.12625 0.0746,0.22864 -0.10541,0.6467 -0.62171,1.12625 z"
   id="path22" />



































<path
   fill="#3598db"
   opacity="1"
   stroke="none"
   d="m 163.11839,403.53855 c -4.8701,-16.63827 -7.15872,-33.30612 -9.2536,-50.54413 17.53968,0 34.43427,0 52.13272,0 5.85627,61.98624 29.63916,116.48938 72.88791,161.5445 43.10517,44.90558 95.99344,71.51855 158.03968,79.64984 -3.91724,0.45813 -7.8241,1.0957 -11.7547,1.32422 -3.98621,0.23175 -7.99982,0.17212 -11.99427,0.0328 -4.13348,-0.14411 -8.26919,-0.42902 -12.38476,-0.8429 -9.54578,-0.9602 -19.13605,-1.67871 -28.60251,-3.16778 -8.81174,-1.38617 -17.55429,-3.37543 -26.20837,-5.56849 -21.19544,-5.37115 -40.99097,-14.26831 -59.95127,-24.98785 -16.34851,-9.24298 -31.20858,-20.52564 -45.28753,-33.02539 -15.39093,-13.66461 -28.70835,-29.04224 -40.41089,-45.81061 -12.5466,-17.97784 -22.88214,-37.2301 -30.3884,-57.89548 -2.43491,-6.70352 -4.52753,-13.53131 -6.82401,-20.70871 z"
   id="path94" />








</svg>
