<?xml version="1.0" encoding="UTF-8" standalone="no"?>
<svg
   viewBox="0 0 1073 606"
   version="1.1"
   id="svg1169"
   sodipodi:docname="logo.svg"
   inkscape:version="1.1.2 (0a00cf5339, 2022-02-04)"
   xmlns:inkscape="http://www.inkscape.org/namespaces/inkscape"
   xmlns:sodipodi="http://sodipodi.sourceforge.net/DTD/sodipodi-0.dtd"
   xmlns="http://www.w3.org/2000/svg"
   xmlns:svg="http://www.w3.org/2000/svg">
  <defs
     id="defs1173" />
  <sodipodi:namedview
     id="namedview1171"
     pagecolor="#ffffff"
     bordercolor="#666666"
     borderopacity="1.0"
     inkscape:pageshadow="2"
     inkscape:pageopacity="0.0"
     inkscape:pagecheckerboard="0"
     showgrid="false"
     inkscape:zoom="1.3719581"
     inkscape:cx="380.47809"
     inkscape:cy="122.81716"
     inkscape:window-width="2535"
     inkscape:window-height="1416"
     inkscape:window-x="0"
     inkscape:window-y="0"
     inkscape:window-maximized="1"
     inkscape:current-layer="svg1169" />
  <rect
     fill="#48bb78"
     x="354"
     y="71"
     width="86"
     height="471"
     rx="43"
     ry="43"
     id="rect1151" />
  <rect
     fill="#48bb78"
     x="631"
     y="71"
     width="86"
     height="471"
     rx="43"
     ry="43"
     id="rect1153" />
  <rect
     fill="#48bb78"
     x="493"
     y="73"
     width="86"
     height="471"
     rx="43"
     ry="43"
     id="rect1155" />
  <rect
     fill="#48bb78"
     x="3.1654725"
     y="150.72888"
     width="314"
     height="91"
     rx="45.389999"
     ry="45.389999"
     id="rect1157" />
  <rect
     fill="#48bb78"
     x="67"
     y="293"
     width="247"
     height="71"
     rx="35.5"
     ry="35.5"
     id="rect1159" />
  <rect
     fill="#48bb78"
     x="138"
     y="428"
     width="176"
     height="57"
     rx="28.5"
     ry="28.5"
     id="rect1161" />
  <rect
     fill="#48bb78"
     x="759"
     y="150"
     width="314"
     height="91"
     rx="45.39"
     ry="45.39"
     transform="translate(1832 391) rotate(-180)"
     id="rect1163" />
  <rect
     fill="#48bb78"
     x="759"
     y="293"
     width="247"
     height="71"
     rx="35.5"
     ry="35.5"
     transform="translate(1765 657) rotate(-180)"
     id="rect1165" />
  <rect
     fill="#48bb78"
     x="759"
     y="428"
     width="176"
     height="57"
     rx="28.5"
     ry="28.5"
     transform="translate(1694 913) rotate(-180)"
     id="rect1167" />
</svg>
