<svg xmlns="http://www.w3.org/2000/svg" viewBox="0 0 1073 606">
   <rect fill="none" stroke="#48bb78" stroke-miterlimit="10" stroke-width="24" x="226" y="12" width="619" height="582"
      rx="51.96" ry="51.96" />
   <rect fill="#48bb78" x="354" y="71" width="86" height="471" rx="43" ry="43" />
   <rect fill="#48bb78" x="631" y="71" width="86" height="471" rx="43" ry="43" />
   <rect fill="#48bb78" x="493" y="73" width="86" height="471" rx="43" ry="43" />
   <rect fill="#48bb78" x="0" y="150" width="314" height="91" rx="45.39" ry="45.39" />
   <rect fill="#48bb78" x="67" y="293" width="247" height="71" rx="35.5" ry="35.5" />
   <rect fill="#48bb78" x="138" y="428" width="176" height="57" rx="28.5" ry="28.5" />
   <rect fill="#48bb78" x="759" y="150" width="314" height="91" rx="45.39" ry="45.39"
      transform="translate(1832 391) rotate(-180)" />
   <rect fill="#48bb78" x="759" y="293" width="247" height="71" rx="35.5" ry="35.5"
      transform="translate(1765 657) rotate(-180)" />
   <rect fill="#48bb78" x="759" y="428" width="176" height="57" rx="28.5" ry="28.5"
      transform="translate(1694 913) rotate(-180)" />
</svg>