<?xml version="1.0" encoding="utf-8"?>
<!-- Generator: Adobe Illustrator 27.0.0, SVG Export Plug-In . SVG Version: 6.00 Build 0)  -->
<svg version="1.1" id="Layer_1" xmlns="http://www.w3.org/2000/svg" xmlns:xlink="http://www.w3.org/1999/xlink" x="0px" y="0px"
	 viewBox="0 0 1014.65 231.5" style="enable-background:new 0 0 1014.65 231.5;" xml:space="preserve">
<style type="text/css">
	.st0{fill:#377dff;}
	.st1{opacity:0.5;fill:#377dff;}
</style>
<g>
	
		<ellipse transform="matrix(0.9871 -0.1602 0.1602 0.9871 -15.3283 22.0191)" class="st0" cx="128.91" cy="106.08" rx="23.03" ry="23.03"/>
	<g>
		
			<ellipse transform="matrix(0.9732 -0.2298 0.2298 0.9732 -26.6416 16.2628)" class="st0" cx="56.52" cy="122.54" rx="19.74" ry="19.74"/>
		<path class="st0" d="M73.71,160.3c-5.02-3.09-10.9-4.85-17.19-4.85c-18.18,0-32.91,14.73-32.91,32.91v13.62
			c0,6.99,5.68,12.71,12.71,12.71h36.12c-1.77-4.03-2.76-8.47-2.76-13.16v-19.74C69.68,174.2,71.12,166.96,73.71,160.3z"/>
		<g>
			<path class="st0" d="M128.91,148.86c-21.8,0-39.49,17.69-39.49,39.49v13.16c0,7.28,5.88,13.16,13.16,13.16h52.65
				c7.28,0,13.16-5.88,13.16-13.16v-13.16C168.4,166.55,150.71,148.86,128.91,148.86z"/>
			<path class="st1" d="M240.1,64.7l-105.3-52.65c-3.7-1.85-8.06-1.85-11.76,0L17.73,64.7c-6.5,3.25-9.13,11.15-5.88,17.65
				c3.25,6.5,11.15,9.13,17.65,5.88l99.42-49.69l99.42,49.69c6.5,3.25,14.4,0.62,17.65-5.88C249.23,75.85,246.59,67.95,240.1,64.7z"
				/>
		</g>
		
			<ellipse transform="matrix(0.9732 -0.2298 0.2298 0.9732 -22.7683 49.5287)" class="st0" cx="201.31" cy="122.54" rx="19.74" ry="19.74"/>
		<path class="st0" d="M201.35,155.44c-6.29,0-12.18,1.77-17.19,4.85c2.59,6.66,4.03,13.9,4.03,21.47v19.74
			c0,4.69-0.99,9.13-2.76,13.16h36.12c6.99,0,12.71-5.68,12.71-12.71v-13.62C234.25,170.17,219.53,155.44,201.35,155.44z"/>
	</g>
</g>
<g>
	<g>
		<path class="st0" d="M440.9,77.26v78.18h-20.94V77.26H440.9z"/>
		<path class="st0" d="M454.56,117.8c0-7.6-0.23-14.15-0.46-19.43h17.54l0.84,7.1h0.41c2.09-2.84,7.08-8.38,16.88-8.38
			c7.28,0,12.96,3.39,15.43,9.08h0.23c2.26-2.93,4.9-5.19,7.83-6.76c2.93-1.54,6.32-2.32,10.09-2.32c12.29,0,19.37,8.9,19.37,24.77
			v33.58h-20.3V125c0-7.08-2.06-11.14-6.7-11.14c-3.33,0-5.45,2.15-6.38,4.84c-0.41,1.19-0.55,2.96-0.55,4.21v32.54h-20.3v-31.03
			c0-6.38-1.94-10.56-6.67-10.56c-3.74,0-5.57,2.78-6.35,4.67c-0.52,1.33-0.61,2.87-0.61,4.23v32.68h-20.3V117.8z"/>
		<path class="st0" d="M555.6,117.8c0-7.6-0.23-14.09-0.46-19.43h18.04l0.93,7.25h0.23c4.26-5.63,10.61-8.53,18.47-8.53
			c11.92,0,23.49,10.53,23.49,29.12c0,20.91-13.54,30.51-25.96,30.51c-6.47,0-11.45-2.49-13.6-5.45h-0.23v27.14H555.6V117.8z
			 M576.51,130.51c0,1.28,0.09,2.44,0.32,3.48c0.84,3.68,4,6.81,8.18,6.81c6.24,0,10.06-5.37,10.06-13.6c0-8.09-3.25-13.8-9.83-13.8
			c-4.15,0-7.74,3.28-8.44,7.34c-0.23,0.87-0.29,1.77-0.29,2.73V130.51z"/>
		<path class="st0" d="M659.18,155.45l-1.1-5.02h-0.41c-3.97,4.58-9.66,6.29-15.8,6.29c-11.66,0-18.88-8.41-18.88-17.92
			c0-15.31,13.75-22.13,33.15-22.16v-0.52c0-2.35-1.77-4.87-9.37-4.87c-6.03,0-12.38,2.15-16.09,4.26l-3.65-13.25
			c3.65-1.94,11.8-5.16,23.61-5.16c19.66,0,26.42,10.93,26.42,25.17v19.28c0,5.68,0.32,10.99,0.93,13.89H659.18z M656.81,129.37
			c-8.53,0.03-13.34,2.38-13.34,7.37c0,3.65,2.38,5.51,5.92,5.51c2.99,0,6.21-2.12,7.16-5.28c0.23-0.84,0.26-1.91,0.26-2.93V129.37z
			"/>
		<path class="st0" d="M733.66,154.28c-3.39,1.54-9.34,2.38-15.69,2.38c-18.97,0-30.91-11.11-30.91-29.23
			c0-16.3,11.16-30.28,33.46-30.28c4.09,0,9.08,0.55,13.17,1.91l-2.96,15.4c-1.97-0.78-4.76-1.42-8.99-1.42
			c-7.83,0-13.37,5.34-13.28,13.6c0,9.31,6.41,13.77,13.8,13.77c3.57,0,6.52-0.44,9.16-1.48L733.66,154.28z"/>
		<path class="st0" d="M765.27,82.16v16.21h11.86v15.31h-11.86v16.38c0,6.79,1.57,9.6,6.64,9.6c2.12,0,3.8-0.2,4.96-0.44v15.86
			c-2.41,0.84-7.08,1.57-12.44,1.57c-6.15,0-11.28-2.17-14.3-5.19c-3.48-3.48-5.28-9.08-5.28-17.78v-20.01h-7.05V98.37h7.05V86.75
			L765.27,82.16z"/>
		<path class="st0" d="M789.8,78.34c4.35-1.01,9.89-1.68,15.75-1.68c9.74,0,16.12,2.12,20.44,6.47c3.16,3.16,4.81,7.39,4.81,12.88
			c0,7.98-5.66,14.73-13.46,17.43v0.32c6.53,1.45,16.5,7.16,16.5,19.89c0,6.38-2.26,11.28-5.8,14.93
			c-5.16,5.34-13.57,7.48-24.68,7.48c-5.94,0-10.53-0.44-13.57-0.7V78.34z M795.31,111.66h11.43c11.31,0,18.41-6.7,18.41-15.37
			c0-10.99-8.32-14.99-19.92-14.99c-5.19,0-8.15,0.41-9.92,0.84V111.66z M795.31,150.78c2.29,0.49,5.51,0.64,9.57,0.64
			c12.01,0,23.23-4.29,23.23-17.6c0-12.35-10.56-17.63-22.94-17.66h-9.86V150.78z"/>
		<path class="st0" d="M878.66,155.45l-0.81-7.97h-0.26c-2.7,4.29-8.9,9.25-17.75,9.25c-11.19,0-16.38-7.89-16.38-15.31
			c0-12.85,11.31-20.59,33.96-20.36v-1.48c0-5.51-1.07-16.5-14.24-16.41c-4.87,0-9.95,1.3-13.98,4.15l-1.74-4
			c5.08-3.45,11.28-4.81,16.33-4.81c16.07,0,19.14,12.06,19.14,22.01v21.72c0,4.41,0.17,8.96,0.81,13.22H878.66z M877.41,125.69
			c-12.12-0.35-28.13,1.48-28.13,14.85c0,8,5.28,11.6,11.08,11.6c9.28,0,14.56-5.74,16.47-11.16c0.41-1.19,0.58-2.38,0.58-3.33
			V125.69z"/>
		<path class="st0" d="M900.96,113.08c0-5.1-0.17-8.93-0.46-13.31h5.13l0.41,10.06h0.23c3.04-6.26,10.03-11.34,19.17-11.34
			c5.31,0,19.43,2.73,19.43,23.58v33.38h-5.51v-32.89c0-10.15-3.92-19.34-15.43-19.34c-7.83,0-14.5,5.6-16.7,12.82
			c-0.41,1.33-0.75,3.22-0.75,4.96v34.45h-5.51V113.08z"/>
		<path class="st0" d="M968.62,126.56h0.23c1.39-1.71,3.65-4.29,5.39-6.12l19.63-20.68h6.76l-22.47,23.08l25.61,32.6h-6.73
			l-22.74-29.2l-5.68,5.97v23.23h-5.51V73.09h5.51V126.56z"/>
	</g>
</g>
<path class="st1" d="M353.99,63.02v119.04c0,7.7-5.82,13.94-13,13.94h0c-7.18,0-13-6.24-13-13.94V63.02c0-7.7,5.82-13.94,13-13.94h0
	C348.17,49.08,353.99,55.32,353.99,63.02z"/>
</svg>
