<?xml version="1.0" encoding="UTF-8" standalone="no"?>
<svg
   version="1.1"
   id="Layer_1"
   x="0px"
   y="0px"
   width="822.34906"
   viewBox="0 0 822.34906 832.13428"
   enable-background="new 0 0 2516 835"
   xml:space="preserve"
   sodipodi:docname="emedia.svg"
   inkscape:version="1.1.2 (0a00cf5339, 2022-02-04)"
   height="832.13428"
   xmlns:inkscape="http://www.inkscape.org/namespaces/inkscape"
   xmlns:sodipodi="http://sodipodi.sourceforge.net/DTD/sodipodi-0.dtd"
   xmlns="http://www.w3.org/2000/svg"
   xmlns:svg="http://www.w3.org/2000/svg"><defs
   id="defs3250" /><sodipodi:namedview
   id="namedview3248"
   pagecolor="#ffffff"
   bordercolor="#666666"
   borderopacity="1.0"
   inkscape:pageshadow="2"
   inkscape:pageopacity="0.0"
   inkscape:pagecheckerboard="0"
   showgrid="false"
   inkscape:zoom="0.54769475"
   inkscape:cx="769.58926"
   inkscape:cy="413.55152"
   inkscape:window-width="1920"
   inkscape:window-height="1012"
   inkscape:window-x="0"
   inkscape:window-y="0"
   inkscape:window-maximized="1"
   inkscape:current-layer="Layer_1"
   inkscape:snap-global="true"
   fit-margin-top="0"
   fit-margin-left="0"
   fit-margin-right="0"
   fit-margin-bottom="0"
   showguides="false" />
<path
   fill="#ffffff"
   opacity="1"
   stroke="none"
   d="m 995.93703,1119.0209 c -138.99165,0 -277.98329,0 -416.98121,0 -0.006,-278.30834 -0.006,-556.61663 -0.006,-834.96248 838.57878,0 1677.17008,0 2515.87448,0 0,278.20361 0,556.44485 0,834.96248 -686.9197,0 -1373.9524,0 -2061.4073,-0.2386 -0.4221,-0.2386 -0.3354,-0.7114 0.122,-0.7306 4.6155,-0.014 8.8168,0.38 12.9234,-0.077 13.1323,-1.4613 26.2609,-3.0279 39.3289,-4.971 8.1161,-1.2068 16.1201,-3.1693 24.561,-4.8733 1.8247,-0.4019 3.2628,-0.7232 4.654,-1.0601 -0.047,-0.015 -0.065,0.082 0.3097,0.027 1.4957,-0.3738 2.6162,-0.6928 3.6899,-1.0261 -0.047,-0.014 -0.063,0.082 0.3505,0.027 3.1671,-0.6844 5.921,-1.3133 8.9987,-1.9753 0.7515,-0.097 1.179,-0.1618 1.8739,-0.2247 0.4795,-0.2782 0.6916,-0.5578 1.1183,-0.844 0.2144,-0.01 0.6162,-0.1575 1.0125,-0.1057 3.488,-0.8963 6.5797,-1.8443 9.9927,-2.8253 0.7453,-0.097 1.1693,-0.1616 1.9787,-0.1823 31.1684,-9.7278 60.8432,-21.9849 88.7385,-38.4458 24.6308,-14.5346 47.3019,-31.6255 68.0341,-51.2578 7.6974,-7.2891 14.9294,-15.10122 22.0092,-23.00143 6.2271,-6.94855 12.456,-13.99701 17.779,-21.63233 10.1433,-14.54956 19.9306,-29.36804 29.3346,-44.40704 12.0376,-19.25049 20.935,-40.06012 28.7573,-61.32013 11.9573,-32.49853 20.555,-65.82687 23.9433,-100.36221 1.5563,-15.86249 3.0811,-31.74728 3.8639,-47.65921 0.4701,-9.55603 -0.1693,-19.21146 -0.9267,-28.77338 -1.3994,-17.66394 -2.2153,-35.46881 -5.1861,-52.88894 -3.4877,-20.45182 -8.295,-40.75422 -13.818,-60.76593 -8.6476,-31.33211 -21.9069,-60.82439 -38.0904,-89.03638 -12.8028,-22.3185 -27.6497,-43.18346 -44.6245,-62.42693 -9.8316,-11.14554 -20.4031,-21.77866 -31.601,-31.54197 -13.1667,-11.47985 -27.0195,-22.2596 -41.2146,-32.45181 -19.246,-13.81887 -40.1249,-25.00271 -62.0237,-34.02086 -14.2124,-5.85287 -28.8906,-10.5749 -43.6742,-15.88157 -0.7439,-0.11333 -1.1737,-0.14868 -1.8057,-0.49243 -2.088,-0.68209 -3.9737,-1.05578 -6.0616,-1.50511 -0.2022,-0.0756 -0.6335,-0.0902 -0.7548,-0.32744 -0.4292,-0.35712 -0.7371,-0.47699 -1.3623,-0.67481 -0.7513,-0.11324 -1.1853,-0.14851 -1.8326,-0.49889 -2.4248,-0.6843 -4.6363,-1.05351 -7.0516,-1.49877 -0.2038,-0.0761 -0.6386,-0.0944 -0.8275,-0.39577 -1.1129,-0.37697 -2.037,-0.45256 -3.1668,-0.6042 -0.2057,-0.076 -0.6439,-0.0941 -0.8713,-0.42396 -3.1378,-0.80497 -6.0482,-1.28011 -8.9493,-1.70653 0.01,0.0487 0.1036,0.0182 -0.1014,-0.31303 -1.7532,-0.3712 -3.3012,-0.41115 -5.2719,-0.52514 -2.7656,-0.76452 -5.066,-1.78346 -7.4585,-2.09407 -21.1947,-2.75173 -42.3417,-6.50149 -63.6306,-7.71617 -20.1452,-1.14941 -40.44677,0.31231 -60.67385,0.83956 -3.98413,0.10385 -7.94275,1.18301 -12.23996,1.85429 -0.7612,0.10069 -1.19546,0.15946 -1.96899,0.14645 -1.12943,0.21484 -1.91962,0.50147 -3.1546,0.83552 -3.12799,0.11221 -5.81113,0.177 -8.79749,0.17056 -0.78638,0.21544 -1.26959,0.50211 -2.16321,0.83827 -1.78479,0.1108 -3.15918,0.17212 -4.83715,0.162 -0.78598,0.21708 -1.26832,0.50557 -2.14386,0.84342 -1.44635,0.10853 -2.49946,0.16769 -3.85645,0.15576 -0.78589,0.21839 -1.26791,0.50788 -2.11725,0.84654 -1.10446,0.10791 -1.84164,0.16667 -2.88257,0.15422 -0.78585,0.21792 -1.26797,0.50705 -2.11734,0.84549 -1.10449,0.10841 -1.84173,0.16751 -2.91934,0.15059 -1.13116,0.21776 -1.9219,0.51153 -3.03705,0.85527 -0.75723,0.10688 -1.19009,0.1638 -2.00604,0.14544 -2.47852,0.55111 -4.574,1.1775 -6.9939,1.85404 -0.75726,0.10722 -1.19015,0.16429 -2.02423,0.14607 -10.48733,2.55977 -20.66891,4.87858 -30.64178,7.8889 -30.47916,9.20018 -59.6568,21.42452 -87.19356,37.56489 -21.86319,12.81487 -42.34091,27.53691 -61.07494,44.49519 -11.36523,10.28795 -21.98101,21.51171 -32.07567,33.06459 -9.80003,11.21568 -18.92511,23.08772 -27.59726,35.2077 -15.40173,21.52504 -28.10464,44.71097 -37.98768,69.21753 -7.55316,18.72922 -14.02682,37.9494 -19.93566,57.27078 -6.16906,20.17227 -10.29083,40.87921 -12.17713,61.96298 -1.27461,14.24665 -3.51939,28.47532 -3.70679,42.73334 -0.24569,18.69266 0.88532,37.41788 1.86179,56.10626 0.53097,10.16211 1.29894,20.4007 3.14683,30.38514 3.08541,16.67083 6.82635,33.23754 10.82989,49.71722 5.7603,23.71094 14.11989,46.59155 24.77474,68.50384 7.36965,15.15601 15.68655,29.88367 24.17497,44.45618 13.70048,23.5202 30.68027,44.62085 49.49599,64.22441 6.42523,6.6944 13.14053,13.1705 20.21178,19.1706 10.88453,9.2358 21.73878,18.6248 33.43594,26.7545 13.53624,9.4078 27.87041,17.6925 42.06862,26.1099 5.29126,3.1368 11.17718,5.2706 17.01303,7.9306 0.22112,0.069 0.67702,0.1499 0.763,0.3937 0.38623,0.3416 0.68649,0.4394 1.2153,0.606 0.22853,0.069 0.69889,0.1502 0.78479,0.394 0.38614,0.3415 0.68639,0.4394 1.31325,0.6901 2.08339,0.7911 3.84016,1.4295 5.68416,2.3113 0.38779,0.3415 0.68841,0.4395 1.21713,0.6061 0.22812,0.069 0.6976,0.1494 0.78403,0.3931 0.3869,0.3416 0.68738,0.4396 1.21634,0.6062 0.22848,0.069 0.69861,0.1495 0.7847,0.3932 0.38635,0.3415 0.68661,0.4394 1.30328,0.6013 0.74554,0.095 1.17474,0.1268 1.69284,0.401 0.3895,0.3404 0.69003,0.4381 1.2189,0.6045 0.22834,0.069 0.69828,0.1499 0.78449,0.3936 0.38659,0.3417 0.68695,0.4396 1.3605,0.6107 3.85373,1.4356 7.30435,2.8811 10.81961,4.1473 27.23667,9.811 55.01776,17.5447 83.82859,20.9815 16.45645,1.9631 32.98361,3.331 49.47431,5.0127 1.5228,0.1553 3.0117,0.6427 4.51628,0.976 M 1798.9013,675.28308 c 4.8096,-21.3634 9.6684,-42.71588 14.4105,-64.09424 2.9662,-13.37247 5.7108,-26.79398 8.6399,-40.17493 3.0374,-13.87637 6.177,-27.73034 9.272,-41.59413 1.3232,14.10509 1.9988,28.10225 2.7237,42.09688 0.2722,5.25507 0.5806,10.51059 1.0081,15.75488 1.2915,15.84256 2.6304,31.68137 3.9902,47.51825 0.6442,7.50144 1.261,15.00834 2.0993,22.48929 1.1969,10.6828 2.6598,21.33566 3.8667,32.01743 0.8264,7.31402 1.2951,14.66855 2.13,21.98141 1.2002,10.5148 2.6607,20.99982 3.8704,31.51361 0.8224,7.14786 1.3101,14.33405 2.1175,21.48386 1.2248,10.84561 2.6161,21.6723 3.9018,32.51114 0.9911,8.35272 1.9287,16.71179 2.9092,25.23462 15.0798,0 29.5652,-0.17432 44.0413,0.11493 3.9305,0.0785 5.7282,-1.57166 7.2973,-4.68659 4.559,-9.05108 9.2704,-18.02563 13.9429,-27.01928 8.3058,-15.9867 16.616,-31.9711 24.9441,-47.94617 13.6108,-26.10864 27.4415,-52.10513 40.7948,-78.34473 11.3071,-22.21899 22.1815,-44.66119 33.028,-67.11063 5.7222,-11.84365 10.9657,-23.91839 16.4442,-35.88024 4.709,-10.28214 9.4449,-20.55207 14.1689,-30.8274 -17.8707,98.01804 -29.1207,196.93415 -44.1422,295.42441 21.2289,0 41.3127,0 61.088,0 15.7239,-119.28488 31.407,-238.26004 47.101,-357.31709 -1.485,-0.2479 -1.9532,-0.3942 -2.4212,-0.39441 -25.998,-0.012 -51.9966,-0.0665 -77.9933,0.12033 -1.5977,0.0115 -3.8675,1.56706 -4.6623,3.03398 -5.5147,10.17844 -10.7222,20.52327 -16.0265,30.81558 -10.9811,21.30768 -21.9718,42.61051 -32.9387,63.92545 -11.2611,21.88605 -22.7194,43.67435 -33.6743,65.71268 -8.3605,16.81878 -16.2327,33.88711 -24.0127,50.9852 -5.2405,11.51724 -9.9992,23.25589 -14.8626,34.94158 -2.9217,7.02039 -5.6308,14.12937 -8.4354,21.19852 -1.3168,-12.97336 -1.8876,-25.79635 -2.6047,-38.61114 -0.5696,-10.17542 -1.162,-20.35407 -2.0256,-30.50739 -1.1782,-13.84997 -2.6066,-27.67886 -3.9613,-41.51352 -0.6685,-6.82815 -1.3289,-13.6589 -2.1417,-20.47076 -1.215,-10.18286 -2.6544,-20.33942 -3.8197,-30.52759 -0.8365,-7.31436 -1.2089,-14.68295 -2.0919,-21.9906 -1.8745,-15.51203 -4.0795,-30.98459 -5.8988,-46.50266 -1.5736,-13.42463 -2.8019,-26.88977 -4.1958,-40.46257 -27.593,0 -54.8839,0 -82.5411,0 -30.1587,119.0541 -60.3403,238.19817 -90.6479,357.84011 15.7885,0 31.0908,0 46.3932,0 12.3004,0 12.1068,-0.0462 14.9918,-12.15644 6.1499,-25.81424 12.5297,-51.5737 18.7996,-77.35943 4.9023,-20.16129 9.7814,-40.32831 15.1233,-61.2222 m 854.5582,-200.2786 c 1.5215,-8.19566 3.0432,-16.39132 4.6382,-24.98236 -20.3262,0 -40.1351,-0.036 -59.9428,0.0989 -1.0716,0.007 -2.877,1.2869 -3.0817,2.24365 -1.5551,7.26697 -2.7611,14.60781 -4.1426,21.91301 -2.5213,13.33179 -5.1139,26.6501 -7.6289,39.98303 -2.4859,13.17774 -4.8712,26.3745 -7.3874,39.54635 -0.9182,4.80709 -2.0859,9.56655 -2.8454,13.01238 -13.5874,-2.01553 -26.3004,-5.03155 -39.0986,-5.45187 -10.7652,-0.35354 -21.7176,1.8212 -32.4329,3.73871 -28.1284,5.03366 -52.0996,18.50491 -72.8623,37.76737 -17.2326,15.98739 -30.215,35.0003 -39.9259,56.48364 -8.537,18.88629 -14.1439,38.60281 -15.5067,59.03171 -1.4677,22.00051 -1.5657,44.23785 7.6479,65.24645 6.3877,14.56501 14.807,27.44135 28.2683,36.38349 23.3106,15.48486 48.4165,15.18549 73.9018,7.26452 20.2119,-6.28192 35.8341,-19.41406 48.8903,-35.76901 2.4906,-3.12002 4.9485,-6.2662 7.9015,-10.00872 -1.7885,15.67276 -3.4735,30.43637 -5.1942,45.5148 18.8207,0 36.7986,0.0572 54.7739,-0.13074 1.178,-0.0123 3.2447,-1.80689 3.3605,-2.93079 0.9247,-8.97546 1.4181,-17.9942 2.164,-26.98968 0.581,-7.00641 1.0061,-14.04947 2.0819,-20.98606 2.0829,-13.43161 4.5241,-26.80886 6.9113,-40.19177 2.9806,-16.71029 5.952,-33.42346 9.1209,-50.0986 3.1643,-16.65009 6.6738,-33.23456 9.8359,-49.88501 3.167,-16.67575 6.0096,-33.41299 9.1485,-50.0943 2.5071,-13.32446 5.2595,-26.60263 7.8772,-39.90646 2.6494,-13.46482 5.3452,-26.92122 7.873,-40.40905 1.8479,-9.86032 3.4563,-19.76556 5.6543,-30.39354 m 336.8001,351.01642 c 3.4499,0.51044 2.6186,-1.99304 2.6723,-3.8313 0.3435,-11.74786 0.6724,-23.49615 1.0039,-35.24438 0.014,-0.49951 -0.031,-1.00406 0.023,-1.49854 1.3205,-12.16668 2.6108,-24.33685 3.9927,-36.49664 0.956,-8.41156 1.7339,-16.86047 3.143,-25.1994 2.0171,-11.93436 4.5352,-23.78409 6.8452,-35.66882 2.7718,-14.2623 5.512,-28.53086 8.3367,-42.78263 2.1636,-10.91534 4.4863,-21.79907 6.6485,-32.71463 2.5874,-13.06347 5.0788,-26.14596 7.611,-39.21505 -1.406,-0.45826 -2.7426,-1.03843 -4.1394,-1.32676 -13.0959,-2.70285 -26.1276,-5.83752 -39.3283,-7.875 -11.135,-1.71865 -22.4558,-2.68081 -33.72,-2.97143 -8.4744,-0.2186 -17.0647,0.66391 -25.4683,1.9433 -11.4677,1.74585 -23.0446,3.51696 -34.1518,6.73608 -21.7053,6.29074 -41.3416,16.72998 -58.7368,31.45453 -16.4053,13.8862 -30.1885,29.85239 -40.4639,48.66995 -16.148,29.57199 -24.2,61.15027 -23.7593,95.04608 0.2344,18.07383 3.2459,35.11347 12.1724,50.91629 6.7322,11.91779 15.9927,21.47211 28.001,27.98877 16.1301,8.75336 33.5058,9.51264 51.3208,7.12635 19.5693,-2.62128 35.5058,-11.9679 49.5798,-25.36438 11.418,-10.86823 20.1399,-23.62668 27.9263,-37.88196 -1.6634,19.70181 -3.2735,38.77258 -4.9126,58.18982 18.4961,0 36.4631,0 55.4043,-2.5e-4 M 1572.9664,569.48117 c -18.0749,6.46747 -33.7746,16.84272 -47.7046,29.8321 -11.9764,11.16772 -21.7412,24.21603 -29.6496,38.54641 -15.4051,27.91501 -23.6456,57.60151 -22.8142,89.78049 0.4455,17.24793 2.7495,33.79895 9.7672,49.74286 8.0968,18.39545 20.6983,32.39233 38.4436,41.59161 19.565,10.14264 40.5943,13.46546 62.4234,12.00537 11.4242,-0.76422 22.8714,-1.56353 34.2162,-3.04876 16.9868,-2.2237 33.1455,-7.45764 48.7477,-14.57117 3.2156,-1.46612 3.924,-3.31018 3.5415,-6.3006 -1.3418,-10.48883 -2.6404,-20.9833 -4.0268,-31.46615 -0.4593,-3.4722 -1.1349,-6.91587 -1.758,-10.65091 -1.6223,0.85302 -2.7438,1.4869 -3.9018,2.04513 -25.9424,12.50537 -53.2289,18.10498 -81.8313,13.86667 -20.5377,-3.04327 -35.4298,-14.22601 -41.8785,-34.75162 -2.5396,-8.08374 -3.5647,-16.4216 -2.5186,-24.57614 9.7708,-0.52096 19.0045,-1.42462 28.2375,-1.41815 18.0874,0.0127 35.9602,-1.76996 53.7099,-5.08615 21.1672,-3.95468 41.6077,-9.84497 59.1425,-23.04501 10.567,-7.95472 18.3584,-17.97501 22.9265,-30.60654 3.7104,-10.25998 3.9599,-20.73291 3.9566,-31.39676 -0.01,-16.49618 -5.8755,-30.83542 -16.6295,-42.8284 -14.8371,-16.54648 -34.3811,-23.75525 -56.162,-25.06155 -18.8997,-1.13352 -37.5612,0.41458 -56.2377,7.39727 m 555.9706,145.10264 c -0.4636,21.64657 0.3936,42.91305 9.7976,63.22525 8.3798,18.1004 20.6939,32.02716 38.257,41.15869 19.5595,10.16943 40.6081,13.4599 62.4406,12.01123 11.428,-0.75837 22.8802,-1.55286 34.2265,-3.05017 16.9861,-2.24158 33.1557,-7.456 48.7636,-14.57575 3.2593,-1.48675 3.8819,-3.37262 3.509,-6.32232 -1.3268,-10.49408 -2.6331,-20.99097 -4.0227,-31.47669 -0.4601,-3.47101 -1.1491,-6.91168 -1.6972,-10.15268 -6.4762,2.66193 -12.515,5.27155 -18.6481,7.63718 -11.1969,4.31888 -22.7105,7.39541 -34.7656,7.96716 -8.9116,0.42261 -17.9725,1.80164 -26.7069,0.69782 -8.5969,-1.08646 -17.52,-3.53443 -25.1323,-7.58155 -12.6598,-6.73074 -20.8831,-17.86355 -23.5498,-32.27127 -1.2516,-6.76236 -1.4879,-13.71255 -2.1568,-20.30472 10.97,-0.5556 20.5567,-0.84521 30.1103,-1.56961 15.3429,-1.16333 30.7153,-2.1922 45.9817,-4.04846 19.9263,-2.42291 39.0252,-7.86255 56.6367,-17.88949 13.479,-7.67408 24.2645,-18.09766 30.4831,-32.28852 6.4484,-14.71505 7.1383,-30.43091 4.4245,-46.15375 -3.7481,-21.71441 -16.0115,-37.24484 -35.2934,-47.64346 -22.1815,-11.96225 -46.0365,-11.64267 -69.7893,-8.59869 -15.4148,1.97543 -29.9917,7.92108 -43.6229,15.88125 -15.7238,9.18222 -29.3224,20.83298 -40.6885,34.88837 -11.3913,14.0867 -20.3504,29.7952 -26.8506,46.73138 -6.5103,16.96271 -10.8919,34.48261 -11.7065,53.7288 m 605.0024,-28.92621 c 0.2061,-0.61103 0.4859,-1.20774 0.6075,-1.83509 3.4726,-17.90606 6.9885,-35.80398 10.3728,-53.72677 3.8925,-20.61389 7.6665,-41.25019 11.5285,-62.07453 -19.8999,0 -39.8799,-0.0596 -59.8572,0.14472 -1.2287,0.0126 -3.1652,1.91833 -3.5166,3.26962 -1.0539,4.05542 -1.3735,8.29437 -2.1784,12.42304 -3.6116,18.52945 -7.4243,37.02053 -10.9151,55.57238 -4.4812,23.8154 -8.6711,47.6854 -13.0842,71.51383 -4.2639,23.0216 -8.5869,46.03274 -13.0093,69.02438 -2.924,15.20206 -6.0693,30.36154 -9.1706,45.8129 21.2483,0 42.1526,0 62.772,0 8.8518,-46.6026 17.6499,-92.92292 26.4506,-140.12448 m -562.101,315.1526 c 2.7877,17.0423 5.5754,34.0846 8.3343,50.9506 9.9039,0 19.1875,0 28.7511,0 5.5402,-28.8401 11.0422,-57.48263 16.1946,-84.3038 4.4515,26.97522 9.1783,55.6186 13.9232,84.3721 10.0883,0 19.6972,0 29.7135,0 8.2222,-46.4615 16.4288,-92.83548 24.7416,-139.80825 -8.3777,0 -15.6887,0.26776 -22.9682,-0.0967 -4.6336,-0.232 -5.4538,1.87964 -5.6845,5.84314 -0.3814,6.54766 -1.2925,13.06866 -2.0941,19.58685 -1.2199,9.9187 -2.6358,19.81403 -3.7852,29.74054 -1.1528,9.95495 -2.0074,19.94433 -3.1427,29.90147 -0.4684,4.10725 -1.3276,8.17005 -2.2219,13.52935 -1.7081,-13.15915 -2.9545,-24.91538 -4.8104,-36.5745 -3.0822,-19.36285 -6.5755,-38.66009 -9.842,-57.99402 -0.4405,-2.60644 -1.335,-4.12939 -4.4095,-3.9964 -5.1554,0.22315 -10.3392,0.27082 -15.489,-0.0102 -3.7038,-0.20215 -4.6846,1.3891 -5.2019,4.784 -1.5993,10.49463 -3.599,20.9284 -5.4572,31.38336 -2.1438,12.06268 -4.3484,24.11481 -6.4399,36.18652 -1.6083,9.28205 -3.0824,18.58744 -4.5178,27.28614 -3.7465,-32.78492 -7.5562,-66.12342 -11.3475,-99.30005 -10.2292,0 -19.5007,0 -28.9418,0 -0.08,1.05731 -0.3079,1.88971 -0.1772,2.66137 4.8031,28.35999 9.6394,56.7143 14.8725,85.85848 m 264.0986,5.741 c 0,-3.4394 0,-6.879 0,-10.32785 9.6342,0.3354 13.0869,2.34165 15.6743,9.19215 1.0308,2.7292 1.7627,5.608 2.3001,8.4805 2.3636,12.6334 4.6064,25.2894 6.8663,37.7897 10.499,0 20.2201,0 29.6573,0 -2.8658,-13.3116 -5.7987,-26.3308 -8.4427,-39.4084 -2.1063,-10.4187 -4.4901,-20.55208 -14.4447,-25.6114 4.7761,-5.07471 10.1461,-9.55707 13.949,-15.11212 5.4935,-8.02546 6.3368,-17.62397 5.3498,-27.08356 -1.7355,-16.63458 -9.6272,-27.58991 -26.8127,-31.27765 -9.0781,-1.94812 -18.6607,-1.93994 -28.0241,-2.04456 -7.9555,-0.0889 -15.9236,0.92707 -23.6622,1.43939 0,47.19184 0,93.229 0,139.1339 9.3444,0 18.2756,0 27.5896,0 0,-14.9232 0,-29.5503 0,-45.1701 m -117.9906,37.9801 c 8.465,7.5023 18.2888,10.0858 29.5782,9.6481 13.3414,-0.5173 23.2008,-6.517 30.3153,-17.1502 8.0246,-11.9932 10.9722,-25.9236 11.8626,-39.95025 0.7841,-12.35513 -0.01,-24.8663 -0.8733,-37.25454 -0.876,-12.51624 -4.4454,-24.27894 -11.826,-34.80066 -11.0633,-15.77186 -30.2289,-18.5127 -46.2752,-12.27893 -13.3409,5.18273 -19.9748,16.47546 -24.7975,29.04937 -7.4714,19.48023 -6.9044,39.6734 -5.0188,59.96411 1.4568,15.6768 6.2864,30.0183 17.0347,42.773 m 228.9891,-104.98814 c -4.1581,10.22619 -8.3161,20.45245 -12.4742,30.67865 -0.2783,-0.0612 -0.5568,-0.12238 -0.8351,-0.1836 0,-19.24927 0,-38.49859 0,-57.77142 -9.3335,0 -18.2634,0 -27.3909,0 0,46.61749 0,92.98881 0,139.38941 9.3515,0 18.4004,0 27.7017,0 0,-14.3423 -0.351,-28.3352 0.2032,-42.2922 0.1777,-4.4737 2.748,-8.8526 4.2234,-13.27476 7.4302,18.05716 13.5194,35.63076 19.7513,53.15366 0.3996,1.1238 1.8867,2.6273 2.8956,2.6486 9.5523,0.2017 19.1108,0.1201 29.0014,0.1201 -0.6547,-2.1257 -0.9808,-3.5555 -1.5252,-4.8967 -9.395,-23.1447 -18.8788,-46.254 -28.1334,-69.45456 -0.8731,-2.18872 -1.2852,-5.40649 -0.3154,-7.34985 7.0289,-14.08081 14.5112,-27.93439 21.7549,-41.90906 2.7281,-5.26282 5.2045,-10.65594 7.9189,-16.24335 -10.8919,0 -21.039,0 -31.052,0 -3.9264,8.97913 -7.7812,17.79426 -11.7242,27.38508 m 271.4766,89.45024 c 1.1799,6.4211 2.2576,12.8641 3.6213,19.2459 0.2908,1.3603 1.5879,3.5465 2.4795,3.5755 8.4087,0.2742 16.8301,0.163 25.407,0.163 0,-1.5155 0.1309,-2.3672 -0.019,-3.166 -3.0227,-16.0435 -6.0034,-32.0956 -9.1426,-48.1166 -5.5532,-28.34217 -11.1687,-56.67237 -16.929,-84.97303 -0.2851,-1.40069 -2.1633,-3.50226 -3.3471,-3.53442 -10.2989,-0.28003 -20.6087,-0.1615 -31.1643,-0.1615 -10.1521,46.67499 -20.25,93.10085 -30.388,139.71035 9.5413,0 18.6314,0 27.6831,0 1.8347,-9.7487 3.5269,-19.2354 5.5115,-28.6606 0.249,-1.1819 2.0095,-2.8703 3.1223,-2.9117 7.1228,-0.265 14.2605,-0.1352 21.7027,-0.1352 0.3974,3.0058 0.7397,5.5926 1.4631,8.9643 m -68.9905,-40.96099 c 2.4873,-3.25555 5.3423,-6.29632 7.3931,-9.80688 6.3347,-10.84381 6.1526,-22.99756 4.8335,-34.72724 -1.3982,-12.43377 -7.8455,-22.60553 -19.7984,-27.97253 -15.417,-6.92249 -31.7744,-4.44708 -47.8737,-3.96979 -3.6534,0.10834 -7.2818,1.06299 -10.7583,1.60272 0,46.5871 0,92.51071 0,138.51331 9.3339,0 18.3837,0 27.9899,0 0,-17.3959 0,-34.4491 0,-51.7487 14.3899,0.9971 26.9695,-2.24965 38.2139,-11.89089 m 258.5154,59.33599 c 0,-6.2851 0,-12.57 0,-19.4023 -12.1953,0 -23.9168,0 -35.6323,0 0,-12.9391 0,-25.3178 0,-38.0712 10.6286,0 20.8928,0 31.3137,0 0,-7.76471 0,-15.14429 0,-23.07861 -10.698,0 -21.0879,0 -31.4136,0 0,-10.48889 0,-20.41724 0,-30.89832 10.9773,0 21.6992,0 32.3372,0 0,-8.27997 0,-15.99573 0,-23.62207 -20.3201,0 -40.2439,0 -60.2908,0 0,46.63819 0,93.0008 0,139.725 19.7705,0 39.2285,10e-5 58.6865,-4e-4 0.8328,0 2.0044,0.3406 2.4314,-0.077 1.0401,-1.017 1.7344,-2.3871 2.5679,-4.575 M 2598.3243,935.16245 c -6.0151,19.17084 -2.3426,35.82428 13.3415,48.95422 6.0048,5.02692 12.6429,9.30487 19.0527,13.83908 7.374,5.21655 10.1672,13.77745 7.6767,21.27145 -2.5161,7.5706 -13.442,10.637 -19.7591,9.644 -6.8882,-1.083 -13.618,-3.1718 -20.7301,-4.8981 -0.2034,0.7385 -0.7214,2.1027 -0.9419,3.5133 -0.7578,4.8513 -0.7355,9.9472 -2.2808,14.5208 -1.8083,5.3524 0.2149,6.8615 4.8346,8.3844 9.0152,2.9719 18.2078,2.6959 27.4308,2.6147 10.647,-0.094 19.78,-4.2253 27.5962,-11.1717 8.583,-7.628 12.0764,-17.3351 12.5815,-28.8802 0.6268,-14.3221 -4.125,-25.9504 -14.8642,-34.9161 -7.0073,-5.85003 -14.8323,-10.72223 -22.3079,-16.00885 -4.8989,-3.46447 -7.4408,-10.39611 -6.4105,-15.29608 1.9124,-9.0957 13.0848,-13.18725 20.1879,-11.29999 4.6484,1.23517 9.218,2.76862 14.1279,4.26111 1.1926,-6.21466 2.0786,-12.53552 3.6936,-18.66424 1.1299,-4.28736 -0.1802,-7.03223 -4.1299,-7.65979 -7.2705,-1.15522 -14.654,-2.23938 -21.988,-2.22187 -16.9596,0.0405 -29.4629,7.69324 -37.111,24.01386 m 329.6127,-4.65222 c 0.9153,-4.30249 1.8123,-8.60889 2.7532,-12.90583 0.53,-2.42157 0.3347,-4.3565 -2.7288,-4.64349 -6.8823,-0.64459 -13.759,-1.76715 -20.647,-1.83923 -13.3857,-0.14008 -24.6936,5.80035 -33.6816,14.99603 -12.1382,12.41882 -17.439,28.38953 -18.511,45.41754 -0.6628,10.52789 -0.082,21.2254 0.9566,31.74655 1.3471,13.6486 6.4687,26.1241 15.9497,36.1919 14.768,15.6817 37.3581,15.9887 55.299,11.4729 0.9473,-0.2384 2.3677,-1.6981 2.2849,-2.4476 -0.8222,-7.4465 -1.9152,-14.8631 -2.9252,-22.2417 -0.615,0 -0.9632,-0.079 -1.2605,0.011 -20.0474,6.0542 -33.6119,-2.4083 -38.1558,-21.1057 -2.0769,-8.54525 -2.3911,-17.72565 -2.114,-26.57447 0.2475,-7.90369 1.695,-15.95313 3.8906,-23.56995 3.385,-11.74334 14.3245,-21.51642 28.5703,-18.98339 2.9673,0.52758 5.8992,1.25347 8.7979,1.87725 0.5566,-2.41858 1.031,-4.47912 1.5217,-7.40191 M 2740.1528,532.02076 c 12.3711,-1.33074 21.9155,-7.24129 28.8535,-17.56235 5.1392,-7.64498 5.4055,-16.23317 4.8694,-24.88472 -0.5766,-9.30074 -4.5273,-16.82112 -12.1347,-22.66428 -7.7647,-5.964 -16.5105,-6.43287 -25.5301,-5.83398 -9.8533,0.65425 -17.9128,5.27545 -24.2031,12.70529 -6.9978,8.26529 -8.6655,18.13864 -8.1465,28.71326 0.3826,7.79594 3.0864,14.48568 8.2468,20.11961 7.2854,7.95429 16.8623,9.77043 28.0447,9.40717 z"
   id="path3091" />
<path
   fill="#3696b2"
   opacity="1"
   stroke="none"
   d="m 521.52213,12.088449 c 0,10e-7 0.43481,0.01833 0.80981,0.397417 2.6145,0.756336 4.85413,1.133583 7.09369,1.510834 0.43402,0.03528 0.86804,0.07056 1.75116,0.396738 0.75,0.426973 1.05084,0.563041 1.35175,0.699114 0,3e-6 0.43133,0.01456 0.79437,0.386112 2.27637,0.753567 4.1897,1.135578 6.10297,1.517591 0.4298,0.03535 0.85961,0.0707 1.66021,0.537609 1.28076,1.09046 2.09772,2.048806 3.1142,2.364609 27.08734,8.415379 52.73614,20.019432 77.26416,34.242863 38.79163,22.494564 72.24451,51.292264 100.86383,85.663934 19.29474,23.17297 35.55792,48.46521 48.9765,75.4653 15.6496,31.48905 27.3346,64.418 35.1098,98.7779 5.75269,25.42233 9.65479,51.13671 10.6717,77.0776 1.23541,31.51615 0.52618,63.05347 -4.62122,94.375 -3.76947,22.93695 -8.69147,45.55512 -15.71008,67.69135 -9.68549,30.54724 -22.83344,59.57013 -39.04847,87.21716 -14.16687,24.15466 -30.6571,46.60339 -50.08093,66.7475 -10.25464,10.63482 -21.27832,20.5578 -32.29718,30.41955 -20.53088,18.37476 -43.62219,33.08344 -67.89386,45.94257 -20.46136,10.84039 -41.86889,19.50232 -63.86505,26.73193 -1.54425,0.50757 -2.82373,1.82068 -4.22626,2.75922 -0.42401,0.0643 -0.84796,0.12854 -1.79754,-0.0509 -3.74524,0.85431 -6.96503,1.95234 -10.18476,3.05036 0,0 -0.40173,0.15094 -0.85809,0.2262 -0.68542,0.3081 -0.91455,0.54089 -1.14374,0.77368 -0.42755,0.0644 -0.85504,0.1289 -1.81524,-0.0519 -3.42286,0.60614 -6.31305,1.45752 -9.20331,2.30889 0,0 0.0159,-0.0969 -0.32038,-0.10906 -1.45153,0.36108 -2.56671,0.73437 -3.68194,1.10766 0,0 0.0186,-0.0971 -0.33966,-0.10974 -1.78394,0.38117 -3.20972,0.77496 -4.6355,1.16876 -8.05426,1.62335 -16.05817,3.58588 -24.17435,4.79267 -13.06799,1.94317 -26.19653,3.50976 -39.32892,4.97107 -4.10656,0.45709 -8.30789,0.0626 -13.30145,0.061 -1.96496,0.33051 -3.09427,0.6579 -4.2236,0.98529 -2.04166,0 -4.08334,0 -6.56226,-0.46863 -0.43942,-12.00738 -0.44159,-23.54614 0.0176,-35.17602 8.22141,-0.50836 16.01612,-0.59815 23.73395,-1.41474 13.65698,-1.44507 27.40866,-2.59613 40.86844,-5.1828 30.85043,-5.92877 60.77322,-15.07574 89.54086,-27.88721 37.43378,-16.67071 71.31287,-38.74688 101.41681,-66.5169 19.4137,-17.90857 36.40247,-37.96484 51.11249,-59.91547 39.09283,-58.33514 58.55139,-123.19464 63.88251,-192.72088 1.7044,-22.22907 1.79705,-44.45795 -0.93799,-66.61765 -1.95691,-15.85464 -3.44275,-31.82413 -6.51276,-47.47284 -6.3045,-32.13687 -16.21527,-63.18124 -30.49493,-92.7802 C 735.5781,205.25905 717.27011,176.79778 694.09421,151.83238 681.38266,138.13942 667.12674,125.82083 653.05692,113.46346 635.80899,98.314775 616.28629,86.335943 596.11612,75.535978 575.17881,64.325239 553.25553,55.323636 530.57657,48.190874 503.14426,39.563119 475.08097,33.964029 446.4932,31.238458 432.82758,29.935571 419.0557,29.74724 405.33298,28.590463 c 10e-4,-7.765367 -0.38535,-15.094559 0.13019,-22.3597315 0.37912,-5.34280102 -1.61249,-6.55172602 -6.46192,-6.16415702 -10.84936,0.867085 -21.72387,1.45445602 -32.59732,1.95652102 -2.34924,0.10847 -4.73727,-0.622747 -7.10742,-0.967192 3.97034,-0.62936602 7.92896,-1.70853302 11.913,-1.81238202 20.22717,-0.52724808 40.52874,-1.98897208 60.67392,-0.83955508 21.2889,1.21467508 42.43588,4.9644351 63.63064,7.7161671 2.39246,0.310609 4.69287,1.329553 7.72809,2.3488413 2.19714,0.419745 3.70227,0.510683 5.20734,0.601621 0,1e-6 -0.0944,0.0305 0.11462,0.297356 3.12549,0.7514942 6.04199,1.2361382 8.95844,1.7207832 0,1e-6 0.43817,0.01809 0.87384,0.347523 1.33233,0.43702 2.229,0.544606 3.12573,0.652191 z"
   id="path3093" />
<path
   fill="#3291ad"
   opacity="1"
   stroke="none"
   d="m 417.32874,796.58078 c 0.002,11.5387 0.004,23.07746 0.006,35.08484 -8.35421,0.46863 -16.70846,0.46863 -25.53133,0.46863 -1.9733,-0.33325 -3.46219,-0.82074 -4.98496,-0.97601 -16.49069,-1.68171 -33.01782,-3.04956 -49.47427,-5.0127 -28.81082,-3.43683 -56.59192,-11.17053 -83.82858,-20.98144 -3.51526,-1.26624 -6.96588,-2.71173 -10.95001,-4.33716 -0.72635,-0.4942 -0.99726,-0.62812 -1.31632,-0.66461 0,0 -0.46994,-0.0812 -0.82971,-0.33966 -0.58444,-0.48877 -0.85663,-0.62177 -1.17639,-0.65741 -0.42917,-0.0315 -0.85837,-0.0629 -1.73426,-0.34803 -0.66934,-0.48492 -0.94012,-0.61877 -1.25903,-0.65527 0,0 -0.47012,-0.081 -0.82907,-0.33948 -0.58197,-0.48974 -0.85309,-0.62359 -1.1723,-0.65997 0,0 -0.46949,-0.0808 -0.82849,-0.33929 -0.58243,-0.48969 -0.85395,-0.62342 -1.17347,-0.65961 -1.75677,-0.63837 -3.51355,-1.27674 -5.7272,-2.25763 -0.67946,-0.57355 -0.95012,-0.70746 -1.26889,-0.74414 0,0 -0.47035,-0.0814 -0.82919,-0.33985 -0.58139,-0.48974 -0.8521,-0.62365 -1.17098,-0.66009 0,0 -0.4559,-0.0812 -0.74623,-0.48102 -8.93199,-5.29034 -17.59466,-10.14404 -26.21132,-15.07819 C 171.25023,762.26224 148.43845,744.85642 127.77339,724.82505 115.87049,713.28708 104.87056,700.7645 94.022975,688.20267 75.611345,666.88138 60.824354,643.06717 47.881338,618.12119 35.60378,594.45786 26.029241,569.6948 18.434461,544.13565 8.2952313,510.01352 2.1108316,475.12036 0.60634159,439.66095 c -1.23729,-29.16198 -0.82201,-58.39917 3.52556001,-87.49341 3.5071997,-23.47039 8.0529394,-46.65008 14.8923794,-69.34188 12.202298,-40.48453 29.48652,-78.6713 53.854867,-113.32331 10.373407,-14.75107 21.396987,-29.1996 33.487612,-42.55186 17.8525,-19.71536 37.61698,-37.483245 59.43155,-52.945327 23.58002,-16.713402 48.39044,-31.278241 75.28247,-41.677079 20.68946,-8.000368 42.19724,-13.881834 63.31967,-20.771256 1.40989,-0.459852 2.63816,-1.476439 3.9509,-2.2340862 0.43289,-0.05707 0.86578,-0.114138 1.84088,0.06079 2.74784,-0.532309 4.95349,-1.296613 7.15912,-2.0609173 0.43289,-0.05691 0.86576,-0.113828 1.80506,0.0426 1.4027,-0.205296 2.29904,-0.623925 3.19537,-1.042557 0.73721,-0.0591 1.47446,-0.118199 2.73007,0.01175 1.10226,-0.211514 1.6861,-0.61208 2.26996,-1.012646 0.73718,-0.058756 1.47436,-0.117513 2.7301,0.013087 1.10233,-0.211745 1.68607,-0.612845 2.26984,-1.013948 1.05313,-0.059169 2.10623,-0.118338 3.70358,0.011657 1.1283,-0.21073 1.71237,-0.610622 2.29648,-1.010514 1.37436,-0.06131 2.74875,-0.122622 4.68448,0.00541 1.14605,-0.20906 1.73077,-0.607459 2.31549,-1.005863 2.68314,-0.064797 5.36627,-0.129589 8.67627,0.023172 1.52185,-0.197862 2.41684,-0.613277 3.31183,-1.028698 0.43429,-0.05878 0.86856,-0.117553 1.62976,-0.218241 2.69702,0.302531 5.08505,1.033748 7.43429,0.925278 10.87345,-0.502065 21.74796,-1.08943602 32.59732,-1.95652102 4.84943,-0.387569 6.84104,0.821356 6.46192,6.16415702 -0.51554,7.2651725 -0.12891,14.5943645 -0.58655,22.4392105 -11.20111,1.17392 -21.97461,1.492787 -32.68146,2.511555 -14.61151,1.390289 -29.35211,2.40535 -43.70746,5.247578 -16.4913,3.265125 -32.76586,7.876247 -48.87625,12.755684 -24.73303,7.491035 -48.15646,18.125526 -70.78982,30.659996 -23.7213,13.136963 -45.67198,28.729579 -65.49071,47.088849 -12.14896,11.25431 -23.34975,23.61776 -34.24181,36.12292 -15.680175,18.00243 -28.865465,37.90279 -39.587037,59.18456 -8.201645,16.27984 -15.614243,33.07286 -21.844978,50.19539 -5.520829,15.17163 -9.555512,30.97192 -13.085797,46.7543 -3.265163,14.59707 -5.40649,29.48614 -7.27718,44.34302 -1.829887,14.53274 -2.966457,29.17062 -3.855937,43.79586 -0.3988,6.55744 0.4169,13.20642 0.91098,19.79667 0.93585,12.48284 1.37585,25.05249 3.227897,37.40521 2.652123,17.68915 5.598206,35.4068 9.801892,52.77752 14.060913,58.1037 40.455005,109.94471 80.26201,154.80457 15.23215,17.16559 31.79314,32.93097 50.10793,46.66455 21.54918,16.159 44.53973,30.02716 69.12431,41.29059 25.94141,11.88489 52.81363,20.82184 80.608,26.94678 13.14988,2.8977 26.48926,5.03717 39.82373,6.95855 8.44223,1.21643 17.0239,1.65241 25.56064,1.97998 11.47882,0.44037 22.97464,0.4386 34.46317,0.62671 z"
   id="path3095" />
<path
   fill="#3291ad"
   opacity="1"
   stroke="none"
   d="m 424.73474,832.13425 c 0.72934,-0.32739 1.85865,-0.65478 3.36612,-0.96606 0.37815,0.0161 0.29145,0.48889 0.26267,0.72747 -1.09546,0.23859 -2.16211,0.23859 -3.62879,0.23859 z"
   id="path3097" />
















<path
   fill="#3c9eb9"
   opacity="1"
   stroke="none"
   d="m 307.95017,9.2474578 c -0.91156,0.8329312 -2.13983,1.8495182 -3.54972,2.3093702 -21.12243,6.889422 -42.63021,12.770888 -63.31967,20.771256 -26.89203,10.398838 -51.70245,24.963677 -75.28247,41.677079 -21.81457,15.462082 -41.57905,33.229967 -59.43155,52.945327 -12.090625,13.35226 -23.114205,27.80079 -33.487612,42.55186 -24.368347,34.65201 -41.652569,72.83878 -53.854867,113.32331 -6.83944,22.6918 -11.3851797,45.87149 -14.8923794,69.34188 -4.34757001,29.09424 -4.76285001,58.33143 -3.52556001,87.49341 1.50449001,35.45941 7.68888971,70.35257 17.82811941,104.4747 7.59478,25.55915 17.169319,50.32221 29.446877,73.98554 12.943016,24.94598 27.730007,48.76019 46.141637,70.08148 10.847585,12.56183 21.847515,25.08441 33.750415,36.62238 20.66506,20.03137 43.47684,37.43719 68.51935,51.77764 8.61666,4.93415 17.27933,9.78785 25.99021,15.00946 -5.54552,-2.26019 -11.43145,-4.39398 -16.72271,-7.53082 -14.19821,-8.41736 -28.53238,-16.70208 -42.06861,-26.10992 -11.69716,-8.1297 -22.55141,-17.51868 -33.43595,-26.75446 -7.07124,-6.00012 -13.78654,-12.47619 -20.21178,-19.17053 C 91.028185,692.44284 74.048395,671.3422 60.347913,647.82199 51.859487,633.24948 43.542585,618.52182 36.172941,603.36582 25.518091,581.45352 17.158491,558.57291 11.398201,534.86197 7.3946613,518.3823 3.6537116,501.81558 0.56831159,485.14475 -1.2795784,475.16031 -2.0475484,464.92173 -2.5785184,454.75962 c -0.97647,-18.68839 -2.10749,-37.41361 -1.86179,-56.10627 0.1874,-14.25802 2.43218,-28.48669 3.70678999,-42.73333 1.88630001,-21.08377 6.00807001,-41.79071 12.17712941,-61.96299 5.90883,-19.32138 12.38249,-38.54156 19.935655,-57.27078 9.883046,-24.50656 22.585949,-47.69249 37.987683,-69.21753 8.672146,-12.11998 17.797226,-23.99202 27.597257,-35.2077 10.094664,-11.55288 20.710444,-22.77663 32.075684,-33.064585 18.73402,-16.958278 39.21174,-31.680324 61.07493,-44.495189 27.53676,-16.14037 56.71441,-28.364712 87.19356,-37.564888 9.97287,-3.010323 20.15445,-5.32913 30.64179,-7.8889002 z"
   id="path3131" />
<path
   fill="#237d9d"
   opacity="1"
   stroke="none"
   d="m 539.72867,813.05399 c 1.01709,-0.98218 2.29657,-2.29529 3.84082,-2.80286 21.99616,-7.22961 43.40369,-15.89154 63.86505,-26.73193 24.27167,-12.85913 47.36298,-27.56781 67.89386,-45.94257 11.01886,-9.86175 22.04254,-19.78473 32.29718,-30.41955 19.42383,-20.14411 35.91406,-42.59284 50.08093,-66.7475 16.21503,-27.64703 29.36298,-56.66992 39.04847,-87.21716 7.01861,-22.13623 11.94061,-44.7544 15.71008,-67.69135 5.1474,-31.32153 5.85663,-62.85885 4.62122,-94.375 -1.01691,-25.94089 -4.91901,-51.65527 -10.6717,-77.0776 -7.7752,-34.3599 -19.4602,-67.28885 -35.1098,-98.7779 -13.41858,-27.00009 -29.68176,-52.29233 -48.9765,-75.4653 C 693.70896,105.4336 660.25608,76.6359 621.46445,54.141336 596.93643,39.917905 571.28763,28.313852 544.20029,19.898473 c -1.01648,-0.315803 -1.83344,-1.274149 -2.80011,-2.286629 14.41278,4.875115 29.09094,9.597136 43.3034,15.450009 21.89875,9.01815 42.77765,20.201996 62.02369,34.020862 14.19513,10.192208 28.04791,20.971955 41.21454,32.45181 11.19793,9.763305 21.76947,20.396435 31.60101,31.541975 16.97485,19.24346 31.82178,40.10842 44.62457,62.42692 16.18347,28.21199 29.44275,57.70427 38.09033,89.03638 5.52308,20.01172 10.33033,40.31412 13.81806,60.76593 2.97076,17.42013 3.78668,35.225 5.18603,52.88894 0.75745,9.56192 1.39685,19.21735 0.92676,28.77338 -0.78277,15.91193 -2.30762,31.79672 -3.86389,47.65921 -3.38831,34.53534 -11.98602,67.86368 -23.94336,100.36222 -7.82227,21.26 -16.71967,42.06964 -28.75726,61.32012 -9.404,15.039 -19.19135,29.85749 -29.3346,44.40705 -5.323,7.63531 -11.55194,14.68377 -17.77899,21.63232 -7.07983,7.90021 -14.31183,15.71228 -22.00922,23.00134 -20.73224,19.63239 -43.40332,36.72327 -68.03412,51.25782 -27.89526,16.46093 -57.57012,28.71802 -88.73846,38.44586 z"
   id="path3133" />
<path
   fill="#237d9d"
   opacity="1"
   stroke="none"
   d="m 527.75724,816.06156 c 2.82342,-1.14978 6.04321,-2.24781 9.46716,-3.06903 -2.88745,1.22473 -5.97919,2.17273 -9.46716,3.06903 z"
   id="path3135" />
<path
   fill="#237d9d"
   opacity="1"
   stroke="none"
   d="m 514.75388,819.21121 c 2.47693,-0.79595 5.36712,-1.64733 8.46606,-2.22045 -2.5451,0.90716 -5.29895,1.53613 -8.46606,2.22045 z"
   id="path3137" />
<path
   fill="#3c9eb9"
   opacity="1"
   stroke="none"
   d="m 316.9683,7.2473405 c -1.82258,0.8395773 -4.02823,1.6038813 -6.45166,2.0860363 1.87765,-0.908536 3.97314,-1.5349233 6.45166,-2.0860363 z"
   id="path3139" />
<path
   fill="#237d9d"
   opacity="1"
   stroke="none"
   d="m 517.2952,10.758908 c -2.68909,-0.154818 -5.60559,-0.639462 -8.74036,-1.4396852 2.69214,0.159567 5.60254,0.634713 8.74036,1.4396852 z"
   id="path3141" />
<path
   fill="#237d9d"
   opacity="1"
   stroke="none"
   d="m 529.21231,13.681602 c -2.02624,-0.06215 -4.26587,-0.4394 -6.67651,-1.119684 2.04028,0.06617 4.25177,0.435383 6.67651,1.119684 z"
   id="path3143" />
<path
   fill="#237d9d"
   opacity="1"
   stroke="none"
   d="m 539.22367,16.687852 c -1.71106,-0.07361 -3.62439,-0.455621 -5.69861,-1.13355 1.72485,0.07777 3.61059,0.451461 5.69861,1.13355 z"
   id="path3145" />
<path
   fill="#3c9eb9"
   opacity="1"
   stroke="none"
   d="m 322.01139,6.2466365 c -0.55594,0.494647 -1.45228,0.913276 -2.53064,1.068601 0.60873,-0.557076 1.39947,-0.850848 2.53064,-1.068601 z"
   id="path3147" />
<path
   fill="#3696b2"
   opacity="1"
   stroke="none"
   d="m 357.00064,1.2442705 c -0.55575,0.487209 -1.45074,0.902624 -2.52777,1.053065 0.60816,-0.551602 1.39835,-0.83823 2.52777,-1.053065 z"
   id="path3149" />
<path
   fill="#237d9d"
   opacity="1"
   stroke="none"
   d="m 505.74979,821.24369 c 1.03906,-0.31324 2.46484,-0.70703 4.29571,-1.07276 -1.03296,0.34949 -2.471,0.67084 -4.29571,1.07276 z"
   id="path3151" />
<path
   fill="#237d9d"
   opacity="1"
   stroke="none"
   d="m 508.24442,8.7393468 c -1.29999,0.240311 -2.80512,0.149373 -4.57971,-0.196332 1.2785,-0.214818 2.82653,-0.174869 4.57971,0.196332 z"
   id="path3153" />
<path
   fill="#237d9d"
   opacity="1"
   stroke="none"
   d="m 510.71341,820.2103 c 0.74005,-0.31836 1.85523,-0.69165 3.35364,-1.03833 -0.73737,0.34552 -1.85785,0.66449 -3.35364,1.03833 z"
   id="path3155" />
<path
   fill="#3c9eb9"
   opacity="1"
   stroke="none"
   d="m 345.04856,2.2503475 c -0.2815,0.469641 -0.86622,0.86804 -1.60187,1.02761 0.33227,-0.525503 0.81549,-0.812178 1.60187,-1.02761 z"
   id="path3157" />
<path
   fill="#3c9eb9"
   opacity="1"
   stroke="none"
   d="m 338.04819,3.2506175 c -0.28049,0.471315 -0.86456,0.871207 -1.59967,1.032584 0.33136,-0.527013 0.81369,-0.81551 1.59967,-1.032584 z"
   id="path3159" />
<path
   fill="#3c9eb9"
   opacity="1"
   stroke="none"
   d="m 332.04789,4.2497925 c -0.27991,0.472208 -0.86365,0.873308 -1.5987,1.035892 0.33078,-0.52801 0.81281,-0.817505 1.5987,-1.035892 z"
   id="path3161" />
<path
   fill="#3c9eb9"
   opacity="1"
   stroke="none"
   d="m 327.04807,5.2505505 c -0.28012,0.471774 -0.86396,0.87234 -1.59894,1.034542 0.33096,-0.527493 0.81308,-0.816622 1.59894,-1.034542 z"
   id="path3163" />
<path
   fill="#237d9d"
   opacity="1"
   stroke="none"
   d="m 521.33328,11.787067 c -0.70788,0.193797 -1.60455,0.08621 -2.7312,-0.274765 0.69416,-0.177799 1.61829,-0.102208 2.7312,0.274765 z"
   id="path3165" />
<path
   fill="#3c9eb9"
   opacity="1"
   stroke="none"
   d="m 223.33628,792.40561 c 0.23289,-0.20727 0.5036,-0.0734 0.85644,0.3476 -0.16995,0.0919 -0.47021,-0.006 -0.85644,-0.3476 z"
   id="path3167" />
<path
   fill="#3c9eb9"
   opacity="1"
   stroke="none"
   d="m 225.33637,793.40561 c 0.23286,-0.20709 0.50352,-0.0732 0.85637,0.34766 -0.16999,0.0918 -0.47023,-0.006 -0.85637,-0.34766 z"
   id="path3169" />
<path
   fill="#3c9eb9"
   opacity="1"
   stroke="none"
   d="m 232.33377,796.40708 c 0.2323,-0.20728 0.50382,-0.0735 0.85816,0.34765 -0.16974,0.0919 -0.47037,-0.006 -0.85816,-0.34765 z"
   id="path3171" />
<path
   fill="#3c9eb9"
   opacity="1"
   stroke="none"
   d="m 234.33493,797.40622 c 0.23279,-0.20733 0.50391,-0.0735 0.85736,0.34772 -0.16998,0.0919 -0.47045,-0.006 -0.85736,-0.34772 z"
   id="path3173" />
<path
   fill="#3c9eb9"
   opacity="1"
   stroke="none"
   d="m 236.33597,798.40561 c 0.23282,-0.20715 0.5036,-0.0733 0.85657,0.34766 -0.16995,0.0918 -0.47022,-0.006 -0.85657,-0.34766 z"
   id="path3175" />
<path
   fill="#3c9eb9"
   opacity="1"
   stroke="none"
   d="m 239.33209,799.40793 c 0.23084,-0.20703 0.50303,-0.074 0.85917,0.34601 -0.16913,0.0921 -0.46967,-0.006 -0.85917,-0.34601 z"
   id="path3177" />
<path
   fill="#3c9eb9"
   opacity="1"
   stroke="none"
   d="m 241.33548,800.40604 c 0.23285,-0.20722 0.50376,-0.0733 0.85694,0.34778 -0.16999,0.0919 -0.47034,-0.006 -0.85694,-0.34778 z"
   id="path3179" />
<path
   fill="#237d9d"
   opacity="1"
   stroke="none"
   d="m 525.6265,817.0112 c -0.0382,-0.23431 0.19092,-0.4671 0.66186,-0.76867 0.0297,0.21093 -0.18243,0.49054 -0.66186,0.76867 z"
   id="path3181" />
<path
   fill="#237d9d"
   opacity="1"
   stroke="none"
   d="m 532.40726,14.855297 c -0.17963,0.101182 -0.48047,-0.03489 -0.91321,-0.3839 0.17609,-0.09308 0.48401,0.02679 0.91321,0.3839 z"
   id="path3183" />
<path
   fill="#f5fafb"
   opacity="1"
   stroke="none"
   d="m 417.79007,796.4896 c -11.94986,-0.0969 -23.44568,-0.0952 -34.9245,-0.53553 -8.53674,-0.32757 -17.11841,-0.76355 -25.56064,-1.97998 -13.33447,-1.92138 -26.67385,-4.06085 -39.82373,-6.95855 -27.79437,-6.12494 -54.66659,-15.06189 -80.608,-26.94678 C 212.28862,748.80533 189.29807,734.93717 167.74889,718.77817 149.4341,705.04459 132.87311,689.27921 117.64096,672.11362 77.833955,627.25376 51.439863,575.41275 37.37895,517.30905 c -4.203686,-17.37072 -7.149769,-35.08837 -9.801892,-52.77752 -1.852047,-12.35272 -2.292047,-24.92237 -3.227897,-37.40521 -0.49408,-6.59025 -1.30978,-13.23923 -0.91098,-19.79667 0.88948,-14.62524 2.02605,-29.26312 3.855937,-43.79586 1.87069,-14.85688 4.012017,-29.74595 7.27718,-44.34302 3.530285,-15.78238 7.564968,-31.58267 13.085797,-46.7543 6.230735,-17.12253 13.643333,-33.91555 21.844978,-50.19539 10.721572,-21.28177 23.906862,-41.18213 39.587037,-59.18456 10.89206,-12.50516 22.09285,-24.86861 34.24181,-36.12292 19.81873,-18.35927 41.76941,-33.951882 65.49071,-47.088845 22.63336,-12.53447 46.05679,-23.168961 70.78982,-30.659996 16.11039,-4.879437 32.38495,-9.490559 48.87625,-12.755684 14.35535,-2.842228 29.09595,-3.857289 43.70746,-5.247578 10.70685,-1.018768 21.48035,-1.337635 32.68045,-2.047924 14.18009,0.613667 27.95197,0.801998 41.61759,2.104885 28.58777,2.725571 56.65106,8.324661 84.08337,16.952416 22.67896,7.132762 44.60224,16.134365 65.53955,27.345104 20.17017,10.799965 39.69287,22.778797 56.9408,37.927482 14.06982,12.35737 28.32574,24.67596 41.03729,38.36892 23.1759,24.9654 41.48389,53.42667 56.30524,84.14853 14.27966,29.59896 24.19043,60.64333 30.49493,92.7802 3.07001,15.64871 4.55585,31.6182 6.51276,47.47284 2.73504,22.1597 2.64239,44.38858 0.93799,66.61765 -5.33112,69.52624 -24.78968,134.38574 -63.88251,192.72088 -14.71002,21.95063 -31.69879,42.0069 -51.11249,59.91547 -30.10394,27.77002 -63.98303,49.84619 -101.41681,66.5169 -28.76764,12.81147 -58.69043,21.95844 -89.54086,27.88721 -13.45978,2.58667 -27.21146,3.73773 -40.86844,5.1828 -7.71783,0.81659 -15.51254,0.90638 -23.73395,1.41474 m 0.45954,-3.4065 c 4.93792,-0.2857 9.9038,-0.33087 14.80862,-0.90124 16.21536,-1.88587 32.50659,-3.37805 48.59161,-6.07666 43.44651,-7.28937 84.02359,-22.763 122.39536,-44.25037 23.91717,-13.39319 45.84631,-29.54767 65.96869,-48.07123 32.0885,-29.53894 57.35559,-64.20886 76.42157,-103.42749 25.52038,-52.49524 37.17083,-108.3395 39.5177,-166.27646 0.58838,-14.52584 -0.23584,-29.22027 -1.76758,-43.6936 -2.09247,-19.77078 -4.52643,-39.60092 -8.52637,-59.0535 C 768.34946,285.7833 755.86966,251.97478 738.34464,220.0585 725.20157,196.12247 709.78269,173.77695 691.26425,153.80228 675.97159,137.30704 659.59464,121.91007 641.37247,108.41844 617.60257,90.819288 592.21634,76.18913 565.12485,64.655775 532.80094,50.894861 499.14023,41.678674 464.22235,36.971898 c -19.24917,-2.594707 -38.47729,-4.31261 -58.82339,-3.783412 -15.21558,0.683689 -30.52008,0.562805 -45.62665,2.232696 -24.95911,2.759003 -49.5466,7.81868 -73.59518,15.252609 -34.39051,10.630825 -67.01314,25.220997 -96.87331,45.318425 -14.45259,9.727344 -27.9319,20.974284 -41.37721,32.106494 -17.80503,14.74191 -32.88425,32.13024 -46.68231,50.62636 -21.182505,28.39487 -37.725183,59.30269 -49.543619,92.68539 -9.111305,25.73603 -16.099739,52.03696 -19.412979,79.20102 -1.794487,14.71238 -4.011448,29.42624 -4.719997,44.20264 -0.666264,13.89459 -0.249142,27.92438 0.865875,41.80029 1.423199,17.71118 3.133118,35.49295 6.36591,52.93924 3.353027,18.0951 7.944717,36.04776 13.314987,53.66013 6.904739,22.6449 16.563957,44.23474 28.134048,64.97009 12.671,22.70831 27.508295,43.89826 44.970945,63.06854 14.6244,16.05451 30.40156,30.98536 47.79089,44.20832 33.19724,25.24334 69.66433,44.25525 109.09392,57.38794 25.70874,8.56268 52.13483,14.37304 79.17355,17.48156 19.99613,2.29889 39.96973,3.19092 60.97178,2.75287 z"
   id="path3185" />








<path
   fill="#3291ad"
   opacity="1"
   stroke="none"
   d="m 417.55088,794.07483 c -20.07963,0.57092 -40.05323,-0.3211 -60.04935,-2.61999 -27.03873,-3.10852 -53.46481,-8.91889 -79.17356,-17.48157 C 238.89838,760.84058 202.43129,741.82868 169.23406,716.58533 151.84473,703.36237 136.06757,688.43152 121.44316,672.37702 103.98052,653.20673 89.143215,632.01679 76.472215,609.30847 64.902128,588.57312 55.24291,566.98328 48.338171,544.33838 c -5.37027,-17.61236 -9.96196,-35.56503 -13.314987,-53.66012 -3.232792,-17.44629 -4.942711,-35.22806 -6.36591,-52.93924 -1.115017,-13.87592 -1.532143,-27.9057 -0.865875,-41.8003 0.708549,-14.77639 2.92551,-29.49026 4.719997,-44.20263 3.31324,-27.16407 10.301674,-53.465 19.412979,-79.20102 11.818436,-33.38271 28.36112,-64.29053 49.543615,-92.6854 13.79807,-18.49612 28.87729,-35.88444 46.68231,-50.62636 13.44531,-11.13221 26.92462,-22.37915 41.37721,-32.106488 29.86017,-20.097431 62.48281,-34.687603 96.87331,-45.318428 24.04859,-7.433929 48.63608,-12.493606 73.59519,-15.252609 15.10656,-1.669891 30.41107,-1.549007 46.0931,-1.711658 0.80072,23.300418 1.13361,46.079826 1.46964,68.859183 0.33111,22.44642 0.67102,44.89271 0.99698,67.33919 0.34045,23.44582 0.66452,46.89188 1.00378,70.33771 0.32724,22.61307 0.68079,45.22577 0.99369,67.83902 0.35208,25.4447 0.64529,50.89023 1.01358,76.33469 0.2911,20.11477 0.67987,40.22815 0.98379,60.34274 0.35925,23.77869 0.66614,47.5582 1.01016,71.3371 0.32236,22.27997 0.69648,44.5592 0.98822,66.83954 0.36811,28.10986 0.6315,56.22119 1.02576,84.33068 0.24475,17.44996 0.69797,34.89698 0.96869,52.34668 0.37921,24.44403 0.67563,48.88941 1.00748,73.33417 M 142.66544,522.81458 c 5.61598,13.43835 19.05095,22.51318 33.53146,22.42651 48.39569,-0.28955 96.79083,-0.66711 145.18653,-0.96088 15.47839,-0.0939 30.96228,0.19288 46.43512,-0.11907 10.56091,-0.2129 19.54501,-4.10981 26.32449,-12.74408 7.96496,-10.14411 8.73779,-21.63709 6.63876,-33.54303 -1.49795,-8.49649 -5.23498,-15.99494 -13.47494,-21.25684 -3.36801,-8.3649 -8.44504,-15.27469 -16.11905,-20.05063 12.95602,-1.94046 22.39856,-8.43707 27.63122,-20.77154 3.38205,-7.97229 3.83262,-16.40924 2.28373,-24.46802 -1.60901,-8.37186 -4.77173,-16.69296 -13.60236,-21.79724 -5.2442,-13.19101 -14.34775,-21.63031 -28.27689,-23.97922 7.03794,-1.58966 14.92386,-1.67206 20.94901,-5.06189 15.77603,-8.87582 19.33444,-24.60199 16.78403,-40.82715 -0.88425,-5.62533 -2.33899,-11.80682 -8.13126,-16.25592 -5.33179,-20.39627 -16.63095,-29.23761 -37.63181,-29.12927 -42.60836,0.21979 -85.21615,0.55612 -127.82432,0.82571 -19.6445,0.12427 -39.28952,0.17282 -58.93387,0.31446 -17.0063,0.12258 -31.69943,11.29675 -35.78706,27.28976 -3.43781,13.45047 -0.0945,25.31195 8.82499,36.53418 2.63413,12.14761 10.43784,19.68738 21.56791,24.323 2.5529,1.06323 4.994,2.39486 6.59478,3.67709 -23.71472,0.13809 -39.96301,17.58893 -38.0467,41.07059 0.93838,11.49872 7.23069,20.0004 15.94371,27.72897 1.96096,3.19412 3.56009,6.70008 5.97532,9.50272 2.95818,3.43268 6.59963,6.27652 9.16204,9.58105 -17.31975,2.59293 -30.33727,17.0329 -31.23241,34.44434 -0.69861,13.58844 4.96648,24.10425 15.22757,33.2464 z"
   id="path3203" />
<path
   fill="#3696b2"
   opacity="1"
   stroke="none"
   d="m 418.57111,793.12522 c -0.79306,-24.51123 -1.08948,-48.95661 -1.46869,-73.40064 -0.27072,-17.44971 -0.72394,-34.89673 -0.96869,-52.34668 -0.39426,-28.10949 -0.65765,-56.22082 -1.02576,-84.33069 -0.29175,-22.28033 -0.66586,-44.55957 -0.98822,-66.83953 -0.34402,-23.7789 -0.65091,-47.55842 -1.01016,-71.3371 -0.30392,-20.1146 -0.69269,-40.22797 -0.9838,-60.34274 -0.36828,-25.44446 -0.66149,-50.88999 -1.01358,-76.33469 -0.31289,-22.61325 -0.66644,-45.22595 -0.99368,-67.83902 -0.33926,-23.44583 -0.66333,-46.89189 -1.00378,-70.33771 -0.32596,-22.44649 -0.66587,-44.89277 -0.99698,-67.33919 -0.33603,-22.779359 -0.66892,-45.558767 -1.00553,-68.794275 19.41553,-1.115146 38.64365,0.602757 57.89283,3.197464 34.91788,4.706776 68.57858,13.922963 100.90249,27.683877 27.0915,11.533355 52.47773,26.163513 76.24762,43.762664 18.22217,13.49163 34.59912,28.8886 49.89179,45.38384 18.51843,19.97467 33.93732,42.32019 47.08038,66.25623 17.52503,31.91627 30.00482,65.72479 37.31458,101.27404 3.99994,19.45258 6.4339,39.28272 8.52636,59.0535 1.53174,14.47333 2.35596,29.16776 1.76758,43.6936 -2.34686,57.93696 -13.99731,113.78122 -39.5177,166.27646 -19.06598,39.21863 -44.33307,73.88855 -76.42157,103.42749 -20.12237,18.52356 -42.05151,34.67804 -65.96869,48.07123 -38.37176,21.48737 -78.94885,36.961 -122.39535,44.25037 -16.08502,2.69861 -32.37625,4.19079 -48.59162,6.07666 -4.90481,0.57037 -9.87069,0.61554 -15.26983,0.83484 m 89.06137,-478.88694 c 0,0 -0.46295,-0.005 -0.59772,-0.88046 -0.20044,-15.95773 -7.21802,-27.11252 -20.59357,-32.1091 -15.01425,-5.6087 -28.70181,-2.96536 -41.76632,7.14154 -15.0842,4.29474 -24.5741,15.42313 -24.52173,29.45035 0.24899,66.7251 0.60049,133.44992 0.98608,200.17444 0.0389,6.7215 2.71283,12.65985 7.00965,17.7088 11.59481,13.62433 32.34277,15.88275 47.62396,6.6236 1.0152,-0.61512 1.62906,-1.89264 3.17462,-3.05799 14.71689,-3.43603 25.37412,-11.13873 28.88016,-26.40027 0.10712,1.31037 0.159,2.62793 0.3302,3.92987 1.34533,10.23157 5.01074,19.22211 14.18792,24.92414 9.20984,5.72235 19.33423,8.00574 29.82825,5.09039 4.97241,-1.38141 9.36139,-4.86304 14.7442,-7.62353 1.11097,-0.33558 2.21479,-0.69715 3.33387,-1.00281 15.38873,-4.20252 24.09094,-14.92816 25.56054,-30.25223 0.0973,3.3024 0.18775,6.60507 0.2934,9.9072 0.21442,6.70227 2.65051,12.64508 6.88678,17.6792 11.60962,13.79632 32.3927,16.11053 47.79687,6.79589 1.0105,-0.61108 1.61878,-1.88732 3.15955,-3.04779 1.91126,-0.56323 3.83679,-1.08239 5.73151,-1.69665 14.86554,-4.8194 23.37365,-16.73602 23.26855,-32.34998 -0.2442,-36.28796 -0.45843,-72.57614 -0.63831,-108.86447 -0.14025,-28.3056 -0.1828,-56.61163 -0.32281,-84.91724 -0.0737,-14.90087 -8.61951,-26.66412 -22.8335,-31.06356 -14.31555,-4.43085 -27.24664,-1.51456 -39.48199,7.9942 -12.04687,3.22586 -20.2804,10.38717 -23.59052,22.71457 -0.20556,0.76538 -1.08679,1.3493 -1.74835,1.1322 -0.35675,-16.44177 -8.33429,-27.55627 -23.37793,-32.01379 -13.97088,-4.13968 -26.58288,-1.25589 -38.5188,8.05117 -13.24334,3.17426 -22.10461,12.62033 -24.80456,25.96231 z"
   id="path3205" />
<path
   fill="#feffff"
   opacity="1"
   stroke="none"
   d="m 137.22905,337.34757 c -8.899,-10.45398 -12.24232,-22.31546 -8.80452,-35.76593 4.08763,-15.99301 18.78076,-27.16718 35.78707,-27.28977 19.64434,-0.14163 39.28936,-0.19018 58.93386,-0.31445 42.60817,-0.26959 85.21596,-0.60593 127.82433,-0.82571 21.00085,-0.10834 32.30002,8.733 37.68765,29.89318 3.26715,22.31189 -9.33001,44.73816 -37.2684,44.27594 -31.91791,-0.52807 -63.85937,0.45939 -95.79138,0.66309 -28.28545,0.18048 -56.57791,-0.12268 -84.85535,0.41544 -12.72082,0.24206 -24.01221,-2.28833 -33.51326,-11.05179 z"
   id="path3207" />
<path
   fill="#feffff"
   opacity="1"
   stroke="none"
   d="m 143.3138,434.17371 c -8.71759,-6.98682 -15.0099,-15.4885 -15.94829,-26.98721 -1.9163,-23.48166 14.33199,-40.9325 38.83515,-41.03248 1.25062,-0.0116 1.71282,-0.0613 2.40284,-0.0828 0.22782,0.0282 0.681,-0.0453 1.14968,0.0122 2.29359,0.053 4.11883,0.0689 5.9434,0.0411 13.58238,-0.20727 27.16464,-0.42324 41.19209,-0.51403 10.12472,-0.0582 19.80429,-0.23887 29.92139,-0.35285 2.79578,0.0102 5.15405,-0.0463 7.97898,-0.0439 22.47186,-0.0289 44.47708,-0.11689 66.95281,-0.15839 12.54352,0.005 24.61649,-0.0368 36.68946,-0.0784 14.49765,1.79794 23.60119,10.23725 28.953,24.16254 7.40738,29.08529 -8.63937,49.75433 -37.84106,49.88376 -58.6254,0.25982 -117.25141,0.52114 -175.87415,1.09219 -10.67148,0.10394 -20.88216,-0.64014 -30.3553,-5.94168 z"
   id="path3209" />
<path
   fill="#feffff"
   opacity="1"
   stroke="none"
   d="m 370.4498,455.95725 c 8.18833,4.26065 13.26535,11.17044 16.789,20.2456 0.30347,1.35709 0.43393,2.00846 0.60163,2.65009 5.7933,22.16339 -6.70649,48.30994 -36.83854,47.63904 -34.11642,-0.75965 -68.2724,0.30285 -102.41156,0.50281 -25.15597,0.14733 -50.31671,-0.0563 -75.46699,0.37792 -10.84454,0.18726 -21.2975,-0.21209 -30.68013,-6.41729 -10.26256,-8.4076 -15.92764,-18.9234 -15.22904,-32.51184 0.89515,-17.41144 13.91266,-31.85141 32.08631,-34.47809 5.50491,-0.25519 10.15487,-0.64347 14.8071,-0.67261 59.31305,-0.37186 118.62631,-0.80279 177.93985,-0.85959 6.13299,-0.006 12.26818,2.29398 18.40237,3.52396 z"
   id="path3211" />
<path
   fill="#60aac0"
   opacity="1"
   stroke="none"
   d="m 142.44248,521.32273 c 9.38336,5.83789 19.83632,6.23724 30.68086,6.04998 25.15028,-0.43426 50.31102,-0.23059 75.46699,-0.37792 34.13916,-0.19996 68.29514,-1.26246 102.41156,-0.50281 30.13205,0.6709 42.63184,-25.47565 36.83854,-47.63904 -0.1677,-0.64163 -0.29816,-1.293 -0.41816,-2.34738 7.90085,4.24893 11.63788,11.74737 13.13584,20.24386 2.09903,11.90595 1.3262,23.39893 -6.63877,33.54303 -6.77948,8.63428 -15.76358,12.53119 -26.32449,12.74408 -15.47284,0.31195 -30.95672,0.0251 -46.43512,0.11908 -48.39569,0.29376 -96.79083,0.67133 -145.18652,0.96088 -14.48052,0.0867 -27.91548,-8.98816 -33.53073,-22.79376 z"
   id="path3213" />
<path
   fill="#61aac0"
   opacity="1"
   stroke="none"
   d="m 168.37567,366.043 c -0.46219,0.0497 -0.92439,0.0994 -1.72914,0.074 -2.8351,-1.2833 -5.2762,-2.61493 -7.8291,-3.67816 -11.13007,-4.63563 -18.93378,-12.17539 -21.57814,-24.70713 9.49081,8.37934 20.7822,10.90973 33.50302,10.66767 28.27744,-0.53812 56.5699,-0.23496 84.85535,-0.41544 31.93201,-0.2037 63.87347,-1.19116 95.79138,-0.66309 27.93839,0.46222 40.53555,-21.96405 37.43625,-43.91525 5.56857,3.32449 7.02331,9.50598 7.90756,15.13132 2.55042,16.22516 -1.00799,31.95132 -16.78402,40.82715 -6.02515,3.38983 -13.91108,3.47223 -21.23328,5.33737 -12.35721,0.31711 -24.43018,0.3587 -37.27039,0.0694 -22.16687,-0.43018 -43.56643,-0.53934 -64.96618,-0.58558 -0.71817,-0.002 -1.43772,0.63202 -2.15662,0.96955 -2.35825,0.0565 -4.71652,0.11304 -7.80136,-0.20642 -9.90164,-0.51487 -19.07652,-0.67939 -28.25206,-0.73416 -0.60591,-0.004 -1.21683,0.82974 -1.82543,1.27383 -13.58229,0.21323 -27.16455,0.4292 -40.74693,0.63647 -1.82457,0.0278 -3.64981,0.0119 -6.01741,-0.20724 -0.79626,-0.10712 -1.04988,0.009 -1.3035,0.12576 z"
   id="path3215" />
<path
   fill="#62abc0"
   opacity="1"
   stroke="none"
   d="m 370.70694,455.69962 c -6.39133,-0.97235 -12.52652,-3.27222 -18.65951,-3.26633 -59.31354,0.0568 -118.6268,0.48773 -177.93985,0.85959 -4.65223,0.0291 -9.30219,0.41742 -14.41529,0.56952 -3.80812,-3.1677 -7.44957,-6.01154 -10.40774,-9.44421 -2.41524,-2.80265 -4.01436,-6.3086 -5.97304,-9.8736 9.47543,4.93066 19.68611,5.67474 30.35759,5.5708 58.62274,-0.57105 117.24875,-0.83237 175.87415,-1.09219 29.20169,-0.12943 45.24844,-20.79847 37.9862,-49.55338 8.57788,4.03961 11.7406,12.36072 13.34961,20.73258 1.54889,8.05877 1.09833,16.49572 -2.28372,24.46801 -5.23267,12.33448 -14.6752,18.83109 -27.8884,21.02921 z"
   id="path3217" />
<path
   fill="#feffff"
   opacity="1"
   stroke="none"
   d="m 619.67441,288.39292 c 11.45087,-9.61838 24.38196,-12.53467 38.69751,-8.10382 14.21399,4.39944 22.75977,16.16269 22.8335,31.06356 0.14001,28.30561 0.18255,56.61164 0.32281,84.91724 0.17987,36.28833 0.3941,72.57651 0.63831,108.86447 0.1051,15.61395 -8.40302,27.53058 -23.26856,32.34998 -1.89471,0.61425 -3.82025,1.13342 -6.56567,1.69397 -9.11505,0.55725 -17.19055,-0.33515 -24.49036,-4.51868 -12.31048,-7.0553 -16.42871,-18.41003 -16.43243,-31.95798 -0.0151,-54.73956 -0.12262,-109.47915 -0.22266,-164.21869 -0.004,-2.3153 -0.37805,-4.62893 -0.4049,-6.94537 -0.1742,-15.02371 -2.47986,-30.49817 8.89245,-43.14468 z"
   id="path3219" />
<path
   fill="#feffff"
   opacity="1"
   stroke="none"
   d="m 532.43827,288.20944 c 11.15197,-9.34906 23.76397,-12.23284 37.73486,-8.09316 15.04364,4.45751 23.02118,15.57202 23.31164,32.92239 0.19544,41.64593 0.45673,82.38327 0.72474,123.12054 0.002,0.32917 0.0936,0.65775 0.0876,1.43274 -0.0202,3.14185 0.0154,5.83759 0.003,9.00049 0.009,16.50781 0.0656,32.54843 0.0754,49.0318 -0.008,3.11099 0.0309,5.77921 0.0259,8.84363 3.7e-4,1.19046 0.0447,1.98474 0.089,2.77899 -0.9303,15.92371 -9.6325,26.64935 -25.02124,30.85187 -1.11908,0.30566 -2.2229,0.66723 -4.16137,1.02368 -2.8252,0.0585 -4.82355,0.15057 -6.82044,0.1253 -20.46179,-0.25891 -33.83258,-13.24517 -34.21722,-33.62494 -0.39881,-21.13174 -0.59009,-42.26913 -0.6698,-63.40481 -0.16071,-42.63507 -0.0803,-85.27133 -0.34137,-127.90561 -0.061,-9.96518 2.51141,-18.66919 9.17914,-26.10291 z"
   id="path3221" />
<path
   fill="#feffff"
   opacity="1"
   stroke="none"
   d="m 444.67487,288.39026 c 12.2818,-10.21542 25.96936,-12.85876 40.98361,-7.25006 13.37555,4.99658 20.39313,16.15137 20.58228,32.95816 0.029,2.24121 0.0693,3.63336 0.0405,5.36026 -0.0221,0.78559 0.0247,1.23648 0.0165,2.13754 -0.0145,3.473 0.0261,6.49582 0.0176,9.98639 0.003,16.17835 0.0556,31.88901 0.0604,48.04673 -0.003,3.44253 0.0416,6.43795 0.0447,9.90481 -0.006,41.21451 0.0286,81.95758 0.0637,122.70068 -2.94544,15.80744 -13.60267,23.51014 -29.15335,26.94452 -9.11509,0.55945 -17.19001,-0.33435 -24.4903,-4.51806 -12.31146,-7.05548 -16.42932,-18.41028 -16.43317,-31.95844 -0.0156,-54.74066 -0.12329,-109.48129 -0.22375,-164.22192 -0.004,-2.3154 -0.37802,-4.62915 -0.40421,-6.94565 -0.16971,-15.02328 -2.48364,-30.50009 8.89536,-43.14496 z"
   id="path3223" />
<path
   fill="#6eb4c8"
   opacity="1"
   stroke="none"
   d="m 506.76456,512.50772 c -0.31531,-41.01605 -0.35034,-81.75912 -0.0682,-123.25464 0.12055,-3.85858 -0.0762,-6.96475 -0.27289,-10.07089 -0.0524,-15.71063 -0.10467,-31.42129 0.18073,-47.87698 0.14142,-3.88309 -0.0549,-7.02118 -0.25122,-10.15924 -0.0469,-0.45087 -0.0937,-0.90176 0.20935,-1.93372 0.48334,-2.08624 0.61676,-3.5914 0.75018,-5.09652 2.23725,-13.32795 11.09851,-22.77402 24.73383,-25.92728 -6.27576,7.45471 -8.84821,16.15872 -8.78717,26.1239 0.26111,42.63428 0.18066,85.27054 0.34137,127.90561 0.0797,21.13568 0.27099,42.27307 0.6698,63.40481 0.38464,20.37977 13.75543,33.36603 34.21722,33.62494 1.99689,0.0253 3.99524,-0.0668 6.45563,-0.0101 -4.19049,2.62445 -8.57947,6.10608 -13.55188,7.48749 -10.49402,2.91534 -20.61841,0.63196 -29.82825,-5.09039 -9.17718,-5.70203 -12.84259,-14.69257 -14.18793,-24.92414 -0.1712,-1.30194 -0.22308,-2.6195 -0.61053,-4.20282 z"
   id="path3225" />
<path
   fill="#6eb4c7"
   opacity="1"
   stroke="none"
   d="m 594.42264,495.18149 c -0.0568,-16.04062 -0.11359,-32.08124 0.16638,-48.85937 0.14588,-3.55042 -0.0451,-6.36338 -0.23608,-9.1763 -0.0498,-0.32886 -0.1413,-0.65744 -0.14343,-0.98661 -0.26801,-40.73727 -0.5293,-81.47461 -0.67737,-122.67779 0.68048,-1.13425 1.5617,-1.71817 1.76727,-2.48355 3.31012,-12.3274 11.54364,-19.48871 23.98273,-22.65976 -10.98004,12.70132 -8.67438,28.17578 -8.50018,43.19949 0.0268,2.31644 0.40063,4.63007 0.4049,6.94537 0.10004,54.73954 0.20752,109.47913 0.22266,164.21869 0.004,13.54795 4.12195,24.90268 16.43243,31.95798 7.29981,4.18353 15.37531,5.07593 24.11768,4.61548 -0.33392,1.06634 -0.9422,2.34259 -1.9527,2.95367 -15.40417,9.31464 -36.18726,7.00043 -47.79687,-6.7959 -4.23627,-5.03411 -6.67237,-10.97692 -6.88679,-17.67919 -0.10565,-3.30213 -0.1961,-6.6048 -0.56304,-10.20704 -0.31397,-1.09405 -0.35834,-1.88833 -0.0822,-3.35162 0.12854,-3.45053 -0.0634,-6.23202 -0.25543,-9.01355 z"
   id="path3227" />
<path
   fill="#6db3c7"
   opacity="1"
   stroke="none"
   d="m 444.28351,288.336 c -10.98764,12.69913 -8.67371,28.17594 -8.504,43.19922 0.0262,2.3165 0.39997,4.63025 0.40421,6.94565 0.10046,54.74063 0.20819,109.48126 0.22375,164.22192 0.004,13.54816 4.12171,24.90296 16.43317,31.95844 7.30029,4.18371 15.37521,5.07751 24.11777,4.61596 -0.33924,1.0691 -0.9531,2.34662 -1.96829,2.96174 -15.28119,9.25915 -36.02915,7.00073 -47.62397,-6.6236 -4.29681,-5.04895 -6.97076,-10.98731 -7.00964,-17.7088 -0.38559,-66.72452 -0.73709,-133.44934 -0.98608,-200.17444 -0.0524,-14.02722 9.43753,-25.15561 24.91308,-29.39609 z"
   id="path3229" />
<path
   fill="#50a4bc"
   opacity="1"
   stroke="none"
   d="m 507.08109,314.12274 c 0.098,1.49811 -0.0355,3.00327 -0.44983,4.7548 -0.32117,-1.14582 -0.36145,-2.53797 -0.32312,-4.34144 0.0787,-0.41131 0.54162,-0.40634 0.77295,-0.41336 z"
   id="path3231" />
<path
   fill="#449bb4"
   opacity="1"
   stroke="none"
   d="m 254.78904,365.21378 c 0.25222,-0.39655 0.97177,-1.03012 1.68994,-1.02857 21.39975,0.0462 42.79931,0.1554 64.49566,0.53916 -21.70852,0.37246 -43.71374,0.46042 -66.1856,0.48941 z"
   id="path3233" />
<path
   fill="#449bb4"
   opacity="1"
   stroke="none"
   d="m 216.88867,365.61042 c 0.16344,-0.5665 0.77436,-1.39988 1.38027,-1.39624 9.17554,0.0548 18.35042,0.21929 27.81453,0.66744 -9.39051,0.48996 -19.07008,0.6706 -29.1948,0.7288 z"
   id="path3235" />
<path
   fill="#3291ad"
   opacity="1"
   stroke="none"
   d="m 168.60349,366.0712 c 0.0258,-0.14465 0.27942,-0.26108 0.60702,-0.2114 0.074,0.16614 -0.37919,0.2396 -0.60702,0.2114 z"
   id="path3237" />
<path
   fill="#50a4bc"
   opacity="1"
   stroke="none"
   d="m 594.37558,495.62424 c 0.23908,2.33878 0.43103,5.12027 0.3465,8.17462 -0.31555,-2.39541 -0.35455,-5.06363 -0.3465,-8.17462 z"
   id="path3239" />
<path
   fill="#50a4bc"
   opacity="1"
   stroke="none"
   d="m 594.29715,437.59195 c 0.24677,2.36679 0.43775,5.17975 0.33985,8.263 -0.32447,-2.42541 -0.36005,-5.12115 -0.33985,-8.263 z"
   id="path3241" />
<path
   fill="#50a4bc"
   opacity="1"
   stroke="none"
   d="m 506.37589,379.62928 c 0.24426,2.65905 0.44098,5.76522 0.36194,9.15237 -0.32032,-2.71442 -0.36493,-5.70984 -0.36194,-9.15237 z"
   id="path3243" />
<path
   fill="#50a4bc"
   opacity="1"
   stroke="none"
   d="m 506.29788,321.59616 c 0.25135,2.68787 0.4477,5.82596 0.35535,9.24134 -0.32934,-2.74552 -0.36993,-5.76834 -0.35535,-9.24134 z"
   id="path3245" />
</svg>
