<svg xmlns="http://www.w3.org/2000/svg" xmlns:xlink="http://www.w3.org/1999/xlink" width="1640" zoomAndPan="magnify" viewBox="0 0 1230 693.000001" height="924" preserveAspectRatio="xMidYMid meet" version="1.0"><defs><g/><clipPath id="3680d14870"><path d="M 238.296875 57.722656 L 727.019531 57.722656 L 727.019531 642.574219 L 238.296875 642.574219 Z M 238.296875 57.722656 " clip-rule="nonzero"/></clipPath><clipPath id="83f38a6a0f"><path d="M 266.007812 57.722656 L 699.308594 57.722656 C 706.660156 57.722656 713.707031 60.644531 718.902344 65.839844 C 724.101562 71.035156 727.019531 78.085938 727.019531 85.433594 L 727.019531 614.863281 C 727.019531 622.214844 724.101562 629.261719 718.902344 634.457031 C 713.707031 639.65625 706.660156 642.574219 699.308594 642.574219 L 266.007812 642.574219 C 258.65625 642.574219 251.609375 639.65625 246.410156 634.457031 C 241.214844 629.261719 238.296875 622.214844 238.296875 614.863281 L 238.296875 85.433594 C 238.296875 78.085938 241.214844 71.035156 246.410156 65.839844 C 251.609375 60.644531 258.65625 57.722656 266.007812 57.722656 " clip-rule="nonzero"/></clipPath><clipPath id="757e36f70c"><path d="M 247.207031 63.84375 L 721.914062 63.84375 L 721.914062 636.453125 L 247.207031 636.453125 Z M 247.207031 63.84375 " clip-rule="nonzero"/></clipPath><clipPath id="e4240d8452"><path d="M 274.917969 63.84375 L 694.203125 63.84375 C 701.554688 63.84375 708.601562 66.761719 713.796875 71.960938 C 718.996094 77.15625 721.914062 84.203125 721.914062 91.554688 L 721.914062 608.746094 C 721.914062 616.09375 718.996094 623.140625 713.796875 628.339844 C 708.601562 633.535156 701.554688 636.453125 694.203125 636.453125 L 274.917969 636.453125 C 267.566406 636.453125 260.519531 633.535156 255.324219 628.339844 C 250.125 623.140625 247.207031 616.09375 247.207031 608.746094 L 247.207031 91.554688 C 247.207031 84.203125 250.125 77.15625 255.324219 71.960938 C 260.519531 66.761719 267.566406 63.84375 274.917969 63.84375 " clip-rule="nonzero"/></clipPath><clipPath id="59be338f14"><path d="M 267.882812 86.558594 L 704.503906 86.558594 L 704.503906 480.488281 L 267.882812 480.488281 Z M 267.882812 86.558594 " clip-rule="nonzero"/></clipPath><clipPath id="16da0d39ef"><path d="M 271.574219 89.261719 L 711.1875 89.261719 L 711.1875 528.875 L 271.574219 528.875 Z M 271.574219 89.261719 " clip-rule="nonzero"/></clipPath></defs><g clip-path="url(#3680d14870)"><g clip-path="url(#83f38a6a0f)"><path fill="#f3b71d" d="M 238.296875 57.722656 L 727.019531 57.722656 L 727.019531 642.574219 L 238.296875 642.574219 Z M 238.296875 57.722656 " fill-opacity="1" fill-rule="nonzero"/></g></g><g clip-path="url(#757e36f70c)"><g clip-path="url(#e4240d8452)"><path fill="#1b1c1f" d="M 247.207031 63.84375 L 721.914062 63.84375 L 721.914062 636.453125 L 247.207031 636.453125 Z M 247.207031 63.84375 " fill-opacity="1" fill-rule="nonzero"/></g></g><g clip-path="url(#59be338f14)"><path fill="#414f49" d="M 447.027344 480.449219 L 267.882812 301.355469 L 267.882812 170.265625 Z M 358.316406 86.597656 L 267.910156 86.597656 L 267.910156 136.699219 L 461.613281 472.082031 Z M 704.503906 301.355469 L 704.503906 170.265625 L 525.355469 480.449219 Z M 494.609375 86.597656 L 494.609375 467.707031 L 596.710938 86.597656 Z M 704.503906 136.699219 L 704.503906 86.597656 L 614.097656 86.597656 L 510.800781 472.082031 Z M 477.804688 86.597656 L 375.703125 86.597656 L 477.804688 467.707031 Z M 477.804688 86.597656 " fill-opacity="1" fill-rule="nonzero"/></g><g clip-path="url(#16da0d39ef)"><path fill="#f9f9f7" d="M 491.371094 89.261719 L 271.574219 309.058594 L 491.371094 528.875 L 711.1875 309.058594 Z M 367.800781 385.652344 C 403.980469 350.363281 435.238281 309.8125 460.960938 264.875 C 441.589844 319.875 417.339844 367.414062 388.660156 406.511719 Z M 398.535156 416.367188 C 430.246094 373.59375 456.683594 321.117188 477.277344 260.105469 C 467.761719 344.164062 454.496094 411.601562 438.59375 456.445312 Z M 491.371094 509.222656 L 449.164062 467.015625 C 466.332031 421.34375 481.160156 347.816406 491.371094 258.183594 C 501.585938 347.816406 516.414062 421.34375 533.578125 467.015625 Z M 544.148438 456.445312 C 528.265625 411.601562 514.980469 344.125 505.464844 260.105469 C 526.0625 321.097656 552.496094 373.59375 584.210938 416.367188 Z M 594.082031 406.511719 C 565.421875 367.414062 541.171875 319.875 521.800781 264.875 C 547.523438 309.792969 578.78125 350.324219 614.960938 385.636719 Z M 518.296875 228.734375 L 517.035156 226.226562 C 516 224.191406 514.980469 222.136719 513.984375 220.066406 L 513.265625 218.558594 L 511.023438 218.839844 C 509.179688 219.066406 507.332031 219.3125 505.429688 219.480469 C 504.824219 219.539062 504.203125 219.558594 503.582031 219.574219 L 497.984375 219.859375 C 497.34375 219.894531 496.722656 219.933594 496.0625 219.953125 L 494.519531 220.046875 C 493.933594 220.085938 493.351562 220.121094 492.746094 220.140625 L 489.957031 220.140625 C 489.375 220.140625 488.773438 220.101562 488.1875 220.046875 L 486.625 219.953125 C 485.984375 219.933594 485.359375 219.894531 484.71875 219.859375 L 479.125 219.574219 C 478.503906 219.558594 477.878906 219.539062 477.277344 219.480469 C 475.394531 219.3125 473.546875 219.085938 471.699219 218.839844 L 469.457031 218.558594 L 468.742188 220.066406 C 467.800781 222.042969 466.800781 224.003906 465.820312 225.964844 L 464.425781 228.753906 C 436.710938 284.46875 400.890625 333.949219 357.949219 375.816406 L 291.207031 309.078125 L 491.371094 108.914062 L 691.515625 309.058594 L 624.777344 375.800781 C 581.835938 333.949219 546.035156 284.46875 518.296875 228.734375 Z M 518.296875 228.734375 " fill-opacity="1" fill-rule="nonzero"/></g><g fill="#ffffff" fill-opacity="1"><g transform="translate(298.927358, 598.41313)"><g><path d="M 10.71875 -51.21875 L 1.0625 -51.21875 L 1.0625 -57.140625 L 28.078125 -57.140625 L 28.078125 -51.21875 L 18.6875 -51.21875 L 18.6875 0 L 10.71875 0 Z M 10.71875 -51.21875 "/></g></g></g><g fill="#ffffff" fill-opacity="1"><g transform="translate(328.046987, 598.41313)"><g><path d="M 4.296875 -54.75 L 11.859375 -54.75 L 11.859375 -46.84375 L 4.296875 -46.84375 Z M 4.296875 -40.78125 L 11.859375 -40.78125 L 11.859375 0 L 4.296875 0 Z M 4.296875 -40.78125 "/></g></g></g><g fill="#ffffff" fill-opacity="1"><g transform="translate(344.193226, 598.41313)"><g><path d="M 15.09375 0.5625 C 11.945312 0.5625 9.503906 -0.0351562 7.765625 -1.234375 C 6.023438 -2.429688 4.800781 -4.207031 4.09375 -6.5625 C 3.382812 -8.914062 3.03125 -11.972656 3.03125 -15.734375 L 3.03125 -25.046875 C 3.03125 -30.691406 3.910156 -34.816406 5.671875 -37.421875 C 7.441406 -40.035156 10.582031 -41.34375 15.09375 -41.34375 C 18.382812 -41.34375 20.863281 -40.660156 22.53125 -39.296875 C 24.207031 -37.929688 25.316406 -36.015625 25.859375 -33.546875 C 26.398438 -31.078125 26.671875 -27.75 26.671875 -23.5625 L 26.671875 -20.25 L 10.578125 -20.25 L 10.578125 -12.0625 C 10.578125 -9.570312 10.941406 -7.773438 11.671875 -6.671875 C 12.398438 -5.566406 13.566406 -5.015625 15.171875 -5.015625 C 16.765625 -5.015625 17.84375 -5.566406 18.40625 -6.671875 C 18.976562 -7.773438 19.265625 -9.453125 19.265625 -11.703125 L 19.265625 -14.1875 L 26.59375 -14.1875 L 26.59375 -12.625 C 26.59375 -8.34375 25.675781 -5.070312 23.84375 -2.8125 C 22.007812 -0.5625 19.09375 0.5625 15.09375 0.5625 Z M 19.265625 -24.34375 L 19.265625 -28 C 19.265625 -30.78125 18.992188 -32.769531 18.453125 -33.96875 C 17.910156 -35.164062 16.769531 -35.765625 15.03125 -35.765625 C 13.800781 -35.765625 12.867188 -35.484375 12.234375 -34.921875 C 11.597656 -34.359375 11.160156 -33.425781 10.921875 -32.125 C 10.691406 -30.832031 10.578125 -28.96875 10.578125 -26.53125 L 10.578125 -24.34375 Z M 19.265625 -24.34375 "/></g></g></g><g fill="#ffffff" fill-opacity="1"><g transform="translate(373.876909, 598.41313)"><g><path d="M 4.015625 -40.78125 L 11.5625 -40.78125 L 11.5625 -34.984375 C 12.976562 -37.296875 14.425781 -38.921875 15.90625 -39.859375 C 17.382812 -40.796875 18.945312 -41.265625 20.59375 -41.265625 C 21.019531 -41.265625 21.421875 -41.242188 21.796875 -41.203125 L 21.796875 -32.875 C 20.296875 -33.4375 18.910156 -33.71875 17.640625 -33.71875 C 16.410156 -33.71875 15.3125 -33.421875 14.34375 -32.828125 C 13.382812 -32.242188 12.457031 -31.222656 11.5625 -29.765625 L 11.5625 0 L 4.015625 0 Z M 4.015625 -40.78125 "/></g></g></g><g fill="#ffffff" fill-opacity="1"><g transform="translate(396.509842, 598.41313)"><g><path d="M 4.015625 -40.78125 L 11.5625 -40.78125 L 11.5625 -34.984375 C 12.976562 -37.296875 14.425781 -38.921875 15.90625 -39.859375 C 17.382812 -40.796875 18.945312 -41.265625 20.59375 -41.265625 C 21.019531 -41.265625 21.421875 -41.242188 21.796875 -41.203125 L 21.796875 -32.875 C 20.296875 -33.4375 18.910156 -33.71875 17.640625 -33.71875 C 16.410156 -33.71875 15.3125 -33.421875 14.34375 -32.828125 C 13.382812 -32.242188 12.457031 -31.222656 11.5625 -29.765625 L 11.5625 0 L 4.015625 0 Z M 4.015625 -40.78125 "/></g></g></g><g fill="#ffffff" fill-opacity="1"><g transform="translate(419.142776, 598.41313)"><g><path d="M 11.140625 0.5625 C 9.585938 0.5625 8.1875 0.117188 6.9375 -0.765625 C 5.695312 -1.660156 4.722656 -2.835938 4.015625 -4.296875 C 3.316406 -5.753906 2.96875 -7.285156 2.96875 -8.890625 C 2.96875 -12.085938 3.644531 -14.6875 5 -16.6875 C 6.363281 -18.6875 8.101562 -20.269531 10.21875 -21.4375 C 12.34375 -22.613281 15.285156 -23.957031 19.046875 -25.46875 L 19.046875 -28.359375 C 19.046875 -31.035156 18.773438 -32.925781 18.234375 -34.03125 C 17.691406 -35.144531 16.597656 -35.703125 14.953125 -35.703125 C 12.085938 -35.703125 10.65625 -33.769531 10.65625 -29.90625 L 10.65625 -27.859375 L 3.171875 -28.140625 C 3.265625 -32.660156 4.296875 -35.988281 6.265625 -38.125 C 8.242188 -40.269531 11.304688 -41.34375 15.453125 -41.34375 C 19.359375 -41.34375 22.191406 -40.269531 23.953125 -38.125 C 25.710938 -35.988281 26.59375 -32.757812 26.59375 -28.4375 L 26.59375 -9.8125 C 26.59375 -6.75 26.828125 -3.476562 27.296875 0 L 20.390625 0 C 19.867188 -2.675781 19.539062 -4.675781 19.40625 -6 C 18.832031 -4.164062 17.851562 -2.613281 16.46875 -1.34375 C 15.082031 -0.0703125 13.304688 0.5625 11.140625 0.5625 Z M 14.109375 -5.921875 C 15.097656 -5.921875 16.0625 -6.304688 17 -7.078125 C 17.9375 -7.859375 18.617188 -8.601562 19.046875 -9.3125 L 19.046875 -20.875 C 17.023438 -19.75 15.460938 -18.773438 14.359375 -17.953125 C 13.253906 -17.128906 12.335938 -16.175781 11.609375 -15.09375 C 10.878906 -14.007812 10.515625 -12.71875 10.515625 -11.21875 C 10.515625 -9.519531 10.816406 -8.210938 11.421875 -7.296875 C 12.035156 -6.378906 12.929688 -5.921875 14.109375 -5.921875 Z M 14.109375 -5.921875 "/></g></g></g><g fill="#ffffff" fill-opacity="1"><g transform="translate(449.178986, 598.41313)"><g/></g></g><g fill="#ffffff" fill-opacity="1"><g transform="translate(465.325225, 598.41313)"><g><path d="M 17.921875 0.640625 C 13.117188 0.640625 9.457031 -0.835938 6.9375 -3.796875 C 4.425781 -6.765625 3.03125 -10.835938 2.75 -16.015625 L 9.8125 -17.921875 C 10.039062 -14.253906 10.753906 -11.289062 11.953125 -9.03125 C 13.148438 -6.769531 15.140625 -5.640625 17.921875 -5.640625 C 19.984375 -5.640625 21.546875 -6.210938 22.609375 -7.359375 C 23.671875 -8.515625 24.203125 -10.175781 24.203125 -12.34375 C 24.203125 -14.695312 23.707031 -16.648438 22.71875 -18.203125 C 21.726562 -19.753906 20.148438 -21.46875 17.984375 -23.34375 L 8.390625 -31.8125 C 6.460938 -33.507812 5.0625 -35.332031 4.1875 -37.28125 C 3.320312 -39.238281 2.890625 -41.625 2.890625 -44.4375 C 2.890625 -48.625 4.085938 -51.867188 6.484375 -54.171875 C 8.890625 -56.484375 12.160156 -57.640625 16.296875 -57.640625 C 20.804688 -57.640625 24.210938 -56.4375 26.515625 -54.03125 C 28.828125 -51.632812 30.21875 -47.921875 30.6875 -42.890625 L 23.921875 -41.0625 C 23.679688 -44.394531 23.03125 -46.96875 21.96875 -48.78125 C 20.914062 -50.59375 19.023438 -51.5 16.296875 -51.5 C 14.273438 -51.5 12.722656 -50.96875 11.640625 -49.90625 C 10.554688 -48.851562 10.015625 -47.289062 10.015625 -45.21875 C 10.015625 -43.53125 10.296875 -42.109375 10.859375 -40.953125 C 11.421875 -39.796875 12.382812 -38.628906 13.75 -37.453125 L 23.421875 -29 C 25.910156 -26.78125 27.894531 -24.378906 29.375 -21.796875 C 30.863281 -19.210938 31.609375 -16.273438 31.609375 -12.984375 C 31.609375 -8.796875 30.335938 -5.476562 27.796875 -3.03125 C 25.253906 -0.582031 21.960938 0.640625 17.921875 0.640625 Z M 17.921875 0.640625 "/></g></g></g><g fill="#ffffff" fill-opacity="1"><g transform="translate(498.675283, 598.41313)"><g><path d="M 11.140625 0.5625 C 9.585938 0.5625 8.1875 0.117188 6.9375 -0.765625 C 5.695312 -1.660156 4.722656 -2.835938 4.015625 -4.296875 C 3.316406 -5.753906 2.96875 -7.285156 2.96875 -8.890625 C 2.96875 -12.085938 3.644531 -14.6875 5 -16.6875 C 6.363281 -18.6875 8.101562 -20.269531 10.21875 -21.4375 C 12.34375 -22.613281 15.285156 -23.957031 19.046875 -25.46875 L 19.046875 -28.359375 C 19.046875 -31.035156 18.773438 -32.925781 18.234375 -34.03125 C 17.691406 -35.144531 16.597656 -35.703125 14.953125 -35.703125 C 12.085938 -35.703125 10.65625 -33.769531 10.65625 -29.90625 L 10.65625 -27.859375 L 3.171875 -28.140625 C 3.265625 -32.660156 4.296875 -35.988281 6.265625 -38.125 C 8.242188 -40.269531 11.304688 -41.34375 15.453125 -41.34375 C 19.359375 -41.34375 22.191406 -40.269531 23.953125 -38.125 C 25.710938 -35.988281 26.59375 -32.757812 26.59375 -28.4375 L 26.59375 -9.8125 C 26.59375 -6.75 26.828125 -3.476562 27.296875 0 L 20.390625 0 C 19.867188 -2.675781 19.539062 -4.675781 19.40625 -6 C 18.832031 -4.164062 17.851562 -2.613281 16.46875 -1.34375 C 15.082031 -0.0703125 13.304688 0.5625 11.140625 0.5625 Z M 14.109375 -5.921875 C 15.097656 -5.921875 16.0625 -6.304688 17 -7.078125 C 17.9375 -7.859375 18.617188 -8.601562 19.046875 -9.3125 L 19.046875 -20.875 C 17.023438 -19.75 15.460938 -18.773438 14.359375 -17.953125 C 13.253906 -17.128906 12.335938 -16.175781 11.609375 -15.09375 C 10.878906 -14.007812 10.515625 -12.71875 10.515625 -11.21875 C 10.515625 -9.519531 10.816406 -8.210938 11.421875 -7.296875 C 12.035156 -6.378906 12.929688 -5.921875 14.109375 -5.921875 Z M 14.109375 -5.921875 "/></g></g></g><g fill="#ffffff" fill-opacity="1"><g transform="translate(528.711494, 598.41313)"><g><path d="M 14.390625 12.625 C 10.441406 12.625 7.289062 12 4.9375 10.75 C 2.582031 9.507812 1.40625 7.570312 1.40625 4.9375 C 1.40625 3.144531 1.957031 1.59375 3.0625 0.28125 C 4.175781 -1.03125 5.578125 -2.085938 7.265625 -2.890625 C 5.992188 -3.265625 5.015625 -3.851562 4.328125 -4.65625 C 3.648438 -5.457031 3.3125 -6.328125 3.3125 -7.265625 C 3.3125 -8.671875 3.664062 -9.890625 4.375 -10.921875 C 5.082031 -11.960938 6.234375 -13.210938 7.828125 -14.671875 C 6.234375 -15.898438 5.046875 -17.441406 4.265625 -19.296875 C 3.492188 -21.148438 3.109375 -23.65625 3.109375 -26.8125 C 3.109375 -31.5625 4.082031 -35.171875 6.03125 -37.640625 C 7.976562 -40.109375 10.835938 -41.34375 14.609375 -41.34375 C 16.765625 -41.34375 18.523438 -40.960938 19.890625 -40.203125 C 21.253906 -39.453125 22.289062 -38.328125 23 -36.828125 C 23.320312 -37.335938 24.015625 -38.03125 25.078125 -38.90625 C 26.140625 -39.78125 27.28125 -40.5 28.5 -41.0625 L 29.625 -41.546875 L 31.53125 -36.6875 C 30.59375 -36.5 29.285156 -36.097656 27.609375 -35.484375 C 25.941406 -34.867188 24.945312 -34.398438 24.625 -34.078125 C 24.945312 -33.222656 25.238281 -32.046875 25.5 -30.546875 C 25.757812 -29.046875 25.890625 -27.726562 25.890625 -26.59375 C 25.890625 -22.125 25.019531 -18.65625 23.28125 -16.1875 C 21.539062 -13.71875 18.648438 -12.484375 14.609375 -12.484375 C 13.335938 -12.484375 12.039062 -12.648438 10.71875 -12.984375 C 9.820312 -11.660156 9.375 -10.625 9.375 -9.875 C 9.375 -9.351562 9.644531 -8.941406 10.1875 -8.640625 C 10.726562 -8.335938 11.585938 -8.140625 12.765625 -8.046875 L 19.125 -7.484375 C 22.320312 -7.191406 24.695312 -6.222656 26.25 -4.578125 C 27.800781 -2.929688 28.578125 -0.582031 28.578125 2.46875 C 28.578125 9.238281 23.847656 12.625 14.390625 12.625 Z M 14.609375 -17.78125 C 16.628906 -17.78125 17.941406 -18.484375 18.546875 -19.890625 C 19.160156 -21.304688 19.46875 -23.613281 19.46875 -26.8125 C 19.46875 -30.050781 19.160156 -32.410156 18.546875 -33.890625 C 17.941406 -35.378906 16.648438 -36.125 14.671875 -36.125 C 12.691406 -36.125 11.363281 -35.378906 10.6875 -33.890625 C 10.007812 -32.410156 9.671875 -30.050781 9.671875 -26.8125 C 9.671875 -23.894531 10.007812 -21.660156 10.6875 -20.109375 C 11.363281 -18.554688 12.671875 -17.78125 14.609375 -17.78125 Z M 14.953125 6.703125 C 17.640625 6.703125 19.613281 6.382812 20.875 5.75 C 22.144531 5.113281 22.78125 4.09375 22.78125 2.6875 C 22.78125 1.363281 22.378906 0.382812 21.578125 -0.25 C 20.785156 -0.882812 19.332031 -1.296875 17.21875 -1.484375 L 10.796875 -2.046875 C 9.804688 -1.054688 9.050781 -0.1875 8.53125 0.5625 C 8.019531 1.3125 7.765625 2.132812 7.765625 3.03125 C 7.765625 4.300781 8.289062 5.226562 9.34375 5.8125 C 10.40625 6.40625 12.273438 6.703125 14.953125 6.703125 Z M 14.953125 6.703125 "/></g></g></g><g fill="#ffffff" fill-opacity="1"><g transform="translate(559.382284, 598.41313)"><g><path d="M 4.015625 -40.78125 L 11.5625 -40.78125 L 11.5625 -34.984375 C 12.976562 -37.296875 14.425781 -38.921875 15.90625 -39.859375 C 17.382812 -40.796875 18.945312 -41.265625 20.59375 -41.265625 C 21.019531 -41.265625 21.421875 -41.242188 21.796875 -41.203125 L 21.796875 -32.875 C 20.296875 -33.4375 18.910156 -33.71875 17.640625 -33.71875 C 16.410156 -33.71875 15.3125 -33.421875 14.34375 -32.828125 C 13.382812 -32.242188 12.457031 -31.222656 11.5625 -29.765625 L 11.5625 0 L 4.015625 0 Z M 4.015625 -40.78125 "/></g></g></g><g fill="#ffffff" fill-opacity="1"><g transform="translate(582.015218, 598.41313)"><g><path d="M 11.140625 0.5625 C 9.585938 0.5625 8.1875 0.117188 6.9375 -0.765625 C 5.695312 -1.660156 4.722656 -2.835938 4.015625 -4.296875 C 3.316406 -5.753906 2.96875 -7.285156 2.96875 -8.890625 C 2.96875 -12.085938 3.644531 -14.6875 5 -16.6875 C 6.363281 -18.6875 8.101562 -20.269531 10.21875 -21.4375 C 12.34375 -22.613281 15.285156 -23.957031 19.046875 -25.46875 L 19.046875 -28.359375 C 19.046875 -31.035156 18.773438 -32.925781 18.234375 -34.03125 C 17.691406 -35.144531 16.597656 -35.703125 14.953125 -35.703125 C 12.085938 -35.703125 10.65625 -33.769531 10.65625 -29.90625 L 10.65625 -27.859375 L 3.171875 -28.140625 C 3.265625 -32.660156 4.296875 -35.988281 6.265625 -38.125 C 8.242188 -40.269531 11.304688 -41.34375 15.453125 -41.34375 C 19.359375 -41.34375 22.191406 -40.269531 23.953125 -38.125 C 25.710938 -35.988281 26.59375 -32.757812 26.59375 -28.4375 L 26.59375 -9.8125 C 26.59375 -6.75 26.828125 -3.476562 27.296875 0 L 20.390625 0 C 19.867188 -2.675781 19.539062 -4.675781 19.40625 -6 C 18.832031 -4.164062 17.851562 -2.613281 16.46875 -1.34375 C 15.082031 -0.0703125 13.304688 0.5625 11.140625 0.5625 Z M 14.109375 -5.921875 C 15.097656 -5.921875 16.0625 -6.304688 17 -7.078125 C 17.9375 -7.859375 18.617188 -8.601562 19.046875 -9.3125 L 19.046875 -20.875 C 17.023438 -19.75 15.460938 -18.773438 14.359375 -17.953125 C 13.253906 -17.128906 12.335938 -16.175781 11.609375 -15.09375 C 10.878906 -14.007812 10.515625 -12.71875 10.515625 -11.21875 C 10.515625 -9.519531 10.816406 -8.210938 11.421875 -7.296875 C 12.035156 -6.378906 12.929688 -5.921875 14.109375 -5.921875 Z M 14.109375 -5.921875 "/></g></g></g><g fill="#ffffff" fill-opacity="1"><g transform="translate(612.051428, 598.41313)"><g><path d="M 13.265625 0.5625 C 9.734375 0.5625 7.144531 -0.71875 5.5 -3.28125 C 3.851562 -5.84375 3.03125 -10.085938 3.03125 -16.015625 L 3.03125 -23.921875 C 3.03125 -29.328125 3.75 -33.582031 5.1875 -36.6875 C 6.625 -39.789062 9.242188 -41.34375 13.046875 -41.34375 C 15.453125 -41.34375 17.710938 -40.285156 19.828125 -38.171875 L 19.828125 -57.140625 L 27.375 -57.140625 L 27.375 0 L 19.828125 0 L 19.828125 -2.609375 C 17.847656 -0.492188 15.660156 0.5625 13.265625 0.5625 Z M 15.171875 -5.359375 C 16.671875 -5.359375 18.222656 -5.875 19.828125 -6.90625 L 19.828125 -33.65625 C 18.085938 -34.832031 16.488281 -35.421875 15.03125 -35.421875 C 12.0625 -35.421875 10.578125 -32.570312 10.578125 -26.875 L 10.578125 -15.375 C 10.578125 -12.082031 10.882812 -9.585938 11.5 -7.890625 C 12.113281 -6.203125 13.335938 -5.359375 15.171875 -5.359375 Z M 15.171875 -5.359375 "/></g></g></g><g fill="#ffffff" fill-opacity="1"><g transform="translate(643.215747, 598.41313)"><g><path d="M 11.140625 0.5625 C 9.585938 0.5625 8.1875 0.117188 6.9375 -0.765625 C 5.695312 -1.660156 4.722656 -2.835938 4.015625 -4.296875 C 3.316406 -5.753906 2.96875 -7.285156 2.96875 -8.890625 C 2.96875 -12.085938 3.644531 -14.6875 5 -16.6875 C 6.363281 -18.6875 8.101562 -20.269531 10.21875 -21.4375 C 12.34375 -22.613281 15.285156 -23.957031 19.046875 -25.46875 L 19.046875 -28.359375 C 19.046875 -31.035156 18.773438 -32.925781 18.234375 -34.03125 C 17.691406 -35.144531 16.597656 -35.703125 14.953125 -35.703125 C 12.085938 -35.703125 10.65625 -33.769531 10.65625 -29.90625 L 10.65625 -27.859375 L 3.171875 -28.140625 C 3.265625 -32.660156 4.296875 -35.988281 6.265625 -38.125 C 8.242188 -40.269531 11.304688 -41.34375 15.453125 -41.34375 C 19.359375 -41.34375 22.191406 -40.269531 23.953125 -38.125 C 25.710938 -35.988281 26.59375 -32.757812 26.59375 -28.4375 L 26.59375 -9.8125 C 26.59375 -6.75 26.828125 -3.476562 27.296875 0 L 20.390625 0 C 19.867188 -2.675781 19.539062 -4.675781 19.40625 -6 C 18.832031 -4.164062 17.851562 -2.613281 16.46875 -1.34375 C 15.082031 -0.0703125 13.304688 0.5625 11.140625 0.5625 Z M 14.109375 -5.921875 C 15.097656 -5.921875 16.0625 -6.304688 17 -7.078125 C 17.9375 -7.859375 18.617188 -8.601562 19.046875 -9.3125 L 19.046875 -20.875 C 17.023438 -19.75 15.460938 -18.773438 14.359375 -17.953125 C 13.253906 -17.128906 12.335938 -16.175781 11.609375 -15.09375 C 10.878906 -14.007812 10.515625 -12.71875 10.515625 -11.21875 C 10.515625 -9.519531 10.816406 -8.210938 11.421875 -7.296875 C 12.035156 -6.378906 12.929688 -5.921875 14.109375 -5.921875 Z M 14.109375 -5.921875 "/></g></g></g></svg>