<?xml version="1.0" encoding="UTF-8" standalone="no"?>
<svg
   xmlns:dc="http://purl.org/dc/elements/1.1/"
   xmlns:cc="http://creativecommons.org/ns#"
   xmlns:rdf="http://www.w3.org/1999/02/22-rdf-syntax-ns#"
   xmlns:svg="http://www.w3.org/2000/svg"
   xmlns="http://www.w3.org/2000/svg"
   xmlns:sodipodi="http://sodipodi.sourceforge.net/DTD/sodipodi-0.dtd"
   xmlns:inkscape="http://www.inkscape.org/namespaces/inkscape"
   width="333.06116"
   height="120"
   viewBox="0 0 88.122433 31.750001"
   version="1.1"
   id="svg8"
   inkscape:version="1.0.2 (1.0.2+r75+1)"
   sodipodi:docname="oi-home-banner.svg">
  <defs
     id="defs2" />
  <sodipodi:namedview
     id="base"
     pagecolor="#ffffff"
     bordercolor="#666666"
     borderopacity="1.0"
     inkscape:pageopacity="0.0"
     inkscape:pageshadow="2"
     inkscape:zoom="0.96201638"
     inkscape:cx="-137.577"
     inkscape:cy="110.44838"
     inkscape:document-units="mm"
     inkscape:current-layer="layer1"
     inkscape:document-rotation="0"
     showgrid="false"
     inkscape:window-width="1920"
     inkscape:window-height="1031"
     inkscape:window-x="1366"
     inkscape:window-y="0"
     inkscape:window-maximized="1"
     fit-margin-top="0"
     fit-margin-left="0"
     fit-margin-right="0"
     fit-margin-bottom="0"
     units="px"
     lock-margins="true" />
  <metadata
     id="metadata5">
    <rdf:RDF>
      <cc:Work
         rdf:about="">
        <dc:format>image/svg+xml</dc:format>
        <dc:type
           rdf:resource="http://purl.org/dc/dcmitype/StillImage" />
        <dc:title></dc:title>
      </cc:Work>
    </rdf:RDF>
  </metadata>
  <g
     inkscape:label="Layer 1"
     inkscape:groupmode="layer"
     id="layer1"
     transform="translate(-59.366423,-80.290615)">
    <g
       inkscape:groupmode="layer"
       id="layer2"
       inkscape:label="Layer 2"
       transform="translate(13.469304,63.75415)" />
    <g
       id="g1031"
       transform="matrix(0.48979582,0,0,0.48979582,52.769214,49.064099)">
      <rect
         style="fill:#79a6ab;fill-opacity:1;stroke-width:0.600001;stroke-linecap:square;stroke-dashoffset:0.0925984"
         id="rect962"
         width="179.91667"
         height="64.822906"
         x="13.469304"
         y="63.75415" />
      <circle
         style="fill:#ffffff;fill-opacity:1;stroke-width:0.63187;stroke-linecap:square;stroke-dashoffset:0.0925984"
         id="path1006"
         sodipodi:type="arc"
         sodipodi:cx="102.96996"
         sodipodi:cy="100.82812"
         sodipodi:rx="22.033365"
         sodipodi:ry="22.015957"
         sodipodi:start="5.1116156"
         sodipodi:end="5.1057295"
         sodipodi:arc-type="arc"
         d="M 111.53446,80.543454 A 22.033365,22.015957 0 0 1 123.28325,109.35599 22.033365,22.015957 0 0 1 94.465247,121.13788 22.033365,22.015957 0 0 1 82.631649,92.360016 22.033365,22.015957 0 0 1 111.41482,80.493434"
         sodipodi:open="true" />
      <path
         style="fill:#1d5655;fill-opacity:1;stroke-width:0.264583"
         d="M 13.469304,96.165605 V 63.75415 h 89.958326 89.95833 V 96.165605 128.57708 H 103.42763 13.469304 Z M 121.36638,121.90957 c 0.77093,-0.77093 -0.19763,-2.27182 -1.25042,-1.93767 -0.66906,0.21235 -0.99428,1.32146 -0.5459,1.86173 0.39321,0.47378 1.3577,0.51455 1.79632,0.0759 z M 98.938715,120.838 c 0.77714,-0.39225 1.381395,-0.95631 1.771495,-1.65364 0.54865,-0.98075 0.59237,-1.39291 0.5964,-5.6224 l 0.004,-4.56406 h 1.69837 1.69836 l 0.0876,4.69636 c 0.0769,4.12362 0.1521,4.80591 0.61673,5.59473 0.80041,1.35887 1.76844,1.95059 3.41441,2.08709 1.21192,0.1005 1.72773,-0.009 3.11983,-0.66278 3.59136,-1.68642 6.43227,-3.93128 8.56486,-6.7679 7.54574,-10.03674 5.41096,-23.929169 -4.80853,-31.292338 -8.51924,-6.13813 -20.488425,-5.12066 -28.046825,2.384189 -4.36975,4.338793 -6.53324,9.585594 -6.49794,15.758569 0.0339,5.93628 2.2276,11.1786 6.44067,15.39167 2.71255,2.71255 7.13688,5.22554 9.22466,5.23955 0.51487,0.003 1.46688,-0.26161 2.11558,-0.58904 z m -4.63716,-4.2342 c -3.23666,-1.71357 -5.75683,-4.37277 -7.47896,-7.89158 -1.5843,-3.23715 -1.91578,-4.64763 -1.91578,-8.15168 0,-5.084905 1.67601,-9.117727 5.29022,-12.72931 3.1316,-3.129324 6.33626,-4.723679 10.647905,-5.297453 5.69625,-0.75803 11.2642,1.25577 15.37844,5.562037 3.50047,3.663831 5.04234,7.562311 5.02293,12.700006 -0.01,2.59584 -0.11709,3.35358 -0.73053,5.15937 -1.65815,4.88116 -4.72019,8.56155 -8.906,10.70448 -2.93022,1.50014 -3.15604,1.42097 -3.15193,-1.10503 l 0.003,-1.92653 1.65051,-0.90396 c 4.39327,-2.40615 7.17924,-7.26852 7.13772,-12.4575 -0.0534,-6.671745 -4.87409,-12.487615 -11.41794,-13.775038 -7.404085,-1.456666 -14.688455,3.220549 -16.593795,10.654693 -0.55962,2.18344 -0.37847,5.826105 0.39803,8.004785 1.10164,3.09089 3.48307,5.92234 6.35083,7.55098 l 1.63062,0.92604 -0.0712,1.98437 c -0.0891,2.48249 -0.30373,2.54807 -3.24419,0.99132 z m 4.31489,-8.92881 c 0.28277,-0.65485 0.81661,-1.86855 1.18632,-2.69712 0.978565,-2.19315 0.631285,-2.3071 -2.59808,-0.85255 -1.44681,0.65167 -2.51376,1.07886 -2.37099,0.94931 0.14276,-0.12955 1.1823,-0.92158 2.31009,-1.76007 1.12778,-0.83848 2.05052,-1.67578 2.05052,-1.86065 0,-0.42468 -0.63333,-0.57463 -3.43958,-0.81437 -2.58256,-0.22063 -2.46369,-0.31919 0.88563,-0.734254 1.84282,-0.22837 2.42166,-0.394961 2.42166,-0.696971 0,-0.21828 -0.86372,-1.04129 -1.91937,-1.8289 -1.05565,-0.78761 -1.87502,-1.47637 -1.82082,-1.53057 0.0542,-0.0542 1.02208,0.32232 2.15084,0.83671 3.259565,1.48544 3.386215,1.36756 1.9636,-1.8276 -0.57409,-1.28939 -1.00503,-2.3831 -0.95766,-2.43048 0.0474,-0.0474 0.7808,0.86362 1.629835,2.02443 0.84903,1.16082 1.64926,2.11057 1.77829,2.11057 0.36775,0 0.52744,-0.63197 0.85606,-3.38772 l 0.30593,-2.565401 0.32394,2.740801 c 0.32797,2.77483 0.44132,3.21232 0.83228,3.21232 0.1193,0 0.90294,-0.92273 1.74143,-2.05052 2.05668,-2.76627 2.12983,-2.82164 1.31085,-0.99219 -1.28822,2.87769 -1.44834,3.28626 -1.44834,3.69567 0,0.58792 0.4983,0.50615 2.53041,-0.41525 2.00735,-0.91018 3.21352,-1.39257 3.02027,-1.20792 -0.0697,0.0666 -1.11708,0.85343 -2.32751,1.7485 -1.21043,0.89508 -2.15359,1.77075 -2.09591,1.94592 0.061,0.18528 1.10913,0.444031 2.50577,0.618601 3.32785,0.415974 3.4433,0.513974 0.86489,0.734254 -2.77979,0.23748 -3.43959,0.39008 -3.43959,0.79553 0,0.17452 0.95074,1.01665 2.11275,1.87141 1.16202,0.85476 2.0761,1.59077 2.0313,1.63557 -0.0448,0.0448 -1.13746,-0.38642 -2.42815,-0.95827 -1.29068,-0.57184 -2.44289,-0.98026 -2.56046,-0.9076 -0.38956,0.24076 -0.22426,0.86234 0.84456,3.1758 0.58209,1.25992 1.05834,2.35151 1.05834,2.42576 0,0.0742 -0.74414,-0.84713 -1.65365,-2.04749 l -1.65365,-2.18248 -1.56725,-0.0416 -1.56726,-0.0416 -1.44853,1.9859 c -1.911725,2.62093 -2.023765,2.72552 -1.418765,1.32444 z m 29.687315,13.09413 c 0.96055,-0.49672 1.31762,-1.14128 1.31762,-2.37851 0,-0.52846 -0.12259,-1.1899 -0.27243,-1.46986 -0.334,-0.6241 -1.60452,-1.30861 -2.42641,-1.30728 -0.92499,0.002 -2.19787,0.89758 -2.57774,1.81467 -0.43617,1.05301 -0.18468,2.02421 0.77186,2.98075 0.86777,0.86776 1.96566,0.99186 3.1871,0.36023 z m -83.10309,-5.56358 c -1.19934,-2.69571 -2.30942,-4.85836 -2.46687,-4.80587 -0.15745,0.0525 -0.83452,0.85988 -1.5046,1.79422 -0.67008,0.93434 -2.0686,2.8814 -3.10782,4.3268 -1.03921,1.4454 -1.84192,2.67556 -1.78379,2.73369 0.23217,0.23217 10.87216,1.27012 10.95488,1.06867 0.0488,-0.11892 -0.89248,-2.4218 -2.0918,-5.11751 z m 16.02155,3.85137 c 0.37139,-0.41038 0.4392,-0.7819 0.31206,-1.70954 -0.13241,-0.96601 -0.0189,-1.5052 0.61376,-2.91526 0.95666,-2.13221 1.30564,-2.18499 3.464285,-0.52395 1.30092,1.00104 1.56741,1.34187 1.56741,2.00472 0,1.07907 1.26375,2.34544 2.34059,2.34544 1.21267,0 2.4219,-1.14728 2.4219,-2.2978 0,-0.51032 -0.18872,-1.24734 -0.41939,-1.63782 -0.39352,-0.66619 -0.37977,-0.79954 0.22298,-2.16248 0.5498,-1.24319 0.75322,-1.46094 1.41158,-1.51099 1.72027,-0.13077 2.75358,-1.30109 2.75358,-3.1187 0,-2.70351 -3.40235,-4.01206 -5.12101,-1.96955 -1.14505,1.36082 -1.11026,2.82025 0.10717,4.49526 0.44653,0.61436 -0.87983,3.43958 -1.6148,3.43958 -0.30244,0 -0.78232,0.12439 -1.0664,0.27642 -0.42781,0.22896 -0.76558,0.0819 -1.96698,-0.85641 -1.14439,-0.89378 -1.45047,-1.28965 -1.45047,-1.87595 0,-0.88142 -1.05263,-2.04198 -1.852095,-2.04198 -0.71007,0 -1.85208,1.13681 -1.85208,1.84365 0,0.29963 0.13863,0.76677 0.30807,1.03808 0.2501,0.40047 0.16794,0.82301 -0.43657,2.24537 -0.40955,0.96364 -0.88931,1.75207 -1.06614,1.75207 -0.17682,0 -0.63521,0.24676 -1.01864,0.54837 -0.91302,0.71818 -0.9696,2.1412 -0.1091,2.74392 0.80751,0.5656 1.88125,0.51632 2.45029,-0.11245 z m -1.8529,-1.07158 c -0.10275,-0.16626 -0.0623,-0.42678 0.0898,-0.57895 0.35558,-0.35557 1.18458,-0.0454 1.03991,0.38906 -0.14726,0.4423 -0.89597,0.56814 -1.12975,0.18989 z m 9.123825,-1.59684 c -0.36974,-0.69086 0.29592,-1.83434 1.06784,-1.83434 0.28433,0 0.70676,0.28967 0.93874,0.64372 0.58441,0.89192 0.12755,1.73753 -0.93874,1.73753 -0.51273,0 -0.87423,-0.18515 -1.06784,-0.54691 z m -6.025555,-5.47236 c 0.049,-0.25466 0.26451,-0.46302 0.4788,-0.46302 0.2143,0 0.42976,0.20836 0.4788,0.46302 0.0626,0.32487 -0.0803,0.46302 -0.4788,0.46302 -0.3985,0 -0.54136,-0.13815 -0.4788,-0.46302 z m 9.378025,-1.93743 c -0.85293,-0.67092 -0.92931,-1.86529 -0.16797,-2.62663 0.76895,-0.76895 1.95572,-0.68495 2.64159,0.18699 0.65893,0.83769 0.54294,1.81093 -0.30093,2.52499 -0.71882,0.60824 -1.32101,0.58458 -2.17269,-0.0854 z m 86.599615,10.35328 c 0.74689,-0.47258 1.10495,-6.84907 0.41667,-7.42029 -0.21605,-0.1793 -1.43644,-0.38714 -2.71198,-0.46186 -1.82282,-0.10678 -2.44358,-0.24918 -2.90048,-0.6654 -1.05532,-0.96135 -4.75286,-1.3414 -5.40556,-0.55561 -0.2315,0.27871 -0.46222,1.73233 -0.63651,4.01026 -0.36516,4.77252 -0.59749,4.5186 4.5231,4.94338 5.06075,0.41982 6.24584,0.44621 6.71476,0.14952 z m -79.147585,-2.18491 c 0.43862,-0.43862 0.39784,-1.40311 -0.0759,-1.79632 -0.53005,-0.4399 -1.64785,-0.12799 -1.85254,0.51694 -0.373,1.1752 1.07322,2.13464 1.92848,1.27938 z M 52.27591,113.65036 c -0.0912,-0.23771 -0.32851,-0.34454 -0.5643,-0.25406 -0.48956,0.18786 -0.5377,0.80121 -0.0762,0.97044 0.46751,0.17142 0.82689,-0.23057 0.64046,-0.71638 z m 89.06051,-2.81628 c 1.40394,-0.38988 2.77351,-1.67596 3.10814,-2.91868 1.04556,-3.88293 -4.22441,-8.084014 -8.91844,-7.10954 -3.18706,0.66164 -4.41283,3.31138 -2.96341,6.40597 l 0.59151,1.2629 -0.76958,0.80327 c -0.6428,0.67094 -0.70497,0.84414 -0.37736,1.05129 0.50821,0.32135 0.70963,0.31544 1.97972,-0.0581 0.58209,-0.17118 1.11787,-0.29045 1.19063,-0.26503 0.0728,0.0254 0.78714,0.28132 1.5875,0.56867 1.63476,0.58692 3.09345,0.66964 4.57129,0.25924 z m -84.83798,-6.87792 c 3.82201,-2.3787 5.12504,-3.3212 5.12504,-3.707 0,-0.711025 -2.91755,-5.373195 -3.19062,-5.098535 -0.12097,0.12167 -0.91172,1.59045 -1.75722,3.26394 l -1.53726,3.042715 -3.76891,0.0734 c -2.0729,0.0404 -3.76891,0.13626 -3.76891,0.21308 0,0.42629 3.3594,5.40205 3.64722,5.40205 0.0691,0 2.43189,-1.43535 5.25066,-3.18966 z m 97.99377,0.54383 c 0,-0.54777 -0.63831,-0.73015 -0.92604,-0.26459 -0.22147,0.35834 0.0774,0.79375 0.54478,0.79375 0.2097,0 0.38126,-0.23812 0.38126,-0.52916 z m 10.39012,-2.11667 c 0.23461,0 0.50015,0.11906 0.59009,0.26458 0.33245,0.53792 0.66687,0.24597 0.49637,-0.43334 -0.13727,-0.54695 -0.0382,-0.80323 0.45798,-1.18474 l 0.63315,-0.48682 -0.74037,-0.006 c -0.5758,-0.005 -0.81755,-0.1894 -1.08751,-0.831464 l -0.34713,-0.825571 -0.28779,0.825571 c -0.24105,0.691464 -0.42476,0.825574 -1.13099,0.825574 h -0.8432 l 0.68648,0.53998 c 0.5818,0.45764 0.64776,0.64183 0.43256,1.20785 -0.35968,0.94602 -0.31993,1.03975 0.22993,0.54213 0.26612,-0.24083 0.67581,-0.43788 0.91043,-0.43788 z M 75.910975,101.0604 c 0.29105,-0.29104 0.52916,-0.72815 0.52916,-0.97135 0,-1.235155 -2.07742,-1.942825 -2.63652,-0.898135 -0.39242,0.733231 -0.3388,1.359225 0.16399,1.914805 0.57054,0.63044 1.28425,0.6138 1.94336,-0.0453 z M 56.0661,96.755405 c 1.40958,-2.76765 1.65195,-3.42232 1.33969,-3.6187 -0.48221,-0.30326 -0.83053,-0.12162 -6.39602,3.33532 -5.90531,3.668035 -5.9308,3.836235 -0.56607,3.735555 l 3.90147,-0.0732 z m 96.67064,2.69829 c 0.53773,-0.42298 0.69714,-0.78159 0.69714,-1.5683 0,-1.87022 -2.02238,-2.76417 -3.31932,-1.46723 -1.85671,1.8567 0.56168,4.656325 2.62218,3.03553 z m -77.685665,-1.56469 c 0.42961,-0.005 0.41811,-0.46652 -0.11032,-4.42907 l -0.44104,-3.307274 -1.19168,0.163339 c -0.65543,0.08984 -1.23066,0.202306 -1.27828,0.249931 -0.0476,0.04762 0.29248,1.781624 0.75579,3.853334 0.78195,3.49653 0.88157,3.75623 1.3886,3.62005 0.30041,-0.0807 0.69504,-0.14832 0.87693,-0.15031 z m 68.960025,-5.54646 c 1.0538,-1.044841 1.07166,-2.630386 0.0417,-3.705399 -0.89978,-0.93917 -1.8235,-1.128579 -3.18657,-0.653413 -1.37612,0.479711 -1.26134,0.513364 -1.82616,-0.535441 -0.9602,-1.782985 -3.10731,-2.152144 -4.48785,-0.771608 -1.27499,1.274991 -1.19569,1.916658 0.71832,5.812391 l 1.73669,3.53482 3.12008,-1.46208 c 1.71605,-0.80414 3.46374,-1.80281 3.88376,-2.21927 z m -121.810546,3.04492 c 0,-0.20969 -0.129437,-0.46125 -0.287637,-0.55903 -0.373597,-0.23089 -0.883548,0.27906 -0.652653,0.65266 0.259349,0.41963 0.94029,0.35183 0.94029,-0.0936 z m 42.994791,-1.73903 c 0,-0.56713 -0.76879,-0.48522 -0.8803,0.0938 -0.0681,0.35359 0.0397,0.46135 0.39325,0.39326 0.26788,-0.0516 0.48705,-0.27077 0.48705,-0.48705 z M 46.06071,93.256265 c 0.24862,-0.54566 0.21753,-0.7525 -0.17897,-1.19063 -0.822,-0.908291 -1.98535,-0.521327 -1.98535,0.66038 0,1.27128 1.64325,1.67387 2.16432,0.53025 z m 83.56602,-3.84753 c 0.1587,-0.296538 0.21449,-0.77251 0.12396,-1.057717 -0.19544,-0.615798 -1.35964,-0.97161 -1.9562,-0.597874 -0.53871,0.33749 -0.68879,1.317092 -0.27769,1.81244 0.47938,0.577622 1.76812,0.481819 2.10993,-0.156849 z m 27.11543,-0.60086 0.89895,-0.610855 -0.72953,-1.101968 -0.72954,-1.101969 -0.9772,0.664029 c -1.13111,0.768607 -1.17085,0.952783 -0.43003,1.99317 0.66029,0.927281 0.81626,0.939776 1.96735,0.157593 z M 55.29383,86.793249 c 1.38553,-1.385529 0.69005,-3.512569 -1.27161,-3.889064 -0.73717,-0.141482 -0.98658,-0.03179 -1.81791,0.799545 -0.83134,0.831334 -0.94103,1.080741 -0.79955,1.817908 0.3765,1.961659 2.50354,2.65714 3.88907,1.271611 z M 18.579696,86.408262 c 0.07696,-0.200548 0.0092,-0.495372 -0.150606,-0.655163 -0.381515,-0.381514 -1.015717,0.11845 -0.81471,0.642267 0.184714,0.481358 0.782486,0.489344 0.965316,0.0129 z m 48.732329,-0.458608 c 0,-0.449106 0.30548,-0.939491 0.89587,-1.438121 1.6849,-1.423034 1.9208,-3.517988 0.53713,-4.770186 -0.57912,-0.524098 -2.18395,-0.669758 -3.45256,-0.313368 -0.60327,0.169479 -0.73966,0.09184 -1.01767,-0.579343 -0.43423,-1.048322 -0.18221,-1.336154 1.1699,-1.336154 0.96287,0 1.16943,-0.09432 1.30369,-0.595312 0.41513,-1.549044 0.33769,-1.610661 -1.81916,-1.447538 -1.764025,0.133412 -2.015775,0.09443 -2.252995,-0.348833 -0.34995,-0.653872 -1.14656,-0.376869 -0.96066,0.334043 0.0954,0.364962 -0.20699,0.842644 -1.03701,1.637949 -0.99655,0.954864 -1.1716,1.277864 -1.17076,2.160274 10e-4,1.296739 0.82501,2.68894 1.72468,2.914742 0.37606,0.09439 1.26022,0.09514 1.9648,0.0017 1.257355,-0.166793 1.286475,-0.154417 1.573425,0.668722 0.1608,0.461263 0.29236,0.889057 0.29236,0.950653 0,0.06159 -0.68113,0.08044 -1.513625,0.04188 l -1.51362,-0.07011 -0.18495,0.90429 c -0.10172,0.49736 -0.11905,1.010905 -0.0385,1.141213 0.0805,0.130307 1.08127,0.182805 2.223865,0.116662 1.86406,-0.107909 2.09375,-0.06888 2.23621,0.379973 0.2359,0.743254 1.0396,0.470276 1.0396,-0.353102 z m -1.41274,-3.290247 c -0.45521,-0.999053 -0.38551,-1.178176 0.45838,-1.178176 0.94485,0 1.27194,0.679614 0.65513,1.36118 -0.58574,0.647239 -0.74733,0.62068 -1.11351,-0.183004 z M 61.90209,79.778353 c -0.37341,-0.449942 0.0531,-1.472122 0.61427,-1.472122 0.40321,0 1.03619,1.248875 0.81465,1.607327 -0.23,0.372161 -1.07413,0.292289 -1.42892,-0.135205 z m 116.54208,6.718371 c 0.21113,-0.341619 -0.37637,-1.095071 -0.6986,-0.895924 -0.12903,0.07975 -0.23461,0.376092 -0.23461,0.658546 0,0.542267 0.6436,0.705977 0.93321,0.237378 z m -33.43164,-2.807542 c 0.60039,-0.543344 0.6151,-1.095213 0.046,-1.724096 -0.53741,-0.593826 -1.23975,-0.620507 -1.79218,-0.06808 -0.77602,0.776022 -0.22894,2.230059 0.83906,2.230059 0.23281,0 0.64103,-0.197047 0.90715,-0.437882 z m -20.41487,-1.951487 c 0.24456,-0.590414 0.45335,-0.764421 0.76205,-0.635099 0.23387,0.09797 0.98529,0.237863 1.66984,0.310876 1.12082,0.119546 1.32479,0.05259 2.05052,-0.673142 0.62641,-0.626412 0.80589,-1.038913 0.80589,-1.852182 0,-0.602512 -0.16663,-1.184581 -0.39286,-1.372339 -0.33663,-0.279373 -0.27034,-0.408347 0.46302,-0.900929 0.69645,-0.467793 0.87073,-0.776354 0.93557,-1.656457 0.0695,-0.942762 -0.0389,-1.193422 -0.84423,-1.953033 -0.88588,-0.835584 -0.90822,-0.9018 -0.5427,-1.608626 0.48472,-0.937341 0.4828,-0.95504 -0.13926,-1.287956 -0.44819,-0.239864 -0.58604,-0.150702 -0.99279,0.642127 -0.35976,0.701248 -0.5659,0.862836 -0.86495,0.678011 -0.32687,-0.202011 -0.33924,-0.384095 -0.0739,-1.087081 0.54844,-1.453003 -0.40661,-1.881413 -1.11978,-0.502298 -0.46493,0.899073 -0.5406,0.919711 -1.45521,0.396875 -1.4566,-0.832667 -2.44674,0.02523 -1.20065,1.040295 l 0.67174,0.547203 -1.31073,2.778125 c -1.22053,2.586939 -1.36057,2.774222 -2.03491,2.721412 -0.71922,-0.05632 -1.41712,0.310666 -1.41712,0.74519 0,0.124745 0.47625,0.469774 1.05834,0.766732 0.58208,0.296955 1.05833,0.602945 1.05833,0.679974 0,0.07703 -0.18982,0.507127 -0.42183,0.955775 -0.34856,0.674048 -0.36005,0.854872 -0.0661,1.041141 0.62298,0.394831 0.9443,0.254387 1.28172,-0.560225 0.31024,-0.748982 0.76406,-0.999832 1.13597,-0.627913 0.0912,0.09121 -0.022,0.529064 -0.25156,0.973009 -0.38671,0.747809 -0.38307,0.832283 0.0495,1.148604 0.5807,0.424623 0.76166,0.316598 1.18609,-0.708069 z m -0.2041,-2.762082 -0.86219,-0.381186 0.58418,-1.202431 c 0.32131,-0.661337 0.72145,-1.202431 0.88922,-1.202431 0.43535,0 2.00029,1.105223 2.34147,1.653645 0.72776,1.169797 -1.19777,1.908267 -2.95268,1.132403 z m 1.86834,-3.703802 -0.84593,-0.367876 0.42305,-1.076976 c 0.47245,-1.202751 0.57478,-1.244233 1.67099,-0.677363 1.08483,0.56099 1.39203,1.228492 0.89316,1.94073 -0.45979,0.656436 -0.95299,0.698237 -2.14127,0.181485 z m 13.16941,1.99644 c 0.95442,-0.954411 0.99775,-1.93673 0.12397,-2.810503 -1.09756,-1.097561 -2.71622,-0.782534 -3.30694,0.643606 -0.40338,0.973846 0.0471,2.092679 1.04596,2.597922 0.96828,0.489769 1.27887,0.427126 2.13701,-0.431025 z M 44.29327,76.983314 c 0,-0.214295 -0.20837,-0.429754 -0.46303,-0.478797 -0.32487,-0.06256 -0.46302,0.0803 -0.46302,0.478797 0,0.398502 0.13815,0.541363 0.46302,0.478798 0.25466,-0.04904 0.46303,-0.264501 0.46303,-0.478798 z m 42.524035,-1.065459 c 0.40618,-0.658763 0.87694,-1.857666 1.04612,-2.664228 0.2722,-1.29772 0.24917,-1.585722 -0.20003,-2.502697 -1.01128,-2.064347 -2.82084,-2.217758 -4.03703,-0.342252 -0.57202,0.882114 -0.67495,0.93343 -1.35633,0.676231 -1.73836,-0.656156 -3.27068,0.989841 -2.65583,2.852858 0.49575,1.502132 1.79237,2.470635 4.10198,3.063946 1.66128,0.426763 2.30935,0.20026 3.10112,-1.083858 z m 8.61991,-1.368707 c 0.56436,-0.564359 0.38433,-1.780063 -0.31049,-2.096642 -0.9007,-0.410388 -1.75326,0.09904 -1.75326,1.047618 0,0.872659 0.4303,1.366524 1.19063,1.366524 0.30559,0 0.6985,-0.142875 0.87312,-0.3175 z m 15.973225,-0.120382 c 0.54948,-0.497266 0.64082,-1.680573 0.16636,-2.155034 -0.52627,-0.526268 -1.72728,-0.377294 -2.18104,0.270538 -0.54435,0.777164 -0.51955,1.15638 0.11729,1.793212 0.64382,0.643823 1.25439,0.673197 1.89739,0.09128 z"
         id="path931" />
    </g>
  </g>
</svg>
