<?xml version="1.0" encoding="UTF-8" standalone="no"?>
<svg
   xmlns:dc="http://purl.org/dc/elements/1.1/"
   xmlns:cc="http://creativecommons.org/ns#"
   xmlns:rdf="http://www.w3.org/1999/02/22-rdf-syntax-ns#"
   xmlns:svg="http://www.w3.org/2000/svg"
   xmlns="http://www.w3.org/2000/svg"
   xmlns:sodipodi="http://sodipodi.sourceforge.net/DTD/sodipodi-0.dtd"
   xmlns:inkscape="http://www.inkscape.org/namespaces/inkscape"
   width="680"
   height="244.99995"
   viewBox="0 0 179.91667 64.822906"
   version="1.1"
   id="svg8"
   inkscape:version="1.0.2 (1.0.2+r75+1)"
   sodipodi:docname="oi-home-banner.svg">
  <defs
     id="defs2" />
  <sodipodi:namedview
     id="base"
     pagecolor="#ffffff"
     bordercolor="#666666"
     borderopacity="1.0"
     inkscape:pageopacity="0.0"
     inkscape:pageshadow="2"
     inkscape:zoom="0.96201638"
     inkscape:cx="121.15811"
     inkscape:cy="98.086221"
     inkscape:document-units="mm"
     inkscape:current-layer="layer1"
     inkscape:document-rotation="0"
     showgrid="false"
     inkscape:window-width="1920"
     inkscape:window-height="1031"
     inkscape:window-x="1366"
     inkscape:window-y="0"
     inkscape:window-maximized="1"
     fit-margin-top="0"
     fit-margin-left="0"
     fit-margin-right="0"
     fit-margin-bottom="0"
     units="px"
     lock-margins="true" />
  <metadata
     id="metadata5">
    <rdf:RDF>
      <cc:Work
         rdf:about="">
        <dc:format>image/svg+xml</dc:format>
        <dc:type
           rdf:resource="http://purl.org/dc/dcmitype/StillImage" />
        <dc:title></dc:title>
      </cc:Work>
    </rdf:RDF>
  </metadata>
  <g
     inkscape:label="Layer 1"
     inkscape:groupmode="layer"
     id="layer1"
     transform="translate(-13.469304,-63.75415)">
    <rect
       style="fill:#79a6ab;fill-opacity:1;stroke-width:0.600001;stroke-linecap:square;stroke-dashoffset:0.0925984"
       id="rect962"
       width="179.91667"
       height="64.822906"
       x="13.469304"
       y="63.75415" />
    <path
       id="path931"
       style="fill:#1d5655;fill-opacity:1;stroke-width:0.999999"
       d="M 0 0 L 0 122.5 L 0 245 L 340 245 L 680 245 L 680 122.5 L 680 0 L 340 0 L 0 0 z M 430.00977 19.833984 C 431.26567 19.945835 431.8984 21.809376 430.73242 24.898438 C 429.72956 27.555392 429.7763 28.244306 431.01172 29.007812 C 432.14199 29.706364 432.92153 29.095699 434.28125 26.445312 C 435.81857 23.448793 436.33926 23.111006 438.0332 24.017578 C 440.3843 25.275843 440.39061 25.342059 438.55859 28.884766 C 437.1771 31.556234 437.26312 31.806731 440.61133 34.964844 C 443.6551 37.835814 444.06346 38.784461 443.80078 42.347656 C 443.55572 45.67403 442.89788 46.839385 440.26562 48.607422 C 437.49387 50.469164 437.24332 50.955832 438.51562 52.011719 C 439.37067 52.721363 440 54.922016 440 57.199219 C 440 60.272995 439.32066 61.831685 436.95312 64.199219 C 434.21021 66.942211 433.4393 67.195945 429.20312 66.744141 C 426.61585 66.46816 423.7765 65.938753 422.89258 65.568359 C 421.72584 65.079591 420.93604 65.737279 420.01172 67.96875 C 418.40757 71.841519 417.72407 72.249394 415.5293 70.644531 C 413.89439 69.448991 413.88022 69.131056 415.3418 66.304688 C 416.20943 64.626804 416.63766 62.971646 416.29297 62.626953 C 414.88732 61.221309 413.17256 62.169209 412 65 C 410.72471 68.078841 409.51082 68.609458 407.15625 67.117188 C 406.04526 66.413175 406.08886 65.729231 407.40625 63.181641 C 408.28314 61.485956 409 59.861336 409 59.570312 C 409 59.279175 407.19999 58.122369 405 57 C 402.79997 55.877631 401 54.573059 401 54.101562 C 401 52.459282 403.63716 51.072369 406.35547 51.285156 C 408.90416 51.484753 409.43385 50.777415 414.04688 41 L 419 30.5 L 416.46289 28.431641 C 411.75326 24.595174 415.49474 21.352912 421 24.5 C 424.45679 26.476073 424.74278 26.398071 426.5 23 C 427.67926 20.719574 429.03295 19.746989 430.00977 19.833984 z M 272.04102 20.212891 C 275.16413 19.95185 278.268 22.056543 280.41797 26.445312 C 282.11573 29.911045 282.20262 30.999528 281.17383 35.904297 C 280.53441 38.95272 278.75587 43.482843 277.2207 45.972656 C 274.22819 50.826027 271.77885 51.683264 265.5 50.070312 C 256.77077 47.827866 251.86979 44.167584 249.99609 38.490234 C 247.67225 31.44891 253.46498 25.227072 260.03516 27.707031 C 262.61045 28.679122 262.99819 28.484365 265.16016 25.150391 C 267.17118 22.04916 269.61193 20.415922 272.04102 20.212891 z M 367.17578 30.998047 C 368.57218 30.947105 369.93057 31.329012 370.80078 32.199219 C 372.59402 33.992457 372.24865 38.466273 370.17188 40.345703 C 367.74164 42.545074 365.43334 42.433347 363 40 C 360.59305 37.593076 360.49925 36.159969 362.55664 33.222656 C 363.52133 31.845376 365.38041 31.063544 367.17578 30.998047 z M 306.1543 32.335938 C 306.9351 32.317533 307.7759 32.487232 308.62695 32.875 C 311.25304 34.071519 311.9338 38.667771 309.80078 40.800781 C 309.1408 41.460781 307.65499 42 306.5 42 C 303.62631 42 302 40.134176 302 36.835938 C 302 34.147055 303.81188 32.391152 306.1543 32.335938 z M 427.67188 34.179688 C 426.39011 34.102084 425.8211 35.229168 424.70508 38.070312 L 423.10547 42.140625 L 426.30273 43.53125 C 430.79387 45.484328 432.6587 45.326721 434.39648 42.845703 C 436.28198 40.15378 435.11968 37.630043 431.01953 35.509766 C 429.46585 34.706328 428.44093 34.226249 427.67188 34.179688 z M 470.46094 37.980469 C 472.53949 37.846946 474.73006 38.640213 476.54492 40.455078 C 479.8474 43.757527 479.68343 47.46893 476.07617 51.076172 C 472.83281 54.319573 471.65964 54.556177 468 52.705078 C 464.22478 50.79551 462.52229 46.567397 464.04688 42.886719 C 465.30274 39.854768 467.78852 38.15214 470.46094 37.980469 z M 184.06445 41.566406 C 184.75039 41.602692 185.48252 42.03419 185.97852 42.960938 C 186.8751 44.636262 187.82696 44.783531 194.49414 44.279297 C 202.64601 43.662769 202.93814 43.895361 201.36914 49.75 C 200.8617 51.643619 200.08255 52 196.44336 52 C 191.33302 52 190.3803 53.088627 192.02148 57.050781 C 193.07223 59.587373 193.58711 59.880789 195.86719 59.240234 C 200.66193 57.893249 206.72722 58.442978 208.91602 60.423828 C 214.14563 65.156553 213.25484 73.074706 206.88672 78.453125 C 204.65532 80.337711 203.5 82.191248 203.5 83.888672 L 203.5 83.890625 C 203.5 87.002612 200.4619 88.033781 199.57031 85.224609 C 199.03188 83.528093 198.16441 83.381214 191.11914 83.789062 C 186.80067 84.03904 183.0191 83.840166 182.71484 83.347656 C 182.4104 82.855146 182.47492 80.912989 182.85938 79.033203 L 183.55859 75.617188 L 189.2793 75.880859 C 192.42573 76.026371 195 75.955475 195 75.722656 C 195 75.489837 194.50228 73.874242 193.89453 72.130859 C 192.81 69.019779 192.70143 68.971175 187.94922 69.601562 C 185.28624 69.953437 181.94281 69.952491 180.52148 69.595703 C 177.12116 68.742286 174.00769 63.47919 174.00391 58.578125 C 174.00073 55.243032 174.66125 54.022982 178.42773 50.414062 C 181.56482 47.408166 182.70822 45.60204 182.34766 44.222656 C 181.90852 42.543337 182.92122 41.50593 184.06445 41.566406 z M 421.55078 47 C 420.91669 47 419.40581 49.04538 418.19141 51.544922 L 415.98242 56.089844 L 419.24219 57.529297 C 425.87492 60.461681 433.15098 57.671291 430.40039 53.25 C 429.11089 51.177231 423.1962 47 421.55078 47 z M 114.32227 48.138672 C 114.45405 48.143595 114.59652 48.159897 114.75 48.189453 C 115.71249 48.374812 116.5 49.190059 116.5 50 C 116.5 50.809915 115.71249 51.62535 114.75 51.810547 C 113.52214 52.046994 113 51.506142 113 50 C 113 48.682129 113.39976 48.104211 114.32227 48.138672 z M 185.375 55 C 183.25404 55 181.64142 58.863892 183.05273 60.564453 C 184.39367 62.180163 187.58383 62.480808 188.45312 61.074219 C 189.29044 59.719447 186.89894 55 185.375 55 z M 199.89258 67 C 196.70307 67 196.43968 67.677188 198.16016 71.453125 C 199.54414 74.490694 200.15532 74.590755 202.36914 72.144531 C 204.70039 69.568519 203.46366 67 199.89258 67 z M 493.98047 67.076172 C 495.15898 67.12095 496.33013 67.705927 497.3457 68.828125 C 499.49663 71.204994 499.44107 73.292097 497.17188 75.345703 C 496.16607 76.255927 494.6221 77 493.74219 77 C 489.70565 77 487.63928 71.505255 490.57227 68.572266 C 491.61623 67.528341 492.80196 67.031394 493.98047 67.076172 z M 151.46289 72.183594 C 151.99216 72.170832 152.57495 72.245224 153.27148 72.378906 C 160.68563 73.801861 163.31282 81.839523 158.07617 87.076172 C 152.83952 92.312821 144.8019 89.685632 143.37891 82.271484 C 142.84418 79.485368 143.25832 78.542463 146.40039 75.400391 C 148.75692 73.043836 149.87508 72.221879 151.46289 72.183594 z M 621.38281 82.447266 C 622.6128 82.505763 624.22557 84.827264 623.52734 85.957031 C 622.43275 87.728118 620 87.108118 620 85.058594 C 620 83.991066 620.39905 82.871541 620.88672 82.570312 C 621.03895 82.476231 621.2071 82.438909 621.38281 82.447266 z M 17.548828 82.638672 C 17.964449 82.633358 18.385607 82.786002 18.746094 83.146484 C 19.350085 83.750415 19.605326 84.863109 19.314453 85.621094 C 18.623442 87.421812 16.364147 87.391579 15.666016 85.572266 C 15.096232 84.087422 16.301967 82.654615 17.548828 82.638672 z M 465.5293 83.478516 C 469.09538 83.66169 472.55629 85.762126 474.59766 89.552734 C 476.73241 93.516703 476.29892 93.389249 481.5 91.576172 C 486.65176 89.780254 490.14223 90.497256 493.54297 94.046875 C 497.43573 98.109905 497.36958 104.10178 493.38672 108.05078 C 491.79924 109.6248 485.19289 113.39823 478.70703 116.4375 L 466.91406 121.96484 L 460.35156 108.60352 C 453.11751 93.879497 452.81786 91.455579 457.63672 86.636719 C 459.9195 84.353936 462.75568 83.336047 465.5293 83.478516 z M 539.38672 84.052734 L 542.14453 88.216797 L 544.90039 92.382812 L 541.50391 94.691406 C 537.15333 97.647677 536.56394 97.600383 534.06836 94.095703 C 531.26841 90.16352 531.4183 89.467445 535.69336 86.5625 L 539.38672 84.052734 z M 434.09766 90.134766 C 436.32102 90.026163 438.93428 91.219269 439.48828 92.964844 C 439.83044 94.042803 439.61934 95.84211 439.01953 96.962891 C 437.72765 99.376761 432.85675 99.737818 431.04492 97.554688 C 429.49116 95.682499 430.05963 91.980631 432.0957 90.705078 C 432.65938 90.351938 433.35653 90.170966 434.09766 90.134766 z M 230.66602 99.773438 L 232.33398 112.27344 C 234.3312 127.25 234.37372 128.99477 232.75 129.01367 C 232.06254 129.02119 230.57095 129.27702 229.43555 129.58203 C 227.51921 130.09673 227.1429 129.11562 224.1875 115.90039 C 222.43641 108.07031 221.15017 101.51584 221.33008 101.33594 C 221.51006 101.15596 223.68489 100.73003 226.16211 100.39062 L 230.66602 99.773438 z M 118.76367 105.10742 C 119.99166 105.11768 121.33887 105.71657 122.50391 107.00391 C 124.00249 108.65983 124.11935 109.44157 123.17969 111.50391 C 121.21029 115.82625 115 114.30484 115 109.5 C 115 106.70856 116.71702 105.09033 118.76367 105.10742 z M 164.95312 110.66992 C 165.39258 110.68645 165.71687 110.83783 166.05859 111.05273 C 167.23879 111.79496 166.32364 114.26811 160.99609 124.72852 L 154.49219 137.5 L 139.74609 137.77734 C 119.46995 138.15787 119.56548 137.52164 141.88477 123.6582 C 158.97564 113.0424 163.04881 110.5983 164.95312 110.66992 z M 194.2832 111.5332 C 194.94418 111.58 195.5 112.04855 195.5 112.98633 C 195.5 113.80376 194.67066 114.63115 193.6582 114.82617 C 192.32195 115.08352 191.91644 114.67625 192.17383 113.33984 C 192.4109 112.10886 193.43338 111.47304 194.2832 111.5332 z M 31.085938 117.22852 C 31.365073 117.21712 31.647356 117.28169 31.912109 117.44531 C 32.510031 117.81487 33 118.76606 33 119.55859 C 33 121.24211 30.425529 121.49811 29.445312 119.91211 C 28.736265 118.76483 29.876352 117.27791 31.085938 117.22852 z M 170.06641 118.62109 C 171.6515 118.71341 182 135.33024 182 137.93359 C 182 139.39174 177.0743 142.95495 162.62891 151.94531 C 151.97529 158.57578 143.04632 164 142.78516 164 C 141.69733 164 129 145.19321 129 143.58203 C 129 143.29169 135.40956 142.93004 143.24414 142.77734 L 157.49023 142.5 L 163.29883 131 C 166.49442 124.675 169.4842 119.12392 169.94141 118.66406 C 169.97366 118.63162 170.01527 118.61812 170.06641 118.62109 z M 521.53711 121.14453 C 525.38797 121.02436 529 124.14037 529 129 C 529 131.97339 528.3976 133.32907 526.36523 134.92773 C 518.57752 141.05357 509.43759 130.47253 516.45508 123.45508 C 517.9869 121.92326 519.78672 121.19916 521.53711 121.14453 z M 231.2832 132.03125 C 234.28933 131.85175 238 134.11867 238 137.32812 C 238 138.24731 237.10003 139.90001 236 141 C 233.50888 143.49109 230.81067 143.55464 228.6543 141.17188 C 226.75399 139.07205 226.55199 136.70486 228.03516 133.93359 C 228.69551 132.69971 229.91678 132.11284 231.2832 132.03125 z M 572.2793 132.75977 L 573.5918 135.87891 C 574.61212 138.3056 575.52492 139.00259 577.70117 139.02148 L 580.5 139.04492 L 578.10742 140.88477 C 576.2321 142.32669 575.85814 143.29412 576.37695 145.36133 C 577.02136 147.9288 575.7565 149.03308 574.5 147 C 574.16007 146.45 573.15625 146 572.26953 146 C 571.38278 146 569.83393 146.74407 568.82812 147.6543 C 566.74991 149.53507 566.59956 149.18098 567.95898 145.60547 C 568.77234 143.46618 568.52315 142.77068 566.32422 141.04102 L 563.73047 139 L 566.91797 139 C 569.58718 139 570.28035 138.49231 571.19141 135.87891 L 572.2793 132.75977 z M 466.3418 139.5 C 482.58219 139.32072 498.60664 153.6084 495.02539 166.9082 C 493.76065 171.6051 488.58357 176.46589 483.27734 177.93945 C 477.69181 179.49057 472.17862 179.17922 466 176.96094 C 462.97502 175.87489 460.27515 174.90655 460 174.81055 C 459.725 174.71447 457.70003 175.16552 455.5 175.8125 C 450.69966 177.2243 449.93837 177.2458 448.01758 176.03125 C 446.77937 175.24832 447.01388 174.59443 449.44336 172.05859 L 452.35156 169.02344 L 450.11719 164.25 C 444.63906 152.55391 449.27083 142.5378 461.31641 140.03711 C 462.97965 139.69182 464.66176 139.51855 466.3418 139.5 z M 531.08594 151.99805 C 532.05823 151.95237 533 152.70606 533 154 C 533 155.09999 532.35116 156 531.55859 156 C 529.79212 156 528.66295 154.35436 529.5 153 C 529.90781 152.34015 530.50256 152.02546 531.08594 151.99805 z M 224.81836 154.23828 C 230.4616 154.31319 236 158.74757 236 165.45312 C 236 172.32283 232.09556 176.74794 225.59375 177.24219 C 223.10546 177.43135 222.3358 178.2525 220.25781 182.95117 C 217.9797 188.10244 217.92674 188.60712 219.41406 191.125 C 220.28589 192.60083 221 195.38568 221 197.31445 C 221 201.66288 216.42902 206 211.8457 206 C 207.77576 206 203 201.21314 203 197.13477 C 203 194.62951 201.99303 193.34205 197.07617 189.55859 C 188.91751 183.28065 187.59814 183.48032 183.98242 191.53906 C 181.59127 196.86842 181.16166 198.90558 181.66211 202.55664 C 182.14264 206.06268 181.88805 207.46654 180.48438 209.01758 C 178.33367 211.39403 174.27466 211.58106 171.22266 209.44336 C 167.97037 207.16536 168.18398 201.78665 171.63477 199.07227 C 173.08395 197.93232 174.81608 197 175.48438 197 C 176.15271 197 177.96577 194.02101 179.51367 190.37891 C 181.79843 185.00306 182.10932 183.40421 181.16406 181.89062 C 180.52366 180.8652 180 179.10121 180 177.96875 C 180 175.29723 184.31627 171 187 171 C 190.0216 171 194 175.38545 194 178.7168 C 194 180.93273 195.15717 182.43053 199.48242 185.80859 C 204.02315 189.35496 205.2991 189.91028 206.91602 189.04492 C 207.9897 188.47032 209.80419 188 210.94727 188 C 213.7251 188 218.73845 177.32199 217.05078 175 C 212.44947 168.66925 212.31678 163.15302 216.64453 158.00977 C 218.87744 155.35611 221.86238 154.19904 224.81836 154.23828 z M 224.42969 159.01562 C 222.84445 159.0736 221.27149 159.72851 220 161 C 217.12249 163.87751 217.41109 168.39197 220.63477 170.92773 C 223.85371 173.45994 226.1289 173.54886 228.8457 171.25 C 232.03513 168.55119 232.47482 164.8731 229.98438 161.70703 C 228.52623 159.8533 226.46786 158.94108 224.42969 159.01562 z M 514.36914 174.05273 C 519.4162 174.06783 525.80985 175.48105 528.30273 177.75195 C 530.0296 179.32507 532.37623 179.864 539.26562 180.26758 C 544.08656 180.54998 548.69906 181.336 549.51562 182.01367 C 552.117 184.17261 550.7643 208.27246 547.94141 210.05859 C 546.16911 211.17994 541.68974 211.07891 522.5625 209.49219 C 503.20909 207.88672 504.08666 208.84646 505.4668 190.80859 C 506.12553 182.19909 506.99809 176.70574 507.87305 175.65234 C 508.79813 174.53863 511.34091 174.04368 514.36914 174.05273 z M 110.60547 176.29883 C 111.20056 176.10044 115.39675 184.27438 119.92969 194.46289 C 124.46255 204.6514 128.02038 213.35523 127.83594 213.80469 C 127.52329 214.56607 87.309134 210.64312 86.431641 209.76562 C 86.211937 209.54592 89.246105 204.89457 93.173828 199.43164 C 97.101589 193.96871 102.38734 186.61144 104.91992 183.08008 C 107.45251 179.54871 110.01038 176.49725 110.60547 176.29883 z M 187 176.5 C 186.19009 176.5 185.37465 177.28751 185.18945 178.25 C 184.95301 179.47786 185.49386 180 187 180 C 188.50614 180 189.04715 179.47786 188.81055 178.25 C 188.6252 177.28751 187.80995 176.5 187 176.5 z M 145.19922 187.50391 C 145.8436 187.51531 146.4114 187.91016 146.66992 188.58398 C 147.37454 190.42012 146.01697 191.9389 144.25 191.29102 C 142.50575 190.65141 142.6868 188.33307 144.53711 187.62305 C 144.7599 187.53755 144.98443 187.5001 145.19922 187.50391 z M 212 192 C 209.08251 192 206.5674 196.32247 207.96484 198.93359 C 208.6966 200.30088 210.06212 201 212 201 C 216.03007 201 217.75762 197.80463 215.54883 194.43359 C 214.67205 193.09545 213.07463 192 212 192 z M 246.1582 194.23633 C 247.045 194.24922 247.88763 194.49215 248.51367 195.01172 C 250.30419 196.49787 250.45856 200.143 248.80078 201.80078 C 245.5683 205.03326 240.10195 201.40654 241.51172 196.96484 C 242.04359 195.28904 244.20724 194.20796 246.1582 194.23633 z M 428.79883 196.00391 C 431.90518 195.99888 436.70834 198.58651 437.9707 200.94531 C 438.53703 202.00343 439 204.50267 439 206.5 C 439 211.17614 437.64996 213.61287 434.01953 215.49023 C 429.40307 217.8775 425.25437 217.40863 421.97461 214.12891 C 418.35934 210.51364 417.40812 206.84316 419.05664 202.86328 C 420.49237 199.39711 425.3028 196.01147 428.79883 196.00391 z M 175.07812 202.21289 C 174.60394 202.26631 174.15629 202.44333 173.82031 202.7793 C 173.24545 203.35443 173.09212 204.34037 173.48047 204.96875 C 174.36405 206.39836 177.19343 205.92169 177.75 204.25 C 178.16009 203.01846 176.50068 202.05262 175.07812 202.21289 z M 404.53906 212.30859 C 407.86556 212.58815 410.35031 217.25125 407.80078 219.80078 C 406.143 221.45867 402.49591 221.30434 401.00977 219.51367 C 399.3151 217.47171 400.54549 213.27915 403.07422 212.47656 C 403.5716 212.3187 404.06385 212.26866 404.53906 212.30859 z "
       transform="matrix(0.26458333,0,0,0.26458333,13.469304,63.75415)" />
  </g>
  <g
     inkscape:groupmode="layer"
     id="layer2"
     inkscape:label="Layer 2"
     style="display:inline">
    <g
       id="g1102"
       transform="matrix(0.729,0,0,0.729,10.838345,-36.584691)">
      <g
         id="g68"
         transform="matrix(0.28222222,0,0,-0.28222222,109.68213,104.87998)">
        <path
           d="m 0,0 c -2.383,-0.854 -4.95,-1.323 -7.628,-1.323 -2.677,0 -5.245,0.469 -7.628,1.323 l -21.756,-29.61 14.768,33.653 c -0.013,0.012 -0.026,0.026 -0.04,0.038 0.296,0.9 -0.067,1.914 -0.92,2.407 -0.523,0.301 -1.12,0.339 -1.652,0.166 -0.004,0.005 -0.009,0.01 -0.013,0.015 L -58.522,-8.1 -28.913,13.656 c -0.005,0.017 -0.009,0.034 -0.015,0.051 0.711,0.631 0.907,1.695 0.412,2.551 -0.302,0.523 -0.801,0.855 -1.348,0.971 -0.002,0.006 -0.003,0.012 -0.004,0.019 l -36.528,4.036 36.528,4.037 c 0.002,0.018 0.008,0.035 0.011,0.053 0.929,0.193 1.627,1.015 1.627,2.001 0,0.606 -0.269,1.145 -0.688,1.519 0.002,0.006 0.003,0.013 0.005,0.019 L -58.522,50.668 -24.869,35.9 c 0.012,0.014 0.025,0.026 0.037,0.04 0.9,-0.296 1.915,0.067 2.407,0.92 0.302,0.523 0.34,1.12 0.167,1.652 0.005,0.004 0.01,0.009 0.014,0.013 l -14.768,33.654 21.756,-29.61 c 0.016,0.006 0.034,0.01 0.051,0.016 0.631,-0.712 1.695,-0.907 2.551,-0.413 0.522,0.302 0.854,0.801 0.97,1.349 0.007,10e-4 0.013,0.003 0.02,0.004 l 4.036,36.527 4.037,-36.527 c 0.018,-0.003 0.035,-0.008 0.053,-0.012 0.193,-0.928 1.015,-1.626 2.001,-1.626 0.606,0 1.144,0.269 1.519,0.687 C -0.012,42.572 -0.006,42.571 0,42.569 L 21.756,72.179 6.988,38.525 C 7.002,38.513 7.014,38.5 7.028,38.488 6.732,37.588 7.095,36.574 7.948,36.081 8.47,35.78 9.068,35.742 9.6,35.914 9.604,35.909 9.609,35.905 9.613,35.9 L 43.266,50.668 13.657,28.913 c 0.006,-0.017 0.01,-0.035 0.016,-0.051 -0.712,-0.631 -0.907,-1.696 -0.413,-2.551 0.302,-0.523 0.801,-0.855 1.348,-0.971 0.002,-0.006 0.004,-0.012 0.005,-0.019 L 51.14,21.284 14.613,17.248 c -0.004,-0.018 -0.009,-0.036 -0.012,-0.054 -0.928,-0.193 -1.627,-1.015 -1.627,-2.001 0,-0.606 0.269,-1.144 0.688,-1.519 -0.002,-0.006 -0.003,-0.012 -0.005,-0.018 L 43.266,-8.1 9.613,6.669 C 9.601,6.655 9.588,6.642 9.576,6.628 8.676,6.924 7.661,6.561 7.169,5.708 6.867,5.186 6.83,4.588 7.002,4.057 6.997,4.052 6.993,4.048 6.988,4.043 L 21.756,-29.61 Z m 20.39,-48.61 v 0.548 c 27.21,11.065 46.404,37.744 46.404,68.93 0,42.069 -34.906,75.985 -77.335,74.366 -38.479,-1.468 -69.867,-32.761 -71.445,-71.236 -1.333,-32.521 18.223,-60.627 46.341,-72.061 v -0.374 c 6.005,-2.193 12.204,-3.73 18.426,-4.525 V -25.9 c 0,1.567 1.275,2.841 2.842,2.841 h 13.498 c 1.567,0 2.842,-1.274 2.842,-2.842 V -52.97 c 6.157,0.771 12.36,2.253 18.427,4.36"
           style="fill:#dae258;fill-opacity:1;fill-rule:nonzero;stroke:none"
           id="path70" />
      </g>
      <g
         id="g72"
         transform="matrix(0.28222222,0,0,-0.28222222,130.09737,75.801948)">
        <path
           d="m 0,0 c -22.788,21.935 -52.787,33.343 -84.47,32.141 -59.635,-2.281 -108.273,-50.77 -110.718,-110.394 -2.014,-49.143 27.354,-94.225 73.079,-112.182 7.711,-3.027 16.15,-2.221 22.575,2.16 6.341,4.322 9.978,11.583 9.978,19.922 v 12.359 c -6.223,0.795 -12.422,2.332 -18.427,4.525 v -16.884 c 0,-1.543 -0.335,-3.61 -1.929,-4.696 -1.387,-0.945 -3.428,-1.033 -5.461,-0.235 -38.421,15.088 -63.097,52.975 -61.403,94.276 2.053,50.09 42.907,90.824 93.008,92.736 26.635,1.017 51.843,-8.574 70.989,-27.004 19.158,-18.44 29.709,-43.235 29.709,-69.818 0,-19.917 -5.998,-39.046 -17.344,-55.316 -11.096,-15.912 -26.481,-28.018 -44.493,-35.01 -2.068,-0.803 -4.098,-0.792 -5.296,0.027 -1.518,1.04 -1.745,3.597 -1.745,5.029 v 16.721 c -6.067,-2.107 -12.27,-3.589 -18.426,-4.359 v -12.362 c 0,-8.739 3.467,-15.924 9.763,-20.234 3.705,-2.536 8.159,-3.829 12.795,-3.829 3.168,0 6.422,0.604 9.577,1.829 21.437,8.322 39.742,22.723 52.939,41.648 13.514,19.377 20.656,42.15 20.656,65.856 C 35.356,-51.456 22.8,-21.946 0,0"
           style="fill:#4aa08c;fill-opacity:1;fill-rule:nonzero;stroke:none"
           id="path74" />
      </g>
    </g>
  </g>
</svg>
