<?xml version="1.0" encoding="UTF-8" standalone="no"?>
<svg
   xmlns:dc="http://purl.org/dc/elements/1.1/"
   xmlns:cc="http://creativecommons.org/ns#"
   xmlns:rdf="http://www.w3.org/1999/02/22-rdf-syntax-ns#"
   xmlns:svg="http://www.w3.org/2000/svg"
   xmlns="http://www.w3.org/2000/svg"
   xmlns:sodipodi="http://sodipodi.sourceforge.net/DTD/sodipodi-0.dtd"
   xmlns:inkscape="http://www.inkscape.org/namespaces/inkscape"
   width="333.06125"
   height="120.00001"
   viewBox="0 0 88.122457 31.750003"
   version="1.1"
   id="svg8"
   inkscape:version="1.0.2 (1.0.2+r75+1)"
   sodipodi:docname="oi-home-banner.svg">
  <defs
     id="defs2" />
  <sodipodi:namedview
     id="base"
     pagecolor="#ffffff"
     bordercolor="#666666"
     borderopacity="1.0"
     inkscape:pageopacity="0.0"
     inkscape:pageshadow="2"
     inkscape:zoom="0.96201638"
     inkscape:cx="-52.311275"
     inkscape:cy="35.586222"
     inkscape:document-units="mm"
     inkscape:current-layer="layer1"
     inkscape:document-rotation="0"
     showgrid="false"
     inkscape:window-width="1920"
     inkscape:window-height="1031"
     inkscape:window-x="1366"
     inkscape:window-y="0"
     inkscape:window-maximized="1"
     fit-margin-top="0"
     fit-margin-left="0"
     fit-margin-right="0"
     fit-margin-bottom="0"
     units="px"
     lock-margins="true" />
  <metadata
     id="metadata5">
    <rdf:RDF>
      <cc:Work
         rdf:about="">
        <dc:format>image/svg+xml</dc:format>
        <dc:type
           rdf:resource="http://purl.org/dc/dcmitype/StillImage" />
        <dc:title></dc:title>
      </cc:Work>
    </rdf:RDF>
  </metadata>
  <g
     inkscape:label="Layer 1"
     inkscape:groupmode="layer"
     id="layer1"
     transform="translate(-59.366413,-80.290608)">
    <rect
       style="fill:#79a6ab;fill-opacity:1;stroke-width:0.293878;stroke-linecap:square;stroke-dashoffset:0.0925984"
       id="rect962"
       width="88.122452"
       height="31.749996"
       x="59.366413"
       y="80.290611" />
    <path
       id="path931"
       style="fill:#1d5655;fill-opacity:1;stroke-width:0.129592"
       d="m 59.366414,80.290608 v 15.875 15.875002 h 44.061226 44.06122 v -15.875002 -15.875 h -44.06122 z m 55.725756,2.570322 c 0.16275,0.0145 0.24475,0.255995 0.0937,0.656312 -0.12996,0.34432 -0.12391,0.433597 0.0362,0.532542 0.14648,0.09053 0.2475,0.01139 0.42371,-0.33208 0.19922,-0.388324 0.2667,-0.432098 0.48622,-0.314614 0.30468,0.163061 0.3055,0.171642 0.0681,0.630748 -0.17903,0.3462 -0.16789,0.378663 0.26602,0.787928 0.39444,0.372055 0.44736,0.494991 0.41332,0.956752 -0.0318,0.431071 -0.11701,0.582092 -0.45813,0.811215 -0.35919,0.241267 -0.39166,0.304335 -0.22678,0.441169 0.11081,0.09196 0.19236,0.377151 0.19236,0.672258 0,0.398336 -0.088,0.60033 -0.39485,0.907143 -0.35546,0.355469 -0.45536,0.388351 -1.00434,0.329801 -0.33528,-0.03577 -0.70324,-0.104372 -0.81779,-0.152372 -0.1512,-0.06334 -0.25355,0.02189 -0.37334,0.311071 -0.20788,0.501879 -0.29646,0.554737 -0.58088,0.346759 -0.21187,-0.154932 -0.21371,-0.196134 -0.0243,-0.562408 0.11244,-0.21744 0.16793,-0.431935 0.12326,-0.476604 -0.18216,-0.18216 -0.40438,-0.05932 -0.55633,0.307527 -0.16527,0.398993 -0.32258,0.467757 -0.62771,0.274371 -0.14398,-0.09124 -0.13833,-0.179868 0.0324,-0.510015 0.11364,-0.219747 0.20653,-0.430285 0.20653,-0.467999 0,-0.03773 -0.23326,-0.187642 -0.51836,-0.333091 -0.28511,-0.14545 -0.51837,-0.314512 -0.51837,-0.375614 0,-0.212826 0.34175,-0.392559 0.69403,-0.364984 0.33028,0.02587 0.39893,-0.0658 0.99674,-1.332872 l 0.64188,-1.360714 -0.32879,-0.268042 c -0.61033,-0.497175 -0.12546,-0.917346 0.58798,-0.509509 0.44797,0.256083 0.48503,0.245974 0.71275,-0.194388 0.15282,-0.295524 0.32825,-0.421564 0.45484,-0.41029 z m -20.471461,0.0491 c 0.40473,-0.03383 0.806966,0.238922 1.085584,0.80767 0.220016,0.449131 0.231276,0.59019 0.09795,1.225808 -0.08286,0.39505 -0.313348,0.982117 -0.512294,1.304777 -0.387805,0.628957 -0.705219,0.740048 -1.518907,0.531023 -1.131237,-0.290603 -1.766364,-0.764946 -2.00918,-1.500684 -0.301151,-0.912498 0.44954,-1.718797 1.300982,-1.397415 0.333736,0.125975 0.383984,0.100736 0.664158,-0.33132 0.260612,-0.401894 0.576913,-0.613548 0.891703,-0.639859 z m 12.328691,1.397668 c 0.18096,-0.0066 0.357,0.04289 0.46977,0.155662 0.23239,0.232389 0.18763,0.812159 -0.0815,1.055718 -0.31494,0.28502 -0.61408,0.270541 -0.92942,-0.0448 -0.31192,-0.311917 -0.32408,-0.497636 -0.0575,-0.878288 0.12502,-0.178484 0.36594,-0.279803 0.59861,-0.288291 z m -7.907888,0.17338 c 0.101185,-0.0024 0.210146,0.01961 0.320435,0.06986 0.34032,0.155059 0.428541,0.750695 0.152119,1.027116 -0.08553,0.08553 -0.278077,0.155409 -0.427754,0.155409 -0.372407,0 -0.583164,-0.241795 -0.583164,-0.66922 0,-0.348457 0.234805,-0.576008 0.538364,-0.583163 z m 15.747688,0.238934 c -0.16611,-0.01006 -0.23985,0.136005 -0.38448,0.504194 l -0.20729,0.527479 0.41434,0.180214 c 0.58201,0.253103 0.82368,0.232678 1.04888,-0.08884 0.24435,-0.348851 0.0937,-0.675907 -0.43762,-0.950677 -0.20135,-0.104119 -0.33417,-0.166334 -0.43383,-0.172368 z m 5.54511,0.492551 c 0.26936,-0.0173 0.55324,0.0855 0.78844,0.320689 0.42797,0.42797 0.40672,0.908938 -0.0607,1.376407 -0.42031,0.420318 -0.57235,0.45098 -1.04661,0.211093 -0.48923,-0.247465 -0.70986,-0.795394 -0.51229,-1.272379 0.16275,-0.392916 0.48489,-0.613563 0.83121,-0.63581 z m -37.114646,0.464708 c 0.08889,0.0047 0.18377,0.06062 0.248048,0.18072 0.116189,0.217108 0.239542,0.236193 1.103554,0.170848 1.056416,-0.0799 1.094274,-0.04975 0.890944,0.708959 -0.06576,0.245397 -0.166731,0.291581 -0.638341,0.291581 -0.662258,0 -0.785723,0.141078 -0.573039,0.65454 0.136169,0.328722 0.202893,0.366746 0.498373,0.283736 0.621359,-0.174559 1.407371,-0.103318 1.691021,0.153384 0.677715,0.613322 0.562276,1.63945 -0.26298,2.336449 -0.289172,0.244227 -0.438892,0.484431 -0.438892,0.704403 v 2.53e-4 c 0,0.403288 -0.393713,0.536919 -0.509255,0.172874 -0.06978,-0.219855 -0.182194,-0.238889 -1.095203,-0.186036 -0.559638,0.0324 -1.049699,0.0066 -1.089129,-0.0572 -0.03945,-0.06383 -0.03109,-0.315513 0.01873,-0.559118 l 0.09061,-0.442688 0.741358,0.03417 c 0.407751,0.01886 0.741356,0.0097 0.741356,-0.0205 0,-0.03017 -0.0645,-0.239539 -0.14326,-0.465468 -0.140546,-0.40317 -0.154616,-0.409469 -0.770464,-0.327776 -0.3451,0.0456 -0.778381,0.04548 -0.962574,-7.59e-4 -0.440654,-0.110596 -0.844134,-0.79265 -0.844624,-1.427788 -4.12e-4,-0.432201 0.08519,-0.59031 0.573291,-1.057996 0.406541,-0.38954 0.554716,-0.623599 0.507991,-0.802356 -0.05691,-0.217626 0.07433,-0.352065 0.222482,-0.344228 z m 30.776286,0.704149 c -0.0822,0 -0.27797,0.265065 -0.43534,0.588985 l -0.28627,0.588985 0.42244,0.186541 c 0.85955,0.380013 1.80246,0.0184 1.44601,-0.554562 -0.16711,-0.268614 -0.9336,-0.809949 -1.14684,-0.809949 z m -39.814303,0.147563 c 0.01708,6.38e-4 0.03554,0.0028 0.05543,0.0066 0.124731,0.02402 0.226786,0.12967 0.226786,0.234632 0,0.104958 -0.102055,0.210632 -0.226786,0.234632 -0.159121,0.03064 -0.226786,-0.03945 -0.226786,-0.234632 0,-0.170786 0.05181,-0.245679 0.171356,-0.241213 z m 9.207853,0.889172 c -0.274859,0 -0.483841,0.500729 -0.300947,0.721108 0.173775,0.209382 0.587194,0.248344 0.699847,0.06606 0.108509,-0.175567 -0.201409,-0.787169 -0.3989,-0.787169 z m 1.88136,1.555102 c -0.413334,0 -0.447467,0.08776 -0.224507,0.577089 0.179352,0.393644 0.258556,0.406611 0.545449,0.0896 0.302111,-0.33383 0.141841,-0.666689 -0.320942,-0.666689 z m 38.11139,0.0099 c 0.15273,0.0058 0.3045,0.08161 0.43611,0.227039 0.27874,0.308023 0.27154,0.578494 -0.0225,0.844625 -0.13034,0.117958 -0.33043,0.214383 -0.44446,0.214383 -0.5231,0 -0.79089,-0.712074 -0.41079,-1.092165 0.13528,-0.135284 0.28894,-0.199685 0.44167,-0.193882 z m -44.387482,0.66188 c 0.06859,-0.0017 0.144114,0.008 0.234378,0.02531 0.960814,0.184404 1.301276,1.226019 0.622649,1.904646 -0.678627,0.678627 -1.720237,0.338165 -1.904645,-0.622648 -0.0693,-0.361058 -0.01563,-0.483251 0.391559,-0.890438 0.305387,-0.30539 0.450292,-0.411909 0.656059,-0.41687 z m 60.897782,1.330089 c 0.1594,0.0076 0.3684,0.308428 0.27792,0.454836 -0.14185,0.229519 -0.45712,0.149172 -0.45712,-0.11643 0,-0.138343 0.0517,-0.283424 0.11491,-0.322461 0.0197,-0.01219 0.0415,-0.01703 0.0643,-0.01595 z m -78.251952,0.0248 c 0.05386,-6.88e-4 0.10844,0.01909 0.155156,0.06581 0.07827,0.07826 0.11135,0.22246 0.07365,0.320689 -0.08955,0.233358 -0.382336,0.22944 -0.472808,-0.0063 -0.07384,-0.192424 0.08241,-0.378104 0.243997,-0.38017 z m 58.054612,0.108837 c 0.46214,0.02374 0.91064,0.295937 1.17519,0.787169 0.27664,0.513698 0.22047,0.497181 0.89448,0.262221 0.66763,-0.232736 1.11997,-0.139818 1.56067,0.320183 0.50447,0.526536 0.4959,1.303034 -0.0203,1.814792 -0.20572,0.20398 -1.06185,0.692986 -1.90236,1.08685 l -1.52828,0.716299 -0.85044,-1.731518 c -0.93748,-1.908114 -0.97631,-2.222234 -0.35182,-2.846719 0.29583,-0.29583 0.66337,-0.42774 1.02281,-0.409277 z m 9.57132,0.07441 0.35739,0.539629 0.35714,0.539881 -0.44016,0.299175 c -0.5638,0.383109 -0.64018,0.37698 -0.96359,-0.0772 -0.36285,-0.509579 -0.34342,-0.599785 0.21059,-0.976242 z m -13.6446,0.788182 c 0.28813,-0.01407 0.62678,0.140543 0.69858,0.366755 0.0443,0.139694 0.017,0.37287 -0.0607,0.518114 -0.16742,0.312818 -0.79865,0.359608 -1.03344,0.07669 -0.20136,-0.24262 -0.12769,-0.722352 0.13617,-0.887653 0.0731,-0.04576 0.16339,-0.06922 0.25944,-0.07391 z m -26.363083,1.249093 0.216154,1.619898 c 0.258823,1.94084 0.264333,2.166948 0.05391,2.169397 -0.08909,9.75e-4 -0.282387,0.03413 -0.429526,0.07366 -0.248342,0.0667 -0.297109,-0.06044 -0.680104,-1.773029 -0.226927,-1.014714 -0.393614,-1.86412 -0.370299,-1.887433 0.02332,-0.02332 0.305164,-0.07852 0.626192,-0.122506 z m -14.501631,0.691241 c 0.159137,0.0013 0.333725,0.07894 0.484704,0.245769 0.194204,0.214594 0.209348,0.315901 0.08758,0.583163 -0.255218,0.56014 -1.060021,0.362978 -1.060021,-0.25969 0,-0.361748 0.222512,-0.571457 0.487741,-0.569242 z m 5.985775,0.720854 c 0.05695,0.0021 0.09898,0.02176 0.14326,0.04961 0.152945,0.09619 0.03435,0.416687 -0.656058,1.772271 l -0.842853,1.655079 -1.910974,0.03594 c -2.627622,0.04931 -2.615242,-0.03314 0.277156,-1.829725 2.214837,-1.375721 2.742686,-1.692456 2.989469,-1.683175 z M 84.54393,94.7444 c 0.08566,0.0061 0.157688,0.06678 0.157688,0.188314 0,0.105932 -0.107476,0.213155 -0.238683,0.238428 -0.173167,0.03335 -0.225717,-0.01943 -0.192362,-0.192616 0.03072,-0.159525 0.163228,-0.241922 0.273357,-0.234126 z m -21.149033,0.738067 c 0.03617,-0.0015 0.07276,0.0069 0.107065,0.02809 0.07749,0.04789 0.140982,0.171159 0.140982,0.273864 0,0.218171 -0.33363,0.251346 -0.460658,0.04581 -0.09189,-0.148679 0.05586,-0.341371 0.212611,-0.347772 z m 18.010735,0.180466 c 0.205415,0.01196 1.546496,2.165369 1.546496,2.502742 0,0.188965 -0.638331,0.650727 -2.510335,1.815805 -1.380622,0.85925 -2.537744,1.56219 -2.571588,1.56219 -0.140974,0 -1.786444,-2.437207 -1.786444,-2.646003 0,-0.03763 0.830626,-0.08449 1.845924,-0.104281 l 1.846177,-0.03594 0.752747,-1.490306 c 0.414122,-0.819669 0.801573,-1.539043 0.860824,-1.598638 0.0042,-0.0042 0.0096,-0.006 0.0162,-0.0056 z m 45.547738,0.327017 c 0.49904,-0.01557 0.96713,0.388236 0.96713,1.018005 0,0.385327 -0.0781,0.561012 -0.34145,0.768185 -1.00922,0.793859 -2.19368,-0.577357 -1.28427,-1.486762 0.19851,-0.198511 0.43175,-0.292348 0.65859,-0.299428 z m -37.614542,1.41083 c 0.38957,-0.02326 0.870443,0.270513 0.870443,0.686431 0,0.11912 -0.116629,0.333296 -0.259184,0.475846 -0.322829,0.322825 -0.672495,0.33106 -0.951943,0.02227 -0.246264,-0.272121 -0.272442,-0.578889 -0.08024,-0.938023 0.08558,-0.159901 0.243842,-0.235954 0.420919,-0.246528 z m 44.190312,0.09441 0.17009,0.404215 c 0.13222,0.31448 0.25052,0.404804 0.53254,0.407252 l 0.3627,0.003 -0.31005,0.23843 c -0.24303,0.186861 -0.29149,0.312232 -0.22426,0.580126 0.0835,0.332723 -0.0804,0.475828 -0.24324,0.212358 -0.044,-0.07128 -0.17414,-0.129592 -0.28905,-0.129592 -0.11491,0 -0.31563,0.09642 -0.44598,0.214384 -0.26931,0.243732 -0.2888,0.197845 -0.11263,-0.265512 0.10541,-0.277234 0.0731,-0.367365 -0.21185,-0.591515 l -0.33613,-0.2645 h 0.41307 c 0.34591,0 0.43574,-0.06579 0.55381,-0.404468 z m -13.72864,0.873479 c 2.10463,-0.02323 4.18126,1.828331 3.71716,3.551881 -0.1639,0.60868 -0.8348,1.2386 -1.52245,1.42956 -0.72384,0.20101 -1.4383,0.16066 -2.239,-0.12681 -0.39201,-0.14074 -0.74189,-0.26623 -0.77755,-0.27867 -0.0356,-0.0125 -0.29806,0.046 -0.58316,0.12984 -0.62209,0.18296 -0.72075,0.18575 -0.96967,0.0283 -0.16046,-0.10146 -0.13007,-0.1862 0.18477,-0.51482 l 0.37688,-0.39333 -0.28955,-0.6186 c -0.70992,-1.51572 -0.10968,-2.813727 1.45132,-3.137796 0.21555,-0.04475 0.43353,-0.0672 0.65125,-0.06961 z m 8.39032,1.619645 c 0.126,-0.0059 0.24804,0.09176 0.24804,0.259436 0,0.14255 -0.0841,0.25918 -0.18679,0.25918 -0.22892,0 -0.37525,-0.21326 -0.26678,-0.38877 0.0528,-0.0855 0.12992,-0.126293 0.20553,-0.129846 z m -39.689782,0.290316 c 0.731318,0.01 1.449049,0.58437 1.449049,1.45335 0,0.89026 -0.505983,1.46372 -1.348565,1.52777 -0.322462,0.0245 -0.422204,0.13093 -0.691494,0.73984 -0.295225,0.66756 -0.302088,0.73296 -0.109343,1.05926 0.112982,0.19125 0.205525,0.55215 0.205525,0.8021 0,0.56352 -0.592362,1.12558 -1.186323,1.12558 -0.527431,0 -1.146331,-0.62034 -1.146331,-1.14887 0,-0.32466 -0.130495,-0.4915 -0.76768,-0.98181 -1.057295,-0.81357 -1.228275,-0.78769 -1.696843,0.25666 -0.309873,0.69064 -0.365547,0.95464 -0.300693,1.42778 0.06227,0.45436 0.02928,0.63629 -0.152624,0.83729 -0.278715,0.30797 -0.804729,0.33221 -1.200243,0.0552 -0.421471,-0.29521 -0.393789,-0.99225 0.05341,-1.34401 0.187802,-0.14773 0.412272,-0.26855 0.498878,-0.26855 0.08661,0 0.321568,-0.38605 0.522163,-0.85804 0.296086,-0.69667 0.336375,-0.90386 0.213877,-1.10001 -0.08299,-0.13289 -0.150853,-0.36149 -0.150853,-0.50824 0,-0.34621 0.559354,-0.9031 0.907143,-0.9031 0.391575,0 0.907143,0.56832 0.907143,1.00004 0,0.28716 0.14996,0.48127 0.710477,0.91903 0.588441,0.45958 0.753794,0.53155 0.963334,0.41941 0.13914,-0.0745 0.374283,-0.13542 0.522417,-0.13542 0.359984,0 1.009673,-1.38378 0.790965,-1.68469 -0.596292,-0.82041 -0.613488,-1.53527 -0.05265,-2.2018 0.289367,-0.34389 0.676191,-0.49384 1.059262,-0.48875 z m -0.05037,0.6191 c -0.205434,0.008 -0.409277,0.0924 -0.574051,0.25716 -0.372902,0.37291 -0.335502,0.95794 0.08226,1.28656 0.417148,0.32815 0.711994,0.33967 1.064069,0.0418 0.413324,-0.34974 0.470305,-0.82639 0.147564,-1.23669 -0.188965,-0.24023 -0.455712,-0.35845 -0.719843,-0.34879 z m 37.573792,1.94869 c 0.65405,0.002 1.48262,0.1851 1.80567,0.47939 0.22379,0.20386 0.5279,0.2737 1.42071,0.326 0.62475,0.0366 1.22249,0.13846 1.32831,0.22628 0.33712,0.27978 0.16182,3.40293 -0.204,3.6344 -0.22968,0.14531 -0.81017,0.13222 -3.2889,-0.0734 -2.50805,-0.20806 -2.39432,-0.0837 -2.21547,-2.42125 0.0854,-1.11572 0.19845,-1.82761 0.31183,-1.96412 0.11989,-0.14433 0.44941,-0.20847 0.84185,-0.2073 z m -52.324481,0.29108 c 0.07712,-0.0257 0.62091,1.03356 1.208342,2.35391 0.587422,1.32035 1.048488,2.44829 1.024586,2.50654 -0.04052,0.0987 -5.251943,-0.40971 -5.365659,-0.52343 -0.02847,-0.0285 0.364731,-0.63125 0.873732,-1.3392 0.509006,-0.70795 1.193996,-1.66139 1.522198,-2.11903 0.328203,-0.45763 0.659682,-0.85308 0.736801,-0.87879 z m 9.900107,0.0261 c -0.104958,0 -0.210632,0.10205 -0.234632,0.22678 -0.03064,0.15912 0.03945,0.22679 0.234632,0.22679 0.195184,0 0.265294,-0.0677 0.234633,-0.22679 -0.02402,-0.12473 -0.12967,-0.22678 -0.234633,-0.22678 z m -5.41704,1.42601 c 0.08351,0.001 0.157089,0.0526 0.190591,0.13997 0.09131,0.23795 -0.08462,0.43477 -0.313602,0.35081 -0.226041,-0.0829 -0.202578,-0.38332 0.03721,-0.47534 0.02887,-0.0111 0.05797,-0.0159 0.0858,-0.0154 z m 8.656836,0.58266 c -0.378083,0 -0.704021,0.56016 -0.522924,0.89854 0.09483,0.17719 0.271791,0.26779 0.522924,0.26779 0.522264,0 0.746141,-0.4141 0.459899,-0.85096 -0.113623,-0.17341 -0.320636,-0.31537 -0.459899,-0.31537 z m 4.426624,0.28981 c 0.114922,0.002 0.22412,0.0331 0.30525,0.10048 0.232036,0.1926 0.252041,0.66498 0.03721,0.87981 -0.418903,0.4189 -1.127298,-0.0511 -0.944603,-0.6267 0.06893,-0.21717 0.349317,-0.35727 0.602146,-0.35359 z m 23.668734,0.22906 c 0.40256,-6.5e-4 1.02501,0.33469 1.1886,0.64037 0.0734,0.13712 0.13339,0.461 0.13339,0.71984 0,0.60599 -0.17495,0.92177 -0.64543,1.16506 -0.59825,0.30937 -1.13589,0.24861 -1.56092,-0.17641 -0.46851,-0.46851 -0.59178,-0.94418 -0.37815,-1.45994 0.18606,-0.44918 0.80945,-0.88794 1.26251,-0.88892 z m -32.880132,0.80464 c -0.06145,0.007 -0.119462,0.0299 -0.163002,0.0734 -0.0745,0.0745 -0.09437,0.2023 -0.04404,0.28373 0.114505,0.18527 0.48117,0.1235 0.553297,-0.0931 0.05314,-0.1596 -0.161902,-0.28476 -0.346254,-0.26399 z m 29.736262,1.30832 c 0.43109,0.0362 0.75309,0.64053 0.4227,0.97092 -0.21484,0.21485 -0.68747,0.19485 -0.88006,-0.0372 -0.21962,-0.26462 -0.0602,-0.80795 0.26753,-0.91195 0.0645,-0.0205 0.12825,-0.0269 0.18983,-0.0218 z" />
  </g>
  <g
     inkscape:groupmode="layer"
     id="layer2"
     inkscape:label="Layer 2"
     style="display:inline"
     transform="translate(-45.897109,-16.536458)">
    <g
       id="g1102"
       transform="matrix(0.35706123,0,0,0.35706123,51.205687,-1.3825746)">
      <g
         id="g68"
         transform="matrix(0.28222222,0,0,-0.28222222,109.68213,104.87998)">
        <path
           d="m 0,0 c -2.383,-0.854 -4.95,-1.323 -7.628,-1.323 -2.677,0 -5.245,0.469 -7.628,1.323 l -21.756,-29.61 14.768,33.653 c -0.013,0.012 -0.026,0.026 -0.04,0.038 0.296,0.9 -0.067,1.914 -0.92,2.407 -0.523,0.301 -1.12,0.339 -1.652,0.166 -0.004,0.005 -0.009,0.01 -0.013,0.015 L -58.522,-8.1 -28.913,13.656 c -0.005,0.017 -0.009,0.034 -0.015,0.051 0.711,0.631 0.907,1.695 0.412,2.551 -0.302,0.523 -0.801,0.855 -1.348,0.971 -0.002,0.006 -0.003,0.012 -0.004,0.019 l -36.528,4.036 36.528,4.037 c 0.002,0.018 0.008,0.035 0.011,0.053 0.929,0.193 1.627,1.015 1.627,2.001 0,0.606 -0.269,1.145 -0.688,1.519 0.002,0.006 0.003,0.013 0.005,0.019 L -58.522,50.668 -24.869,35.9 c 0.012,0.014 0.025,0.026 0.037,0.04 0.9,-0.296 1.915,0.067 2.407,0.92 0.302,0.523 0.34,1.12 0.167,1.652 0.005,0.004 0.01,0.009 0.014,0.013 l -14.768,33.654 21.756,-29.61 c 0.016,0.006 0.034,0.01 0.051,0.016 0.631,-0.712 1.695,-0.907 2.551,-0.413 0.522,0.302 0.854,0.801 0.97,1.349 0.007,10e-4 0.013,0.003 0.02,0.004 l 4.036,36.527 4.037,-36.527 c 0.018,-0.003 0.035,-0.008 0.053,-0.012 0.193,-0.928 1.015,-1.626 2.001,-1.626 0.606,0 1.144,0.269 1.519,0.687 C -0.012,42.572 -0.006,42.571 0,42.569 L 21.756,72.179 6.988,38.525 C 7.002,38.513 7.014,38.5 7.028,38.488 6.732,37.588 7.095,36.574 7.948,36.081 8.47,35.78 9.068,35.742 9.6,35.914 9.604,35.909 9.609,35.905 9.613,35.9 L 43.266,50.668 13.657,28.913 c 0.006,-0.017 0.01,-0.035 0.016,-0.051 -0.712,-0.631 -0.907,-1.696 -0.413,-2.551 0.302,-0.523 0.801,-0.855 1.348,-0.971 0.002,-0.006 0.004,-0.012 0.005,-0.019 L 51.14,21.284 14.613,17.248 c -0.004,-0.018 -0.009,-0.036 -0.012,-0.054 -0.928,-0.193 -1.627,-1.015 -1.627,-2.001 0,-0.606 0.269,-1.144 0.688,-1.519 -0.002,-0.006 -0.003,-0.012 -0.005,-0.018 L 43.266,-8.1 9.613,6.669 C 9.601,6.655 9.588,6.642 9.576,6.628 8.676,6.924 7.661,6.561 7.169,5.708 6.867,5.186 6.83,4.588 7.002,4.057 6.997,4.052 6.993,4.048 6.988,4.043 L 21.756,-29.61 Z m 20.39,-48.61 v 0.548 c 27.21,11.065 46.404,37.744 46.404,68.93 0,42.069 -34.906,75.985 -77.335,74.366 -38.479,-1.468 -69.867,-32.761 -71.445,-71.236 -1.333,-32.521 18.223,-60.627 46.341,-72.061 v -0.374 c 6.005,-2.193 12.204,-3.73 18.426,-4.525 V -25.9 c 0,1.567 1.275,2.841 2.842,2.841 h 13.498 c 1.567,0 2.842,-1.274 2.842,-2.842 V -52.97 c 6.157,0.771 12.36,2.253 18.427,4.36"
           style="fill:#dae258;fill-opacity:1;fill-rule:nonzero;stroke:none"
           id="path70" />
      </g>
      <g
         id="g72"
         transform="matrix(0.28222222,0,0,-0.28222222,130.09737,75.801948)">
        <path
           d="m 0,0 c -22.788,21.935 -52.787,33.343 -84.47,32.141 -59.635,-2.281 -108.273,-50.77 -110.718,-110.394 -2.014,-49.143 27.354,-94.225 73.079,-112.182 7.711,-3.027 16.15,-2.221 22.575,2.16 6.341,4.322 9.978,11.583 9.978,19.922 v 12.359 c -6.223,0.795 -12.422,2.332 -18.427,4.525 v -16.884 c 0,-1.543 -0.335,-3.61 -1.929,-4.696 -1.387,-0.945 -3.428,-1.033 -5.461,-0.235 -38.421,15.088 -63.097,52.975 -61.403,94.276 2.053,50.09 42.907,90.824 93.008,92.736 26.635,1.017 51.843,-8.574 70.989,-27.004 19.158,-18.44 29.709,-43.235 29.709,-69.818 0,-19.917 -5.998,-39.046 -17.344,-55.316 -11.096,-15.912 -26.481,-28.018 -44.493,-35.01 -2.068,-0.803 -4.098,-0.792 -5.296,0.027 -1.518,1.04 -1.745,3.597 -1.745,5.029 v 16.721 c -6.067,-2.107 -12.27,-3.589 -18.426,-4.359 v -12.362 c 0,-8.739 3.467,-15.924 9.763,-20.234 3.705,-2.536 8.159,-3.829 12.795,-3.829 3.168,0 6.422,0.604 9.577,1.829 21.437,8.322 39.742,22.723 52.939,41.648 13.514,19.377 20.656,42.15 20.656,65.856 C 35.356,-51.456 22.8,-21.946 0,0"
           style="fill:#4aa08c;fill-opacity:1;fill-rule:nonzero;stroke:none"
           id="path74" />
      </g>
    </g>
  </g>
</svg>
