<?xml version="1.0" encoding="UTF-8"?>
<svg id="Layer_2" data-name="Layer 2" xmlns="http://www.w3.org/2000/svg" viewBox="0 0 278.87 278.87">
  <defs>
    <style>
      .cls-1 {
        fill-rule: evenodd;
      }

      .cls-1, .cls-2 {
        stroke: #000;
        stroke-miterlimit: 10;
        stroke-width: 2px;
      }
    </style>
  </defs>
  <g id="Layer_1-2" data-name="Layer 1">
    <g>
      <path class="cls-1" d="M76.42,55.41h38.03l-7.15-32.98c-4.83-1.05-8.4-5.46-8.4-10.5,0-6.09,4.83-10.93,10.93-10.93s10.92,4.83,10.92,10.93c0,5.04-3.57,9.45-8.4,10.5l7.15,32.98h38.02l-7.15-32.98c-4.62-1.26-8.19-5.46-8.19-10.5,0-6.09,4.83-10.93,10.93-10.93s10.93,4.83,10.93,10.93c0,5.25-3.79,9.45-8.62,10.5l7.15,32.98h40.33c10.08,0,18.69,7.57,20.17,17.44l33.19-7.15c.42-5.67,5.04-10.08,10.93-10.08s10.71,4.83,10.71,10.93-4.83,10.93-10.71,10.93c-4.62,0-8.61-2.95-10.29-6.94l-33.61,7.36v37.81l32.98-6.93c.42-5.46,5.25-9.87,10.93-9.87s10.71,4.83,10.71,10.92-4.83,10.93-10.71,10.93c-4.83,0-8.82-2.94-10.29-7.14l-33.61,7.14v38.03l32.98-6.94c.63-5.46,5.25-9.66,10.93-9.66s10.71,4.83,10.71,10.93-4.83,10.93-10.71,10.93c-4.83,0-8.82-3.16-10.29-7.36l-33.61,7.15v38.86c0,10.08-7.57,18.69-17.44,20.17l7.15,33.4c5.67,.21,10.29,5.04,10.29,10.93s-4.83,10.71-10.93,10.71-10.71-4.83-10.71-10.71c0-4.62,2.52-8.4,6.51-10.08l-7.36-34.03h-38.02l7.15,33.19c5.67,.42,10.08,5.04,10.08,10.93s-4.83,10.71-10.93,10.71-10.71-4.83-10.71-10.71c0-4.62,2.73-8.61,6.72-10.08l-7.36-34.03h-38.02l7.14,33.19c5.67,.42,9.87,5.04,9.87,10.93s-4.83,10.71-10.93,10.71-10.71-4.83-10.71-10.71c0-4.83,2.95-8.61,6.94-10.29l-7.35-33.82h-38.45c-9.45,0-17.43-6.51-19.96-15.13l-33.82,7.14c-1.26,4.84-5.46,8.2-10.5,8.2-6.09,0-10.93-4.83-10.93-10.93s4.83-10.71,10.93-10.71c5.25,0,9.45,3.57,10.5,8.4l33.19-6.93v-38.03l-33.19,7.15c-1.47,4.41-5.67,7.77-10.5,7.77-6.09,0-10.93-4.83-10.93-10.92s4.83-10.71,10.93-10.71c5.25,0,9.66,3.78,10.71,8.82l32.98-7.15v-38.02l-33.4,7.15c-1.26,4.41-5.46,7.56-10.29,7.56-6.09,0-10.93-4.83-10.93-10.93s4.83-10.71,10.93-10.71c5.25,0,9.87,3.79,10.71,9.04l32.98-7.15v-41.18c0-9.66,6.94-17.64,15.97-19.75l-7.14-33.4c-5.04-1.05-8.83-5.46-8.83-10.71,0-6.09,4.83-10.93,10.93-10.93s10.93,4.83,10.93,10.93c0,5.04-3.57,9.24-8.19,10.5l7.14,32.98Zm4.2,5.67h117.64c10.29,0,18.69,8.4,18.69,18.69v118.91c0,10.29-8.4,18.69-18.69,18.69H80.62c-10.29,0-18.69-8.4-18.69-18.69V79.77c0-10.29,8.4-18.69,18.69-18.69Z"/>
      <path class="cls-2" d="M166.96,178.93h-17.01l-6.94-18.07h-31.51l-6.51,18.07h-17.01l30.67-78.78h16.8l31.51,78.78Zm-28.99-31.3l-11.14-29.2-10.5,29.2h21.64Zm36.98,31.3V100.15h15.96v78.78h-15.96Z"/>
    </g>
  </g>
</svg>