<?xml version="1.0" encoding="UTF-8"?>
<svg id="Layer_2" data-name="Layer 2" xmlns="http://www.w3.org/2000/svg" viewBox="0 0 273.91 285.02">
  <defs>
    <style>
      .cls-1 {
        stroke: #000;
        stroke-miterlimit: 10;
        stroke-width: 2px;
      }
    </style>
  </defs>
  <g id="Layer_1-2" data-name="Layer 1">
    <g>
      <path class="cls-1" d="M81.46,134.19h30.52c3.07,0,5.55-2.49,5.55-5.55s-2.49-5.55-5.55-5.55h-30.52c-3.06,0-5.55,2.49-5.55,5.55s2.49,5.55,5.55,5.55Z"/>
      <path class="cls-1" d="M64.81,128.64c0-3.07-2.48-5.55-5.55-5.55H28.74c-3.06,0-5.55,2.49-5.55,5.55s2.49,5.55,5.55,5.55h30.52c3.07,0,5.55-2.49,5.55-5.55Z"/>
      <path class="cls-1" d="M272.91,56.5c0-30.6-24.89-55.5-55.5-55.5H78.68c-12.24,0-22.19,9.96-22.19,22.2v55.49H6.55c-3.06,0-5.55,2.49-5.55,5.55v66.59c0,3.07,2.49,5.55,5.55,5.55H56.49v105.44c0,12.24,9.96,22.19,22.19,22.19h127.63c12.24,0,22.19-9.96,22.19-22.19V110.87c25.3-5.16,44.4-27.58,44.4-54.38ZM78.68,12.1h105.47c-10.66,8.01-18.36,19.77-21.12,33.29H67.59V23.2c0-6.12,4.98-11.1,11.09-11.1Zm49.94,77.69v11.1H12.09v-11.1h116.53ZM12.09,111.99h116.53v33.29H12.09v-33.29Zm194.22,160.93H78.68c-6.11,0-11.09-4.99-11.09-11.1v-22.2H217.41v22.2c0,6.11-4.98,11.1-11.09,11.1Zm11.09-44.4H67.59v-72.14h66.59c3.06,0,5.55-2.49,5.55-5.55V84.24c0-3.07-2.49-5.55-5.55-5.55H67.59v-22.19h94.33c0,30.6,24.89,55.5,55.49,55.5v116.54Zm0-127.64c-24.47,0-44.39-19.91-44.39-44.4s19.91-44.4,44.39-44.4,44.4,19.91,44.4,44.4-19.91,44.4-44.4,44.4Z"/>
      <path class="cls-1" d="M234.3,38l-25.21,25.21-8.56-8.56c-2.17-2.17-5.68-2.17-7.85,0s-2.17,5.68,0,7.85l12.49,12.49c2.17,2.17,5.68,2.17,7.85,0l29.13-29.13c2.16-2.17,2.16-5.68,0-7.85-2.17-2.17-5.68-2.17-7.85,0Z"/>
      <path class="cls-1" d="M156.37,250.73h-27.75c-3.06,0-5.55,2.49-5.55,5.55s2.49,5.55,5.55,5.55h27.75c3.06,0,5.55-2.49,5.55-5.55s-2.49-5.55-5.55-5.55Z"/>
      <path class="cls-1" d="M123.08,34.29h27.75c3.06,0,5.55-2.48,5.55-5.55s-2.49-5.55-5.55-5.55h-27.75c-3.07,0-5.55,2.49-5.55,5.55s2.48,5.55,5.55,5.55Z"/>
    </g>
  </g>
</svg>