<?xml version="1.0" encoding="UTF-8"?>
<svg id="Layer_2" data-name="Layer 2" xmlns="http://www.w3.org/2000/svg" viewBox="0 0 282.88 282.87">
  <defs>
    <style>
      .cls-1 {
        stroke: #000;
        stroke-miterlimit: 10;
        stroke-width: 2px;
      }
    </style>
  </defs>
  <g id="Layer_1-2" data-name="Layer 1">
    <path class="cls-1" d="M249.11,231.68v-26.66l23.41-13.39v26.66l-23.41,13.39Zm-32.77-40.05l23.41,13.39v26.66l-23.41-13.39v-26.66Zm-39.81,25.33l-30.41-17.39v-17.96l30.41-17.39c1.46-.82,2.36-2.38,2.36-4.06v-37.45c0-1.68-.9-3.24-2.36-4.06l-30.41-17.39v-17.96l28.23-16.14,32.62,16.31v15.83c0,1.68,.89,3.24,2.36,4.06l30.41,17.39v41.37l-30.41,17.39c-1.46,.82-2.36,2.38-2.36,4.06v34.86l-28.09,17.55v-14.96c0-1.68-.9-3.23-2.36-4.06Zm-30.41,52.17v-26.66l23.41-13.39v26.66l-23.41,13.39Zm-32.77-40.05l23.4,13.39v26.66l-23.4-13.39v-26.66Zm-37.45-10.66v-34.86c0-1.68-.9-3.24-2.36-4.06l-30.41-17.39v-41.37l30.41-17.39c1.46-.82,2.36-2.38,2.36-4.06v-15.83l32.62-16.31,28.23,16.14v17.96l-30.41,17.39c-1.46,.82-2.36,2.37-2.36,4.06v37.45c0,1.68,.9,3.24,2.36,4.06l30.41,17.39v17.96l-30.41,17.39c-1.46,.82-2.36,2.38-2.36,4.06v14.96l-28.08-17.55Zm-32.78,13.26v-26.66l23.41-13.39v26.66l-23.41,13.39ZM10.36,191.63l23.41,13.39v26.66l-23.41-13.39v-26.66Zm28.09,5.27l-23.33-13.33,23.33-13.33,23.33,13.33-23.33,13.33ZM10.36,69.91l23.41,13.39v26.66l-23.41-13.39v-26.66Zm28.09-21.4l23.33,13.33-23.33,13.33-23.33-13.33,23.33-13.33Zm4.68,34.78l23.41-13.39v26.66l-23.41,13.39v-26.66ZM141.44,11.07l23.33,13.33-23.33,13.33-23.34-13.33,23.34-13.33Zm4.68,34.78l23.41-13.39v26.66l-23.41,13.39v-26.66Zm-32.77-13.39l23.4,13.39v26.66l-23.4-13.39v-26.66Zm28.09,103.57l-23.34-13.33,23.34-13.33,23.33,13.33-23.33,13.33Zm4.68,8.12l23.41-13.39v26.66l-23.41,13.39v-26.66Zm-32.77-13.39l23.4,13.39v26.66l-23.4-13.39v-26.66Zm28.09,103.57l-23.34-13.33,23.34-13.33,23.33,13.33-23.33,13.33ZM244.43,48.52l23.33,13.33-23.33,13.33-23.33-13.33,23.33-13.33Zm-28.09,21.4l23.41,13.39v26.66l-23.41-13.39v-26.66Zm28.09,126.98l-23.33-13.33,23.33-13.33,23.33,13.33-23.33,13.33Zm4.68-86.93v-26.66l23.41-13.39v26.66l-23.41,13.39Zm30.41-6.6c1.46-.82,2.36-2.38,2.36-4.06V61.85c0-1.68-.89-3.23-2.36-4.06l-32.77-18.73c-1.43-.82-3.22-.82-4.65,0l-32.77,18.73c-1.46,.82-2.36,2.37-2.36,4.06v11.16l-28.09-14.05V24.4c0-1.68-.9-3.24-2.36-4.06L143.76,1.62c-1.43-.82-3.22-.82-4.64,0l-32.77,18.72c-1.46,.82-2.36,2.38-2.36,4.06V58.96l-28.08,14.05v-11.16c0-1.68-.9-3.23-2.36-4.06l-32.77-18.73c-1.43-.82-3.2-.82-4.64,0L3.36,57.79c-1.46,.82-2.36,2.37-2.36,4.06v37.45c0,1.68,.9,3.24,2.36,4.06l30.41,17.39v41.37L3.36,179.5c-1.46,.82-2.36,2.38-2.36,4.06v37.45c0,1.68,.9,3.24,2.36,4.06l32.77,18.72c.71,.43,1.52,.63,2.32,.63s1.61-.2,2.32-.63l30.34-17.33,32.88,20.56v11.44c0,1.68,.9,3.24,2.36,4.06l32.77,18.73c.72,.42,1.52,.62,2.32,.62s1.61-.2,2.32-.62l32.77-18.73c1.46-.82,2.36-2.38,2.36-4.06v-11.44l32.88-20.56,30.34,17.33c.72,.43,1.52,.63,2.32,.63s1.61-.2,2.32-.63l32.77-18.72c1.46-.82,2.36-2.38,2.36-4.06v-37.45c0-1.68-.89-3.24-2.36-4.06l-30.41-17.39v-41.37l30.41-17.39"/>
  </g>
</svg>