<?xml version="1.0" encoding="UTF-8"?>
<svg id="Layer_2" data-name="Layer 2" xmlns="http://www.w3.org/2000/svg" viewBox="0 0 285.5 285.5">
  <defs>
    <style>
      .cls-1 {
        fill-rule: evenodd;
        stroke: #000;
        stroke-miterlimit: 10;
        stroke-width: 2px;
      }
    </style>
  </defs>
  <g id="Layer_1-2" data-name="Layer 1">
    <path class="cls-1" d="M66.15,255.35l3.33,5.9h0c2.95,5.27,1.08,11.99-4.15,14.94l-12.17,6.9s0,0-.02,0c-5.26,2.96-11.97,1.08-14.93-4.15L2.42,215.69c-2.98-5.27-1.11-11.99,4.13-14.95l12.19-6.9c5.24-2.96,11.95-1.1,14.94,4.14h0s2.69,4.76,2.69,4.76l31.65-18.33c9.65-5.58,19.52-9.21,30.11-5.77,10.25,3.32,26.96,10.49,44.03,13.56,.2,.04,.4,.09,.6,.15,8.75,2.83,14.06,11.68,11.68,20.57-.32,1.16-.72,2.26-1.2,3.28,1.65-.52,3.26-1.23,4.86-2.16l43.4-25.28c15.81-9.22,26.36-8.17,32.33-4.18,5.17,3.47,7.56,9.39,7.41,15.19-.15,5.87-2.96,11.47-7.56,14.31l-78.76,48.5c-8.35,5.15-17.49,6.36-26.97,3.84h0s-55.31-14.82-55.31-14.82l-6.47,3.73Zm-4.63,10.39l-35.79-63.24c-.5-.87-1.62-1.19-2.49-.7l-12.19,6.9c-.87,.49-1.17,1.6-.67,2.47l35.8,63.26c.49,.87,1.61,1.18,2.48,.69l12.16-6.9h0c.87-.49,1.18-1.62,.68-2.49Zm.12-18.35l8.05-4.65c1.05-.61,2.3-.77,3.47-.46l57.13,15.31c6.96,1.86,13.68,1,19.81-2.78l78.77-48.5c2.13-1.31,3.15-4.05,3.22-6.77,.09-3.22-1.26-6.63-4.66-8.05-4.48-1.86-11.35-.64-21.33,5.17l-43.41,25.28c-7.01,4.09-14.37,5.22-22.38,3.94h-.02l-5.38-.87s-19.08-5.01-29.17-7.72c-2.44-.65-3.89-3.16-3.23-5.6,.66-2.44,3.16-3.89,5.6-3.23,9.84,2.64,18.71,5.54,28.26,7.52,4.69,.52,8.14-1.41,9.22-5.43h0c1.1-4.07-1.45-8-5.4-9.41-17.41-3.19-34.43-10.42-44.89-13.8-8.03-2.61-15.39,.75-22.71,4.98l-31.73,18.37,20.77,36.7Zm-40.25-38.36c2.76-.42,5.33,1.49,5.74,4.26,.39,2.76-1.51,5.34-4.28,5.74-2.76,.41-5.33-1.52-5.74-4.28-.39-2.76,1.52-5.33,4.28-5.72ZM48.85,60.25c26.43,0,47.85,21.42,47.85,47.85s-21.42,47.85-47.85,47.85S1,134.52,1,108.09,22.42,60.25,48.85,60.25Zm32.27,69.24c4.07-6.13,6.43-13.49,6.43-21.39,0-21.38-17.33-38.7-38.7-38.7S10.14,86.71,10.14,108.09c0,7.9,2.37,15.26,6.44,21.39,3.36-8.33,9.84-15.05,17.99-18.73-3.46-3.57-5.58-8.43-5.58-13.76,0-10.93,8.93-19.86,19.86-19.86s19.86,8.93,19.86,19.86c0,5.34-2.13,10.19-5.58,13.76,8.15,3.68,14.63,10.4,17.99,18.73Zm-57.42,8.03c6.76,5.79,15.55,9.29,25.15,9.29s18.39-3.5,25.15-9.29c-2.32-11.78-12.7-20.66-25.15-20.66s-22.84,8.88-25.15,20.66Zm25.15-29.81c5.89,0,10.71-4.82,10.71-10.71s-4.82-10.71-10.71-10.71-10.71,4.82-10.71,10.71,4.82,10.71,10.71,10.71ZM154.81,8.94c2.64,.8,5.2,1.86,7.64,3.17l4.9-2.18c1.73-.77,3.75-.39,5.1,.94l8.27,8.27c1.34,1.34,1.71,3.36,.94,5.09l-2.17,4.9c1.31,2.44,2.37,5,3.17,7.66l5,1.93c1.76,.68,2.93,2.37,2.93,4.27v11.71c0,1.89-1.17,3.59-2.93,4.27l-5,1.93c-.8,2.64-1.86,5.2-3.17,7.64l2.17,4.91c.77,1.72,.39,3.75-.94,5.09l-8.27,8.27c-1.34,1.34-3.36,1.71-5.09,.94,0,0-4.9-2.17-4.9-2.17-2.44,1.31-5,2.37-7.65,3.17l-1.93,5c-.68,1.76-2.38,2.93-4.27,2.93h-11.71c-1.89,0-3.59-1.17-4.27-2.93l-1.93-5c-2.65-.8-5.22-1.86-7.66-3.17l-4.91,2.17c-1.73,.77-3.75,.39-5.09-.94l-8.27-8.27c-1.34-1.35-1.72-3.36-.94-5.1l2.18-4.9c-1.31-2.44-2.37-5-3.18-7.64l-5-1.93c-1.77-.68-2.93-2.38-2.93-4.27v-11.71c0-1.89,1.16-3.59,2.93-4.27l5-1.93c.8-2.66,1.86-5.22,3.18-7.66l-2.18-4.9c-.77-1.73-.39-3.76,.94-5.1l8.27-8.27c1.34-1.34,3.36-1.72,5.1-.94l4.9,2.18c2.44-1.31,5-2.37,7.65-3.17l1.93-5.02c.68-1.76,2.37-2.92,4.27-2.92h11.71c1.89,0,3.59,1.17,4.27,2.93l1.93,5.01Zm-7.71,5.45l-1.63-4.25h-5.43l-1.64,4.26c-.54,1.4-1.74,2.45-3.21,2.8-3.35,.8-6.53,2.12-9.47,3.93-1.28,.79-2.88,.9-4.25,.28l-4.16-1.85-3.84,3.84,1.85,4.16c.62,1.38,.51,2.97-.28,4.25-1.81,2.94-3.13,6.13-3.94,9.5-.35,1.46-1.4,2.66-2.8,3.2l-4.24,1.63v5.43l4.24,1.63c1.4,.53,2.45,1.73,2.8,3.19,.8,3.35,2.13,6.55,3.94,9.48,.8,1.28,.9,2.88,.29,4.26l-1.85,4.15,3.84,3.84,4.16-1.85c1.37-.6,2.95-.5,4.24,.29,2.94,1.8,6.13,3.13,9.49,3.93,1.47,.35,2.68,1.4,3.22,2.81l1.63,4.24h5.43l1.63-4.24c.54-1.41,1.74-2.46,3.21-2.81,3.34-.79,6.54-2.11,9.46-3.92,1.28-.79,2.88-.9,4.25-.29l4.16,1.85,3.84-3.84-1.84-4.16c-.61-1.38-.51-2.96,.28-4.24,1.8-2.94,3.13-6.13,3.93-9.48,.35-1.47,1.4-2.67,2.81-3.21l4.24-1.63v-5.43l-4.24-1.63c-1.41-.54-2.46-1.75-2.81-3.22-.8-3.36-2.12-6.54-3.92-9.48-.79-1.28-.9-2.87-.29-4.25l1.84-4.16-3.84-3.84-4.15,1.85c-1.38,.62-2.97,.51-4.26-.28-2.93-1.81-6.12-3.13-9.46-3.93-1.47-.35-2.68-1.4-3.22-2.81Zm-4.35,9.46c13.81,0,25.01,11.18,25.01,24.99s-11.2,25.01-25.01,25.01-24.99-11.2-24.99-25.01,11.18-24.99,24.99-24.99Zm0,9.14c-8.75,0-15.85,7.09-15.85,15.85s7.09,15.86,15.85,15.86,15.86-7.11,15.86-15.86-7.11-15.85-15.86-15.85Zm93.91,122.95c-26.35,0-47.84-21.49-47.84-47.84s21.49-47.84,47.84-47.84,47.84,21.49,47.84,47.84-21.49,47.84-47.84,47.84Zm0-9.15c21.31,0,38.69-17.38,38.69-38.69s-17.38-38.69-38.69-38.69-38.69,17.38-38.69,38.69,17.38,38.69,38.69,38.69Zm-4.57-63.96v-2.1c0-2.52,2.05-4.57,4.57-4.57s4.57,2.05,4.57,4.57v2.05c5.17,1.2,9.93,4.55,12.4,10.42,.97,2.33-.12,5.01-2.45,5.98-2.33,.98-5.01-.12-5.98-2.44-2.19-5.22-8.05-6.26-12.25-4.61-2.36,.93-4.28,2.81-4.14,5.58h0c.1,2.14,1.52,3.34,3.16,4.14,1.69,.83,3.64,1.28,5.48,1.59h0c7.86,1.29,16.43,4.91,17.55,14.25,1.1,9.06-6.11,14.36-13.77,15.83v1.98c0,2.52-2.05,4.57-4.57,4.57s-4.57-2.05-4.57-4.57v-2.04c-6.47-1.39-12.02-5.69-13.74-12.6-.61-2.45,.88-4.93,3.33-5.54,2.45-.6,4.93,.89,5.54,3.33,1.09,4.41,5.58,6.26,9.88,6.15h.02c2.34-.05,4.95-.63,6.87-1.95,1.28-.88,2.15-2.2,1.93-4.06-.29-2.46-1.99-3.79-3.94-4.67-1.89-.86-4.02-1.33-6.02-1.65-7.71-1.25-15.87-5.18-16.31-14.31-.34-7.01,3.95-12.17,9.93-14.52,.8-.32,1.64-.58,2.5-.79Zm-84.77,61.22c0,2.52-2.05,4.57-4.57,4.57s-4.57-2.05-4.57-4.57v-31.11c0-2.52,2.05-4.57,4.57-4.57s4.57,2.05,4.57,4.57v31.11Zm12.05,17.01c-1.98,1.57-4.86,1.24-6.43-.74-1.56-1.98-1.23-4.86,.75-6.43l26.73-21.15c1.98-1.56,4.86-1.23,6.42,.75,1.57,1.98,1.24,4.86-.74,6.43l-26.73,21.14Zm-27.56-7.17c1.98,1.56,2.31,4.45,.74,6.43-1.56,1.98-4.44,2.31-6.42,.74l-26.73-21.14c-1.98-1.57-2.31-4.45-.75-6.43,1.57-1.98,4.45-2.31,6.43-.75l26.73,21.15Z"/>
  </g>
</svg>