<?xml version="1.0" encoding="UTF-8"?>
<svg id="Layer_2" data-name="Layer 2" xmlns="http://www.w3.org/2000/svg" viewBox="0 0 279.76 279.76">
  <defs>
    <style>
      .cls-1 {
        stroke: #000;
        stroke-miterlimit: 10;
      }
    </style>
  </defs>
  <g id="Layer_1-2" data-name="Layer 1">
    <g>
      <path class="cls-1" d="M98.06,269.97H14.44c-2.56,0-4.64-2.08-4.64-4.64v-4.64H102.71v4.64c0,2.56-2.08,4.64-4.64,4.64ZM14.44,112.01H98.06c2.56,0,4.64,2.08,4.64,4.64v23.23H9.79v-23.23c0-2.56,2.08-4.64,4.64-4.64Zm-4.64,65.04v-27.87H102.71v27.87H9.79Zm92.91,46.46v27.88H9.79v-27.88H102.71Zm-92.91-9.29v-27.88H102.71v27.88H9.79Zm116.14-41.82c0,2.56-2.08,4.64-4.64,4.64h-9.29v-60.4c0-7.68-6.25-13.94-13.94-13.94H14.44c-7.68,0-13.94,6.25-13.94,13.94v148.68c0,7.68,6.25,13.94,13.94,13.94H98.06c7.69,0,13.94-6.25,13.94-13.94v-78.98h9.29c7.69,0,13.94-6.25,13.94-13.94V98.07h-9.29v74.33"/>
      <path class="cls-1" d="M93.42,121.3h-13.94v9.29h13.94v-9.29"/>
      <path class="cls-1" d="M70.19,121.3H19.08v9.29h51.11v-9.29"/>
      <path class="cls-1" d="M79.48,158.47v9.29h13.94v-9.29h-13.94"/>
      <path class="cls-1" d="M19.08,167.76h51.11v-9.29H19.08v9.29"/>
      <path class="cls-1" d="M79.48,195.64v9.29h13.94v-9.29h-13.94"/>
      <path class="cls-1" d="M19.08,204.93h51.11v-9.29H19.08v9.29"/>
      <path class="cls-1" d="M93.42,232.8h-13.94v9.29h13.94v-9.29"/>
      <path class="cls-1" d="M70.19,242.1v-9.29H19.08v9.29h51.11"/>
      <path class="cls-1" d="M103.07,42.82c1.43,10.16,7.02,19.4,15.57,25.36l5.32-7.62c-7.49-5.22-11.96-13.77-11.96-22.88,0-15.37,12.51-27.87,27.88-27.87,13.94,0,25.53,10.29,27.56,23.68-13.01,2.34-22.91,13.75-22.91,27.42h9.29c0-10.25,8.33-18.58,18.58-18.58s18.59,8.33,18.59,18.58-8.33,18.59-18.59,18.59H107.36c-10.25,0-18.59-8.34-18.59-18.59,0-8.77,6.12-16.14,14.3-18.08Zm4.29,45.96h65.04c15.37,0,27.88-12.51,27.88-27.88,0-13.88-10.19-25.42-23.49-27.53C174.65,14.9,158.92,.5,139.88,.5s-34.78,14.4-36.92,32.87c-13.29,2.11-23.49,13.65-23.49,27.53,0,15.37,12.51,27.88,27.88,27.88"/>
      <path class="cls-1" d="M265.32,269.97h-83.63c-2.56,0-4.64-2.08-4.64-4.64v-4.64h92.92v4.64c0,2.56-2.09,4.64-4.65,4.64Zm-88.27-92.92v-27.87h92.92v27.87h-92.92Zm0,37.17v-27.88h92.92v27.88h-92.92Zm0,9.29h92.92v27.88h-92.92v-27.88Zm4.64-111.5h83.63c2.56,0,4.65,2.08,4.65,4.64v23.23h-92.92v-23.23c0-2.56,2.09-4.64,4.64-4.64Zm83.63-9.29h-83.63c-7.68,0-13.94,6.25-13.94,13.94v60.4h-9.29c-2.56,0-4.64-2.08-4.64-4.64V98.07h-9.29v74.33c0,7.68,6.25,13.94,13.94,13.94h9.29v78.98c0,7.68,6.25,13.94,13.94,13.94h83.63c7.69,0,13.94-6.25,13.94-13.94V116.65c0-7.68-6.25-13.94-13.94-13.94"/>
      <path class="cls-1" d="M260.68,121.3h-13.94v9.29h13.94v-9.29"/>
      <path class="cls-1" d="M237.45,121.3h-51.1v9.29h51.1v-9.29"/>
      <path class="cls-1" d="M246.74,158.47v9.29h13.94v-9.29h-13.94"/>
      <path class="cls-1" d="M186.34,167.76h51.1v-9.29h-51.1v9.29"/>
      <path class="cls-1" d="M246.74,195.64v9.29h13.94v-9.29h-13.94"/>
      <path class="cls-1" d="M186.34,204.93h51.1v-9.29h-51.1v9.29"/>
      <path class="cls-1" d="M246.74,232.8v9.29h13.94v-9.29h-13.94"/>
      <path class="cls-1" d="M186.34,242.1h51.1v-9.29h-51.1v9.29"/>
      <path class="cls-1" d="M246.74,9.79c2.56,0,4.64,2.09,4.64,4.64s-2.08,4.65-4.64,4.65-4.65-2.09-4.65-4.65,2.09-4.64,4.65-4.64Zm-6,17.23c1.81,.87,3.86,1.36,6,1.36,7.68,0,13.94-6.25,13.94-13.94s-6.25-13.94-13.94-13.94-13.94,6.25-13.94,13.94c0,2.15,.48,4.19,1.36,6l-12.58,12.58h-16.66v9.29h20.51l15.31-15.3"/>
      <path class="cls-1" d="M269.97,79.48c0,2.56-2.09,4.64-4.65,4.64s-4.64-2.08-4.64-4.64,2.09-4.64,4.64-4.64,4.65,2.08,4.65,4.64Zm-25.95-27.87h-34.44v9.29h30.6l12.58,12.58c-.88,1.81-1.37,3.86-1.37,6,0,7.68,6.25,13.94,13.94,13.94s13.94-6.25,13.94-13.94-6.25-13.94-13.94-13.94c-2.15,0-4.18,.49-6,1.36l-15.3-15.3"/>
      <path class="cls-1" d="M14.44,74.84c2.56,0,4.64,2.08,4.64,4.64s-2.08,4.64-4.64,4.64-4.64-2.08-4.64-4.64,2.08-4.64,4.64-4.64Zm0,18.58c7.68,0,13.94-6.25,13.94-13.94,0-2.15-.49-4.19-1.36-6l12.58-12.58h30.6v-9.29H35.75l-15.31,15.3c-1.82-.87-3.86-1.36-6-1.36-7.68,0-13.94,6.25-13.94,13.94s6.25,13.94,13.94,13.94"/>
      <path class="cls-1" d="M33.02,9.79c2.56,0,4.64,2.09,4.64,4.64s-2.09,4.65-4.64,4.65-4.65-2.09-4.65-4.65,2.09-4.64,4.65-4.64Zm0,18.59c2.15,0,4.18-.49,6-1.36l15.3,15.3h20.51v-9.29h-16.66l-12.58-12.58c.87-1.81,1.36-3.86,1.36-6,0-7.68-6.25-13.94-13.94-13.94s-13.94,6.25-13.94,13.94,6.25,13.94,13.94,13.94"/>
    </g>
  </g>
</svg>