<?xml version="1.0" encoding="UTF-8"?>
<svg id="Layer_2" data-name="Layer 2" xmlns="http://www.w3.org/2000/svg" viewBox="0 0 290.27 261.17">
  <defs>
    <style>
      .cls-1 {
        fill-rule: evenodd;
        stroke: #000;
        stroke-miterlimit: 10;
        stroke-width: 4px;
      }
    </style>
  </defs>
  <g id="Layer_1-2" data-name="Layer 1">
    <g>
      <path class="cls-1" d="M273.56,206.99H16.71c-8.1,0-14.71-6.58-14.71-14.67V16.67C2,8.58,8.6,2,16.71,2H273.56c8.1,0,14.71,6.58,14.71,14.67V192.33c0,8.09-6.6,14.67-14.71,14.67ZM16.71,8.69c-4.41,0-8,3.58-8,7.97V192.33c0,4.4,3.58,7.97,8,7.97H273.56c4.4,0,8-3.58,8-7.97V16.67c0-4.4-3.59-7.98-8-7.98H16.71Z"/>
      <path class="cls-1" d="M183.28,259.17c-1.85,0-3.36-1.5-3.36-3.34v-48.83H110.35v48.83c0,4.4-6.71,4.4-6.71,0v-52.18c0-1.85,1.5-3.35,3.36-3.35h76.28c1.85,0,3.36,1.5,3.36,3.35v52.18c0,1.84-1.5,3.34-3.36,3.34Z"/>
      <path class="cls-1" d="M212.54,259.17H77.73c-4.42,0-4.42-6.69,0-6.69H212.54c4.41,0,4.41,6.69,0,6.69Z"/>
      <path class="cls-1" d="M284.91,171.43H5.36c-4.41,0-4.41-6.69,0-6.69H284.91c4.41,0,4.41,6.69,0,6.69Z"/>
      <path class="cls-1" d="M155.78,189.21h-21.29c-4.42,0-4.42-6.7,0-6.7h21.29c4.41,0,4.41,6.7,0,6.7Z"/>
    </g>
  </g>
</svg>