<?xml version="1.0" encoding="UTF-8"?>
<svg id="Layer_2" data-name="Layer 2" xmlns="http://www.w3.org/2000/svg" viewBox="0 0 287.1 287.1">
  <defs>
    <style>
      .cls-1 {
        stroke: #fff;
        stroke-miterlimit: 10;
        stroke-width: 3px;
      }
    </style>
  </defs>
  <g id="Layer_1-2" data-name="Layer 1">
    <g>
      <path class="cls-1" d="M203.09,182.31c-1.34,17.42-10.22,33.29-24.36,43.55l-13.76,9.97c-6.4,4.65-13.92,6.96-21.42,6.96s-15.02-2.31-21.42-6.96l-13.76-9.97c-14.13-10.25-23.02-26.13-24.36-43.55-.63-8.08-1.17-15.34-1.63-21.74-.32-4.39-.59-8.36-.82-11.91-.28-4.16-.49-7.74-.66-10.73,18.27-18.16,24.9-42.03,24.9-42.03,13.3,10.29,42.75,9.44,60.84,7.78,9.45-.9,18.57,3.75,23.45,11.9l15.88,26.58c-.11,1.97-.25,4.16-.4,6.5-.23,3.55-.52,7.54-.83,11.91-.45,6.4-1,13.66-1.63,21.74Zm28.89-33.65c-.31-3.67-3.37-6.55-7.13-6.55h-5.03c8.69-10.79,17.66-33.24-4.05-72.47-33.04-59.75-112.26-33.02-126.72-26.69-14.49,6.35-2.28,14.93-2.28,14.93-37.35,20.28-29.69,65.72-24.71,84.22-3.66,.11-6.63,2.95-6.93,6.55-.02,.21-.04,.41-.04,.61v10.4c0,.3,0,.61,.02,.9,.4,9.27,7.04,16.92,15.81,18.92,.08,1.24,.19,2.53,.29,3.81,1.63,21.17,12.45,40.45,29.62,52.94l13.76,9.97c8.47,6.16,18.47,9.39,28.95,9.39s20.49-3.23,28.96-9.39l13.76-9.97c17.16-12.48,27.99-31.77,29.61-52.94,.1-1.28,.21-2.57,.29-3.81,8.79-2,15.42-9.65,15.83-18.92,.02-.29,.02-.6,.02-.9v-10.4c0-.2-.02-.4-.03-.61"/>
      <path class="cls-1" d="M16.81,263.06v-53.16H1.5v53.16c0,12.44,10.11,22.54,22.54,22.54h53.17v-15.31H24.04c-3.98,0-7.22-3.25-7.22-7.23Zm253.48-53.16v53.16c0,3.98-3.25,7.23-7.23,7.23h-53.16v15.31h53.16c12.44,0,22.54-10.11,22.54-22.54v-53.16h-15.31ZM263.06,1.5h-53.16v15.31h53.16c3.98,0,7.23,3.25,7.23,7.22v53.17h15.31V24.04c0-12.43-10.1-22.54-22.54-22.54ZM24.04,1.5C11.61,1.5,1.5,11.61,1.5,24.04v53.17h15.31V24.04c0-3.98,3.25-7.22,7.22-7.22h53.17V1.5H24.04"/>
    </g>
  </g>
</svg>