<?xml version="1.0" encoding="UTF-8"?>
<svg id="Layer_2" data-name="Layer 2" xmlns="http://www.w3.org/2000/svg" viewBox="0 0 240.87 286.54">
  <defs>
    <style>
      .cls-1 {
        fill-rule: evenodd;
        stroke: #000;
        stroke-miterlimit: 10;
        stroke-width: 3px;
      }
    </style>
  </defs>
  <g id="Layer_1-2" data-name="Layer 1">
    <path class="cls-1" d="M157.02,246.73l-39.22,28.71-28.63-21h3.04c2.35,0,4.26-1.95,4.26-4.31s-1.91-4.27-4.3-4.27l-16.52,.07c-1.16,.12-2.24,.68-2.97,1.67t-.03,.03c-.77,.77-1.06,2.54-.65,3.84l4.52,15.42c.69,2.28,3.07,3.54,5.35,2.9,2.28-.69,3.58-3.08,2.89-5.36l-.98-3.25,31.49,23.02c1.5,1.11,3.6,1.12,5.06,0l41.75-30.52c1.91-1.41,2.32-4.09,.91-6.01-1.38-1.92-4.06-2.32-5.97-.94Zm-60.77-54.88v-45.83c-15.55-.83-30.62-6.34-43.09-15.71-12.44,9.37-27.51,14.87-43.09,15.71v45.83c0,8.8,3.98,16.44,11.21,21.43l31.88,22.08,31.88-22.08c7.23-4.99,11.21-12.63,11.21-21.43Zm-6.33,28.5l-34.31,23.78c-1.44,1.01-3.41,1.02-4.88,0l-34.34-23.78c-9.62-6.66-14.89-16.76-14.89-28.5v-49.99c0-2.39,1.91-4.31,4.3-4.31,16.27,0,32.1-5.68,44.65-16.04,1.58-1.3,3.87-1.3,5.46,0,12.54,10.35,28.38,16.04,44.64,16.04,2.39,0,4.3,1.92,4.3,4.31v49.99c0,11.73-5.32,21.83-14.93,28.5Zm-16.52-40.47c0,11.54-9.36,20.92-20.9,20.92s-20.86-9.38-20.86-20.92,9.36-20.89,20.86-20.89c6.69,0,12.66,3.15,16.49,8.07l-16.34,14.77-7.77-7.79c-1.7-1.7-4.41-1.7-6.07,0-1.67,1.67-1.67,4.38,0,6.09l10.66,10.68c1.61,1.62,4.21,1.71,5.92,.14l17.46-15.82c.36,1.52,.54,3.12,.54,4.75Zm14.32-24c1.58,1.73,1.48,4.45-.29,6.04l-7.59,6.91c7.73,19.14-6.27,40.55-27.33,40.55-16.23,0-29.47-13.22-29.47-29.5s13.23-29.5,29.47-29.5c9.22,0,17.46,4.27,22.85,10.9l6.33-5.72c1.73-1.59,4.45-1.45,6.04,.33Zm149.92-53.43c-1.88-1.42-4.59-1.05-6,.87l-1.95,2.57V48.96c0-2.39-1.92-4.31-4.27-4.31h-40.05c-2.39,0-4.31,1.92-4.31,4.31s1.92,4.27,4.31,4.27h35.75v52.63l-1.91-2.57c-1.45-1.92-4.13-2.28-6.04-.87-1.88,1.41-2.28,4.13-.83,6.01l9.97,13.32c.07,.03,.15,.1,.22,.14v.04c1.61,1.46,4.06,1.49,5.71,.07l.65-.72,9.62-12.85c1.41-1.88,1.05-4.6-.87-6.01Zm-12.11,43.58c-15.55-.83-30.62-6.34-43.09-15.71-12.44,9.38-27.51,14.87-43.09,15.71v45.83c0,8.8,3.98,16.44,11.21,21.43l31.88,22.08,31.88-22.08c7.23-4.99,11.21-12.63,11.21-21.43v-45.83Zm8.6-4.16v49.99c0,11.73-5.31,21.83-14.93,28.5l-34.31,23.78c-1.44,1.01-3.41,1.02-4.88,0l-34.34-23.78c-9.62-6.66-14.89-16.76-14.89-28.5v-49.99c0-2.39,1.91-4.31,4.3-4.31,16.27,0,32.1-5.68,44.65-16.04,1.59-1.3,3.87-1.3,5.46,0,12.54,10.35,28.38,16.04,44.64,16.04,2.39,0,4.3,1.92,4.3,4.31Zm-52.35,17.13c6.69,0,12.66,3.15,16.49,8.07l-16.34,14.77-7.77-7.79c-1.66-1.7-4.41-1.7-6.07,0-1.66,1.67-1.66,4.38,0,6.09l10.66,10.68c1.62,1.62,4.21,1.71,5.92,.14l17.46-15.82c3.06,12.88-6.76,25.67-20.35,25.67-11.49,0-20.86-9.38-20.86-20.92s9.36-20.89,20.86-20.89Zm0-8.61c9.22,0,17.46,4.27,22.85,10.89l6.33-5.72c1.74-1.59,4.45-1.45,6.04,.32,1.59,1.74,1.48,4.46-.29,6.05l-7.59,6.91c7.73,19.14-6.27,40.54-27.33,40.54-16.23,0-29.46-13.21-29.46-29.5s13.23-29.5,29.46-29.5ZM96.29,60.84c0,11.51,9.36,20.89,20.86,20.89s20.9-9.38,20.9-20.89c0-1.63-.22-3.22-.54-4.74l-17.46,15.78c-1.69,1.55-4.28,1.51-5.93-.14l-10.66-10.68c-1.66-1.67-1.66-4.38,0-6.09,1.66-1.66,4.41-1.66,6.07,0l7.77,7.83,16.34-14.81c-3.84-4.89-9.8-8.07-16.49-8.07-11.5,0-20.86,9.38-20.86,20.92Zm-8.6,0c0-16.29,13.23-29.5,29.47-29.5,9.22,0,17.46,4.24,22.84,10.9l6.33-5.72c1.73-1.6,4.44-1.49,6.03,.28,1.59,1.78,1.48,4.49-.29,6.09l-7.59,6.87c7.74,19.38-6.42,40.54-27.33,40.54-16.23,0-29.47-13.21-29.47-29.47Zm-12.98,11.98V26.99c15.58-.87,30.66-6.38,43.09-15.75,12.48,9.37,27.55,14.87,43.09,15.75v45.83c0,8.8-3.98,16.4-11.21,21.39l-31.88,22.08-31.88-22.08c-7.23-4.99-11.21-12.6-11.21-21.39Zm-8.57,0c0,11.69,5.28,21.8,14.89,28.45l34.35,23.79c1.47,1.02,3.41,1,4.88,0l34.31-23.79c9.62-6.65,14.93-16.76,14.93-28.45V22.79c0-2.35-1.92-4.27-4.31-4.27-16.27,0-32.1-5.72-44.64-16.04-1.59-1.31-3.87-1.31-5.46,0-12.55,10.32-28.38,16.04-44.64,16.04-2.39,0-4.31,1.91-4.31,4.27v50.03ZM5.91,118.76c0,2.39,1.91,4.31,4.3,4.31s4.3-1.92,4.3-4.31V53.24h22.88l-2.56,1.95c-1.92,1.41-2.28,4.13-.87,6.01,1.41,1.92,4.13,2.28,6,.87l13.23-9.95c.07-.11,.18-.21,.25-.29,.23,0,1.1-1.55,1.13-2.82,.03-1.78-1.13-2.85-1.13-2.94-1-1-11.4-8.62-13.48-10.21-1.88-1.45-4.59-1.05-6,.83-1.41,1.91-1.05,4.59,.87,6.04l2.56,1.92H10.21c-2.39,0-4.3,1.92-4.3,4.31V118.76Z"/>
  </g>
</svg>