<?xml version="1.0" encoding="UTF-8"?>
<svg id="Layer_2" data-name="Layer 2" xmlns="http://www.w3.org/2000/svg" viewBox="0 0 276.88 276.88">
  <defs>
    <style>
      .cls-1 {
        stroke: #fff;
        stroke-miterlimit: 10;
      }
    </style>
  </defs>
  <g id="Layer_1-2" data-name="Layer 1">
    <g>
      <path class="cls-1" d="M65.06,209.2c4.95-5.21,8.04-12.21,8.04-19.94,0-16.02-13.03-29.04-29.04-29.04s-29.04,13.02-29.04,29.04c0,7.74,3.08,14.74,8.03,19.94C9.62,216.63,.5,230.93,.5,247.34v21.79c0,4.01,3.25,7.26,7.26,7.26H80.36c4.01,0,7.26-3.25,7.26-7.26v-21.79c0-16.4-9.12-30.71-22.56-38.14Zm-35.53-19.94c0-8,6.51-14.52,14.52-14.52s14.53,6.52,14.53,14.52-6.52,14.53-14.53,14.53-14.52-6.52-14.52-14.53Zm43.56,72.61H15.02v-14.53c0-16.02,13.03-29.04,29.04-29.04s29.04,13.02,29.04,29.04v14.53Z"/>
      <path class="cls-1" d="M253.84,209.18c4.94-5.21,8.02-12.2,8.02-19.93,0-13.49-9.29-24.76-21.78-28v-22.81c0-4.01-3.25-7.26-7.26-7.26h-36.3c-4.01,0-7.27,3.25-7.27,7.26s3.26,7.26,7.27,7.26h29.04v15.55c-12.49,3.25-21.78,14.51-21.78,28,0,7.74,3.08,14.74,8.03,19.94-13.43,7.43-22.56,21.73-22.56,38.14v21.79c0,4.01,3.26,7.26,7.27,7.26h29.04c4.01,0,7.26-3.25,7.26-7.26s-3.25-7.26-7.26-7.26h-21.78v-14.53c0-16.02,13.02-29.04,29.04-29.04,7.74,0,15.06,3.02,20.54,8.44,5.48,5.55,8.49,12.86,8.49,20.6v14.53h-7.26c-4,0-7.26,3.24-7.26,7.26s3.26,7.26,7.26,7.26h14.53c4,0,7.26-3.25,7.26-7.26v-21.79c0-11.58-4.51-22.52-12.76-30.86-2.95-2.92-6.25-5.34-9.78-7.29Zm-35.54-19.93c0-8,6.51-14.52,14.52-14.52s14.52,6.52,14.52,14.52-6.51,14.53-14.52,14.53-14.52-6.52-14.52-14.53Z"/>
      <path class="cls-1" d="M253.82,49.48c4.95-5.21,8.03-12.21,8.03-19.94,0-16.01-13.02-29.04-29.04-29.04s-29.04,13.03-29.04,29.04c0,7.74,3.08,14.74,8.03,19.94-13.43,7.42-22.56,21.73-22.56,38.14v21.78c0,4.01,3.26,7.26,7.27,7.26h72.6c4,0,7.26-3.25,7.26-7.26v-21.78c0-16.4-9.12-30.71-22.56-38.14Zm-35.53-19.94c0-8.01,6.51-14.52,14.52-14.52s14.52,6.51,14.52,14.52-6.51,14.52-14.52,14.52-14.52-6.51-14.52-14.52Zm43.56,72.6h-58.07v-14.52c0-16.02,13.02-29.04,29.04-29.04s29.04,13.02,29.04,29.04v14.52Z"/>
      <path class="cls-1" d="M80.36,87.62c-4.01,0-7.26,3.25-7.26,7.26v7.26H15.02v-14.52c0-16.02,13.03-29.04,29.04-29.04,7.74,0,15.06,3.02,20.57,8.47,.97,.97,1.83,2.01,2.63,3.1,2.37,3.22,6.92,3.91,10.16,1.53,3.23-2.38,3.91-6.92,1.53-10.15-1.23-1.67-2.55-3.26-4.07-4.77-2.96-2.92-6.26-5.34-9.79-7.29,4.94-5.21,8.02-12.2,8.02-19.93C73.1,13.53,60.07,.5,44.06,.5S15.02,13.53,15.02,29.54c0,7.74,3.08,14.74,8.04,19.94C9.62,56.91,.5,71.21,.5,87.62v21.78c0,4.01,3.25,7.26,7.26,7.26h29.04v21.79c0,4,3.26,7.26,7.26,7.26h36.3c4.01,0,7.26-3.26,7.26-7.26s-3.25-7.26-7.26-7.26h-29.04v-14.53h29.04c4.01,0,7.26-3.25,7.26-7.26v-14.52c0-4.01-3.25-7.26-7.26-7.26ZM29.54,29.54c0-8.01,6.51-14.52,14.52-14.52s14.53,6.51,14.53,14.52-6.52,14.52-14.53,14.52-14.52-6.51-14.52-14.52Z"/>
      <path class="cls-1" d="M159.45,129.34c4.95-5.21,8.03-12.21,8.03-19.94,0-16.01-13.03-29.04-29.04-29.04s-29.04,13.03-29.04,29.04c0,7.74,3.09,14.74,8.04,19.94-13.43,7.43-22.56,21.73-22.56,38.14v21.78c0,4.02,3.25,7.27,7.26,7.27h72.6c4.01,0,7.26-3.25,7.26-7.27v-21.78c0-16.4-9.12-30.71-22.55-38.14Zm-35.53-19.94c0-8.01,6.52-14.52,14.53-14.52s14.52,6.51,14.52,14.52-6.51,14.53-14.52,14.53-14.53-6.52-14.53-14.53Zm43.56,72.6h-58.08v-14.52c0-16.02,13.03-29.04,29.04-29.04s29.04,13.02,29.04,29.04v14.52Z"/>
      <path class="cls-1" d="M182,.5h-43.56c-4.01,0-7.26,3.25-7.26,7.26V58.58c0,4,3.25,7.26,7.26,7.26s7.26-3.26,7.26-7.26V15.02h36.3c4.01,0,7.26-3.25,7.26-7.26s-3.25-7.26-7.26-7.26Z"/>
      <path class="cls-1" d="M138.44,211.04c-4.01,0-7.26,3.25-7.26,7.26v21.78h-21.79c-4,0-7.26,3.25-7.26,7.26s3.26,7.26,7.26,7.26h29.04c4,0,7.26-3.24,7.26-7.26v-29.04c0-4.01-3.26-7.26-7.26-7.26Z"/>
    </g>
  </g>
</svg>