<?xml version="1.0" encoding="UTF-8" standalone="no"?>
<svg
   width="455.91412"
   zoomAndPan="magnify"
   viewBox="0 0 303.94275 126.89621"
   height="190.34431"
   preserveAspectRatio="xMidYMid"
   version="1.0"
   id="svg31"
   xmlns="http://www.w3.org/2000/svg"
   xmlns:svg="http://www.w3.org/2000/svg">
  <defs
     id="defs1">
    <clipPath
       id="23e5010b5b">
      <path
         d="m 95,133 h 73.81641 v 51 H 95 Z m 0,0"
         clip-rule="nonzero"
         id="path1" />
    </clipPath>
  </defs>
  <path
     fill="#ffffff"
     d="m 76.226562,30.417968 c -1,0 -1.988281,-0.09766 -2.96875,-0.292969 -0.980469,-0.195312 -1.929687,-0.484375 -2.851562,-0.867188 -0.925781,-0.378906 -1.800781,-0.847656 -2.628907,-1.402343 -0.832031,-0.554688 -1.601562,-1.1875 -2.304687,-1.894531 -0.707031,-0.703126 -1.339844,-1.472657 -1.894531,-2.304688 -0.554688,-0.828125 -1.023438,-1.703125 -1.402344,-2.628906 -0.382812,-0.921875 -0.671875,-1.871094 -0.867188,-2.851563 -0.195312,-0.980469 -0.292968,-1.96875 -0.292968,-2.96875 0,-0.996093 0.09766,-1.984375 0.292968,-2.964843 0.195313,-0.980469 0.484376,-1.929688 0.867188,-2.8554685 0.378906,-0.921875 0.847656,-1.796875 1.402344,-2.6289066 0.554687,-0.828124 1.1875,-1.597656 1.894531,-2.3046868 0.703125,-0.703125 1.472656,-1.335937 2.304687,-1.890625 0.828126,-0.554688 1.703126,-1.023438 2.628907,-1.40625 0.921875,-0.37890598 1.871093,-0.66796898 2.851562,-0.86328098 0.980469,-0.195313 1.96875,-0.29296900262835 2.96875,-0.29296900262835 0.996094,0 1.984375,0.0976560026284 2.964844,0.29296900262835 0.980469,0.195312 1.929687,0.484375 2.851565,0.86328098 0.92578,0.382812 1.80078,0.851562 2.63281,1.40625 0.82812,0.554688 1.59766,1.1875 2.30469,1.890625 0.70312,0.7070308 1.33593,1.4765628 1.89062,2.3046868 0.55469,0.8320316 1.02344,1.7070316 1.40625,2.6289066 0.37891,0.9257805 0.66797,1.8749995 0.86328,2.8554685 0.19532,0.980468 0.29297,1.96875 0.29297,2.964843 -0.004,1 -0.10937,1.984375 -0.30469,2.960938 -0.19921,0.980469 -0.49218,1.925781 -0.875,2.847656 -0.38281,0.921875 -0.85546,1.792969 -1.41015,2.621094 -0.55469,0.828125 -1.1836,1.597656 -1.89063,2.300781 -0.70312,0.707031 -1.46875,1.335938 -2.29687,1.890625 -0.82813,0.554687 -1.70313,1.023437 -2.625,1.410156 -0.91797,0.382813 -1.867189,0.675781 -2.843751,0.871094 -0.980469,0.199219 -1.964844,0.300781 -2.960938,0.308594 z m 0,-28.4726559 c -0.875,0 -1.738281,0.082032 -2.589843,0.246094 -0.855469,0.167969 -1.6875,0.417969 -2.492188,0.75 -0.808594,0.332032 -1.574219,0.738282 -2.300781,1.21875 -0.722657,0.484375 -1.394531,1.0312498 -2.015625,1.6445318 -0.617188,0.617187 -1.167969,1.285156 -1.652344,2.0078116 -0.488281,0.722656 -0.898438,1.488281 -1.234375,2.2929685 -0.335937,0.804687 -0.589844,1.632812 -0.761719,2.488281 -0.171875,0.851562 -0.257812,1.714844 -0.257812,2.585938 -0.0039,0.871093 0.08203,1.734374 0.25,2.589843 0.167968,0.855469 0.417968,1.6875 0.75,2.492188 0.332031,0.804687 0.738281,1.570312 1.222656,2.296875 0.480469,0.722656 1.03125,1.394531 1.644531,2.011718 0.617188,0.617188 1.285157,1.167969 2.011719,1.65625 0.722656,0.484376 1.488281,0.894532 2.289062,1.226563 0.804688,0.335937 1.636719,0.589844 2.492188,0.757813 0.851562,0.171874 1.714844,0.257812 2.585938,0.261718 0.871093,0 1.734374,-0.08594 2.589843,-0.253906 0.855469,-0.167969 1.6875,-0.421875 2.492188,-0.753906 0.804691,-0.332032 1.570311,-0.742188 2.292971,-1.222656 0.72656,-0.484376 1.39843,-1.035157 2.01172,-1.652344 0.61718,-0.613282 1.16796,-1.285156 1.65234,-2.007813 0.48437,-0.726562 0.89453,-1.488281 1.22656,-2.296875 0.33594,-0.804687 0.58594,-1.632812 0.75781,-2.488281 0.16797,-0.855469 0.25391,-1.71875 0.25391,-2.589844 0,-0.867187 -0.0859,-1.726562 -0.25781,-2.578125 -0.16797,-0.855468 -0.41797,-1.679687 -0.75,-2.484375 -0.33203,-0.8007805 -0.74219,-1.5664055 -1.22266,-2.2890615 -0.48047,-0.7226566 -1.03125,-1.3906246 -1.64453,-2.0078126 -0.61328,-0.613281 -1.28125,-1.1640618 -2,-1.6484368 -0.72266,-0.484375 -1.48437,-0.894531 -2.285155,-1.226563 -0.800781,-0.335937 -1.628906,-0.589844 -2.480469,-0.761718 -0.851562,-0.171876 -1.710937,-0.261719 -2.578125,-0.265626 z m 0,0"
     fill-opacity="1"
     fill-rule="nonzero"
     id="path2"
     style="fill:#ffffff" />
  <path
     fill="#ffffff"
     d="m 26.886719,126.82422 c -0.855469,0.0664 -1.710938,0.0859 -2.570313,0.0625 -0.859375,-0.0273 -1.714844,-0.0937 -2.5625,-0.20703 -0.851563,-0.11328 -1.695313,-0.26563 -2.53125,-0.46484 -0.835937,-0.19922 -1.65625,-0.44141 -2.46875,-0.72657 -0.808594,-0.28125 -1.601563,-0.60547 -2.378906,-0.97265 -0.777344,-0.36328 -1.535157,-0.76953 -2.269531,-1.21094 -0.734376,-0.44531 -1.445313,-0.92578 -2.1328135,-1.44141 -0.683594,-0.51562 -1.34375,-1.0664 -1.972656,-1.64843 -0.628907,-0.58594 -1.226563,-1.19922 -1.792969,-1.84766 -0.566406,-0.64453 -1.097656,-1.31641 -1.59375,-2.01563 -0.496094,-0.70312 -0.953125,-1.42578 -1.378906,-2.17187 -0.421875,-0.75 -0.804688,-1.51563 -1.148438,-2.30078 -0.3398438,-0.78906 -0.6445308,-1.58985 -0.9023438,-2.41016 -0.26171794,-0.8164 -0.48046794,-1.64453 -0.65624994,-2.48828 -0.175781,-0.83984 -0.304687,-1.6875 -0.394531,-2.53906 -0.08984,-0.85547 -0.13281199981442,-1.71094 -0.13281199981442,-2.57031 0,-0.85938 0.0429699998144,-1.71485 0.13281199981442,-2.566411 0.08984,-0.85547 0.21875,-1.70313 0.394531,-2.542971 0.175782,-0.83984 0.394532,-1.667969 0.65624994,-2.488281 0.257813,-0.816407 0.5625,-1.621094 0.9023438,-2.40625 0.34375,-0.789063 0.726563,-1.554688 1.148438,-2.300782 0.425781,-0.75 0.882812,-1.472656 1.378906,-2.171875 0.496094,-0.699219 1.027344,-1.375 1.59375,-2.019531 0.566406,-0.644531 1.164062,-1.261719 1.792969,-1.84375 0.628906,-0.585938 1.289062,-1.132812 1.972656,-1.652344 0.6875005,-0.515625 1.3984375,-0.996094 2.1328135,-1.4375 0.734374,-0.445312 1.492187,-0.847656 2.269531,-1.214844 0.777343,-0.363281 1.570312,-0.6875 2.378906,-0.972656 0.8125,-0.28125 1.632813,-0.523437 2.46875,-0.722656 0.835937,-0.199219 1.679687,-0.355469 2.53125,-0.46875 0.847656,-0.109375 1.703125,-0.179688 2.5625,-0.203125 0.859375,-0.02344 1.714844,-0.0039 2.570313,0.05859 13.320312,0 48.238281,23.175786 49.714843,24.148446 0.289063,0.1914 0.429688,0.46094 0.429688,0.80469 0.0078,0.35156 -0.136719,0.62109 -0.429688,0.80859 -1.476562,0.98437 -36.394531,24.14453 -49.714843,24.14453 z m 0,-47.96094 c -0.753907,0 -1.503907,0.03906 -2.253907,0.113281 -0.75,0.07422 -1.496093,0.183594 -2.234375,0.332032 -0.738281,0.144531 -1.46875,0.328125 -2.191406,0.546875 -0.71875,0.21875 -1.429688,0.472656 -2.125,0.761719 -0.695312,0.289062 -1.375,0.609374 -2.039062,0.964843 -0.664063,0.355469 -1.3125,0.742188 -1.9375,1.160157 -0.625,0.417968 -1.230469,0.867187 -1.8125,1.34375 -0.582032,0.480468 -1.140626,0.984374 -1.675782,1.515624 -0.53125,0.535157 -1.0351565,1.09375 -1.5156255,1.675782 -0.476562,0.582031 -0.925781,1.1875 -1.34375,1.8125 -0.417969,0.625 -0.804687,1.273437 -1.160156,1.9375 -0.355469,0.664062 -0.679687,1.34375 -0.964844,2.039062 -0.289062,0.699219 -0.542969,1.40625 -0.761719,2.128903 -0.21875,0.71875 -0.402343,1.44922 -0.550781,2.1875 -0.144531,0.738291 -0.253906,1.484381 -0.328125,2.234381 -0.07422,0.750001 -0.113281,1.500001 -0.113281,2.253911 0,0.7539 0.03906,1.50781 0.113281,2.25781 0.07422,0.75 0.183594,1.49219 0.328125,2.23047 0.148438,0.74218 0.332031,1.46875 0.550781,2.1914 0.21875,0.72266 0.472657,1.42969 0.761719,2.125 0.285157,0.69532 0.609375,1.37891 0.964844,2.04297 0.355469,0.66406 0.742187,1.3086 1.160156,1.9375 0.417969,0.625 0.867188,1.23047 1.34375,1.8125 0.480469,0.58203 0.9843755,1.14063 1.5156255,1.67188 0.535156,0.53125 1.09375,1.03906 1.675782,1.51562 0.582031,0.48047 1.1875,0.92578 1.8125,1.34766 0.625,0.41797 1.273437,0.80469 1.9375,1.16015 0.664062,0.35547 1.34375,0.67579 2.039062,0.96485 0.695312,0.28906 1.40625,0.54297 2.125,0.76172 0.722656,0.21875 1.453125,0.39843 2.191406,0.54687 0.738282,0.14844 1.484375,0.25781 2.234375,0.33203 0.75,0.0742 1.5,0.10938 2.253907,0.10938 11.441406,0 41.050781,-18.83594 47.460937,-23.00781 C 67.871093,97.703129 38.257812,78.86328 26.886719,78.86328 Z m 0,0"
     fill-opacity="1"
     fill-rule="nonzero"
     id="path3"
     style="fill:#ffffff" />
  <g
     clip-path="url(#23e5010b5b)"
     id="g4"
     style="fill:#ffffff"
     transform="translate(-20.011719,-56.562501)">
    <path
       fill="#ffffff"
       d="m 145.60156,183.38672 c -13.38672,0 -48.308591,-23.16016 -49.781248,-24.14453 -0.296874,-0.1875 -0.441406,-0.45703 -0.433593,-0.8086 0,-0.34375 0.144531,-0.61328 0.433593,-0.80468 1.515626,-0.97266 36.437498,-24.14844 49.781248,-24.14844 0.77735,0.0586 1.55078,0.15234 2.32031,0.28515 0.76954,0.12891 1.53516,0.29688 2.28907,0.4961 0.7539,0.20312 1.49609,0.4414 2.22656,0.71094 0.73047,0.26953 1.44922,0.57812 2.15234,0.91406 0.70313,0.33984 1.39063,0.71094 2.0586,1.11328 0.66797,0.40234 1.3164,0.83594 1.94531,1.29687 0.62891,0.46485 1.23437,0.95704 1.81641,1.47657 0.58203,0.51953 1.13671,1.0664 1.66796,1.64062 0.53125,0.57031 1.03516,1.16797 1.51172,1.78516 0.47266,0.62109 0.91797,1.25781 1.33594,1.92187 0.41406,0.66016 0.79688,1.33985 1.14844,2.03516 0.35156,0.69531 0.67187,1.41016 0.95703,2.13672 0.28516,0.72656 0.53516,1.46484 0.75,2.21484 0.21875,0.75 0.39844,1.50781 0.54297,2.27344 0.14453,0.76562 0.2539,1.53906 0.32812,2.31641 0.0742,0.77734 0.10938,1.55468 0.10938,2.33593 0,0.78125 -0.0352,1.5586 -0.10938,2.33594 -0.0742,0.77734 -0.18359,1.55078 -0.32812,2.31641 -0.14453,0.76953 -0.32422,1.52734 -0.54297,2.27734 -0.21484,0.75 -0.46484,1.48828 -0.75,2.21484 -0.28516,0.72657 -0.60547,1.4375 -0.95703,2.13672 -0.35156,0.69532 -0.73438,1.375 -1.14844,2.03516 -0.41797,0.66016 -0.86328,1.30078 -1.33594,1.91797 -0.47656,0.62109 -0.98047,1.21875 -1.51172,1.78906 -0.53125,0.57031 -1.08593,1.11719 -1.66796,1.63672 -0.58204,0.52344 -1.1875,1.01172 -1.81641,1.47656 -0.62891,0.46485 -1.27734,0.89844 -1.94531,1.30078 -0.66797,0.40235 -1.35547,0.77344 -2.0586,1.10938 -0.70312,0.33984 -1.42187,0.64453 -2.15234,0.91797 -0.73047,0.26953 -1.47266,0.50781 -2.22656,0.70703 -0.75391,0.20312 -1.51953,0.37109 -2.28907,0.5 -0.76953,0.1289 -1.54296,0.22656 -2.32031,0.28125 z M 98.128906,158.36328 c 6.460934,4.24219 36.074214,23.07813 47.472654,23.07813 0.75391,0 1.50391,-0.0352 2.25391,-0.10938 0.75,-0.0742 1.49609,-0.18359 2.23437,-0.33203 0.73828,-0.14844 1.46875,-0.32813 2.19141,-0.54688 0.71875,-0.21875 1.42969,-0.47265 2.125,-0.76171 0.69531,-0.28907 1.375,-0.60938 2.04297,-0.96485 0.66406,-0.35547 1.30859,-0.74219 1.93359,-1.16015 0.62891,-0.42188 1.23047,-0.86719 1.81641,-1.34766 0.58203,-0.47656 1.13672,-0.98438 1.67187,-1.51563 0.53125,-0.53125 1.03907,-1.08984 1.51563,-1.67187 0.47656,-0.58203 0.92578,-1.1875 1.34375,-1.8125 0.41797,-0.62891 0.80859,-1.27344 1.16015,-1.9375 0.35547,-0.66406 0.67969,-1.34766 0.96875,-2.04297 0.28516,-0.69531 0.53907,-1.40234 0.75782,-2.125 0.21875,-0.72266 0.40234,-1.44922 0.55078,-2.19141 0.14453,-0.73828 0.25781,-1.48046 0.33203,-2.23046 0.0703,-0.75 0.10937,-1.50391 0.10937,-2.25782 0,-0.7539 -0.0391,-1.5039 -0.10937,-2.2539 -0.0742,-0.75 -0.1875,-1.4961 -0.33203,-2.23438 -0.14844,-0.73828 -0.33203,-1.46875 -0.55078,-2.1875 -0.21875,-0.72265 -0.47266,-1.42969 -0.75782,-2.1289 -0.28906,-0.69532 -0.61328,-1.375 -0.96875,-2.03907 -0.35156,-0.66406 -0.74218,-1.3125 -1.16015,-1.9375 -0.41797,-0.625 -0.86719,-1.23047 -1.34375,-1.8125 -0.47656,-0.58203 -0.98438,-1.14062 -1.51563,-1.67578 -0.53515,-0.53125 -1.08984,-1.03515 -1.67187,-1.51562 -0.58594,-0.47657 -1.1875,-0.92578 -1.81641,-1.34375 -0.625,-0.41797 -1.26953,-0.80469 -1.93359,-1.16016 -0.66797,-0.35547 -1.34766,-0.67578 -2.04297,-0.96484 -0.69531,-0.28907 -1.40625,-0.54297 -2.125,-0.76172 -0.72266,-0.21875 -1.45313,-0.40235 -2.19141,-0.54688 -0.73828,-0.14843 -1.48437,-0.25781 -2.23437,-0.33203 -0.75,-0.0742 -1.5,-0.11328 -2.25391,-0.11328 -11.39844,0 -41.01172,18.83984 -47.433591,23.00781 z m 0,0"
       fill-opacity="1"
       fill-rule="nonzero"
       id="path4"
       style="fill:#ffffff" />
  </g>
  <path
     fill="#ffffff"
     d="M 76.058593,94.531249 C 75.851562,94.527349 75.667969,94.464839 75.5,94.347655 75.332031,94.226561 75.210937,94.070311 75.140625,93.878905 72.664062,87.039061 66.007812,81.367187 59.570312,75.929687 49.628906,67.546874 39.398437,58.83203 43.667969,45.320311 c 0.21875,-0.8125 0.503906,-1.601562 0.855468,-2.367187 0.351563,-0.765625 0.765625,-1.492187 1.242188,-2.1875 0.476562,-0.691406 1.007812,-1.339844 1.597656,-1.945313 0.585938,-0.601562 1.21875,-1.152343 1.902344,-1.648437 0.679687,-0.496094 1.394531,-0.929687 2.152344,-1.300781 0.753906,-0.375 1.535156,-0.679688 2.339843,-0.921875 0.808594,-0.238281 1.628907,-0.410157 2.464844,-0.511719 0.835937,-0.09766 1.671875,-0.128906 2.515625,-0.08594 1.050781,0.05469 2.09375,0.195313 3.125,0.414063 1.035156,0.222656 2.042969,0.523437 3.027344,0.90625 0.980468,0.382813 1.929687,0.839844 2.839844,1.371094 0.914062,0.53125 1.777343,1.132812 2.59375,1.800781 0.816406,0.667969 1.574218,1.398438 2.273437,2.1875 0.703125,0.789062 1.335937,1.628906 1.902344,2.519531 0.566406,0.890625 1.0625,1.820313 1.480469,2.785157 0.421874,0.96875 0.761718,1.964843 1.023437,2.988281 0.06641,0.261719 0.02734,0.507812 -0.109375,0.738281 -0.140625,0.230469 -0.339844,0.378906 -0.601562,0.441406 -0.257813,0.06641 -0.503907,0.03125 -0.734376,-0.109375 -0.234374,-0.136719 -0.378906,-0.335937 -0.445312,-0.597656 -0.234375,-0.921875 -0.542969,-1.820313 -0.917969,-2.691406 -0.378906,-0.875 -0.820312,-1.710938 -1.332031,-2.511719 -0.511719,-0.804688 -1.082031,-1.558594 -1.710938,-2.273438 -0.632812,-0.710937 -1.3125,-1.367187 -2.046874,-1.96875 -0.738282,-0.605468 -1.515626,-1.148437 -2.335938,-1.625 -0.820312,-0.480468 -1.675781,-0.894531 -2.558594,-1.238281 -0.886718,-0.34375 -1.796875,-0.613281 -2.726562,-0.816406 -0.929688,-0.199219 -1.867188,-0.324219 -2.816406,-0.375 -6.285157,-0.207031 -11.121094,3.394531 -13.152344,9.605469 -3.90625,12.289062 5.421875,20.199218 15.292968,28.582031 6.628907,5.632813 13.484376,11.457031 16.140626,18.78125 0.08594,0.253906 0.07422,0.5 -0.03906,0.738281 -0.113281,0.242188 -0.296875,0.410156 -0.546875,0.5 -0.101562,0.02734 -0.203125,0.03516 -0.304688,0.02734 z m 0,0"
     fill-opacity="1"
     fill-rule="nonzero"
     id="path5"
     style="fill:#ffffff" />
  <path
     fill="#ffffff"
     d="m 76.058593,94.531249 c -0.113281,0.01953 -0.222656,0.01953 -0.335937,0 -0.25,-0.08984 -0.429687,-0.257812 -0.542969,-0.496094 -0.113281,-0.242187 -0.128906,-0.488281 -0.03906,-0.742187 2.65625,-7.324219 9.523434,-13.148438 16.152344,-18.78125 9.886719,-8.339844 19.226559,-16.292969 15.292969,-28.582031 -0.1875,-0.710938 -0.4336,-1.402344 -0.73829,-2.070313 -0.30859,-0.667969 -0.66796,-1.308594 -1.08203,-1.914063 -0.41406,-0.609374 -0.8789,-1.179687 -1.39062,-1.707031 -0.51172,-0.527343 -1.06641,-1.011719 -1.66016,-1.445312 -0.59375,-0.433594 -1.21875,-0.8125 -1.878896,-1.140625 -0.66016,-0.328125 -1.34375,-0.59375 -2.04688,-0.804688 -0.70703,-0.210937 -1.42578,-0.359375 -2.15625,-0.449218 -0.73047,-0.08594 -1.46094,-0.109376 -2.19922,-0.07422 -0.94922,0.05078 -1.886723,0.175781 -2.816403,0.378906 -0.92969,0.199219 -1.83594,0.46875 -2.72266,0.8125 -0.88672,0.347656 -1.74219,0.757813 -2.5625,1.238281 -0.82031,0.480469 -1.59766,1.019532 -2.33203,1.625 -0.73828,0.601563 -1.41797,1.257813 -2.05078,1.972656 -0.628907,0.710938 -1.199219,1.464844 -1.710938,2.269532 -0.507812,0.800781 -0.953125,1.640625 -1.332031,2.511718 -0.375,0.871094 -0.683594,1.769532 -0.917969,2.691407 -0.02734,0.125 -0.08203,0.242187 -0.15625,0.347656 -0.07813,0.105469 -0.171875,0.191406 -0.285156,0.257813 -0.109375,0.06641 -0.230469,0.109374 -0.359375,0.125 -0.128907,0.01953 -0.253907,0.01172 -0.378907,-0.02344 -0.261718,-0.0625 -0.460937,-0.210938 -0.601562,-0.441406 -0.136719,-0.230469 -0.175781,-0.476563 -0.109375,-0.738282 0.261719,-1.023437 0.601563,-2.023437 1.023437,-2.992187 0.417969,-0.972656 0.910157,-1.902344 1.480469,-2.796875 0.566407,-0.890625 1.199219,-1.730469 1.902344,-2.523438 0.703125,-0.792968 1.460937,-1.523437 2.277343,-2.191406 0.82031,-0.671875 1.68359,-1.273437 2.59765,-1.804687 0.91407,-0.535157 1.86329,-0.992188 2.84766,-1.371094 0.98828,-0.382813 1.99609,-0.683594 3.03125,-0.90625 1.03516,-0.222656 2.078133,-0.359375 3.136723,-0.414063 7.171866,-0.265624 12.800776,3.863282 15.070306,10.96875 4.3086,13.511719 -5.98047,22.242188 -15.917966,30.582032 -6.437503,5.464844 -13.097653,11.121094 -15.57031,17.949218 -0.0625,0.199219 -0.179687,0.363282 -0.347656,0.488282 -0.171875,0.125 -0.359375,0.191406 -0.570313,0.191406 z m 0,0"
     fill-opacity="1"
     fill-rule="nonzero"
     id="path6"
     style="fill:#ffffff" />
  <g
     fill="#ffffff"
     fill-opacity="1"
     id="g15"
     style="fill:#ffffff"
     transform="translate(-20.011719,-56.562501)">
    <g
       transform="translate(205.11327,104.67651)"
       id="g8"
       style="fill:#ffffff">
      <g
         id="g7"
         style="fill:#ffffff">
        <path
           d="M 14.203125,-10.125 V 0 h -2.15625 V -10.125 L 0.203125,-29.40625 H 2.5625 l 10.625,17.3125 10.625,-17.3125 h 2.234375 z m 0,0"
           id="path7"
           style="fill:#ffffff" />
      </g>
    </g>
    <g
       transform="translate(231.36327,104.67651)"
       id="g10"
       style="fill:#ffffff">
      <g
         id="g9"
         style="fill:#ffffff">
        <path
           d="M 13.015625,0.171875 C 10.941406,0.171875 9.070312,-0.300781 7.40625,-1.25 5.738281,-2.207031 4.429688,-3.53125 3.484375,-5.21875 2.535156,-6.914062 2.0625,-8.832031 2.0625,-10.96875 c 0,-2.125 0.472656,-4.03125 1.421875,-5.71875 0.945313,-1.695312 2.253906,-3.019531 3.921875,-3.96875 1.664062,-0.957031 3.535156,-1.4375 5.609375,-1.4375 2.070313,0 3.941406,0.480469 5.609375,1.4375 1.664062,0.949219 2.972656,2.273438 3.921875,3.96875 0.957031,1.6875 1.4375,3.59375 1.4375,5.71875 0,2.136719 -0.480469,4.054688 -1.4375,5.75 -0.949219,1.6875 -2.257813,3.011719 -3.921875,3.96875 -1.667969,0.949219 -3.539062,1.421875 -5.609375,1.421875 z m 0,-1.890625 c 1.6875,0 3.191406,-0.390625 4.515625,-1.171875 1.332031,-0.789063 2.382812,-1.882813 3.15625,-3.28125 0.769531,-1.40625 1.15625,-3.003906 1.15625,-4.796875 0,-1.789062 -0.386719,-3.382812 -1.15625,-4.78125 -0.773438,-1.394531 -1.824219,-2.484375 -3.15625,-3.265625 -1.324219,-0.789063 -2.828125,-1.1875 -4.515625,-1.1875 -1.679687,0 -3.183594,0.398437 -4.515625,1.1875 -1.324219,0.78125 -2.371094,1.871094 -3.140625,3.265625 -0.773437,1.398438 -1.15625,2.992188 -1.15625,4.78125 0,1.792969 0.382813,3.390625 1.15625,4.796875 0.769531,1.398437 1.816406,2.492187 3.140625,3.28125 1.332031,0.78125 2.835938,1.171875 4.515625,1.171875 z m 0,0"
           id="path8"
           style="fill:#ffffff" />
      </g>
    </g>
    <g
       transform="translate(257.40327,104.67651)"
       id="g12"
       style="fill:#ffffff">
      <g
         id="g11"
         style="fill:#ffffff">
        <path
           d="m 24.1875,-21.921875 v 19.5625 c 0,3.644531 -0.882812,6.332031 -2.640625,8.0625 C 19.785156,7.441406 17.125,8.3125 13.5625,8.3125 11.550781,8.3125 9.648438,8.003906 7.859375,7.390625 6.066406,6.773438 4.625,5.921875 3.53125,4.828125 l 1.125,-1.59375 c 1.09375,1.007813 2.410156,1.789063 3.953125,2.34375 1.539063,0.5625 3.179687,0.84375 4.921875,0.84375 2.90625,0 5.054688,-0.695313 6.453125,-2.078125 1.40625,-1.386719 2.109375,-3.53125 2.109375,-6.4375 v -3.703125 c -0.898438,1.59375 -2.148438,2.828125 -3.75,3.703125 -1.59375,0.867188 -3.382812,1.296875 -5.359375,1.296875 -2.054687,0 -3.914063,-0.453125 -5.578125,-1.359375 -1.667969,-0.914062 -2.976562,-2.1875 -3.921875,-3.8125 -0.949219,-1.625 -1.421875,-3.457031 -1.421875,-5.5 0,-2.039062 0.472656,-3.875 1.421875,-5.5 0.945313,-1.625 2.253906,-2.882812 3.921875,-3.78125 1.664062,-0.894531 3.523438,-1.34375 5.578125,-1.34375 2.007813,0 3.828125,0.449219 5.453125,1.34375 1.625,0.898438 2.867188,2.15625 3.734375,3.78125 v -4.953125 z M 13.140625,-2.6875 c 1.707031,0 3.25,-0.367188 4.625,-1.109375 1.375,-0.738281 2.445313,-1.773437 3.21875,-3.109375 0.769531,-1.332031 1.15625,-2.851562 1.15625,-4.5625 0,-1.707031 -0.386719,-3.21875 -1.15625,-4.53125 -0.773437,-1.3125 -1.84375,-2.335938 -3.21875,-3.078125 -1.375,-0.75 -2.917969,-1.125 -4.625,-1.125 -1.710937,0 -3.242187,0.375 -4.59375,1.125 -1.355469,0.742187 -2.417969,1.765625 -3.1875,3.078125 -0.773437,1.3125 -1.15625,2.824219 -1.15625,4.53125 0,1.710938 0.382813,3.230469 1.15625,4.5625 0.769531,1.335938 1.832031,2.371094 3.1875,3.109375 1.351563,0.742187 2.882813,1.109375 4.59375,1.109375 z m 0,0"
           id="path10"
           style="fill:#ffffff" />
      </g>
    </g>
    <g
       transform="translate(286.04727,104.67651)"
       id="g14"
       style="fill:#ffffff">
      <g
         id="g13"
         style="fill:#ffffff">
        <path
           d="m 11.84375,-22.09375 c 2.71875,0 4.800781,0.695312 6.25,2.078125 1.457031,1.386719 2.1875,3.421875 2.1875,6.109375 V 0 h -2.015625 v -3.90625 c -0.699219,1.292969 -1.71875,2.296875 -3.0625,3.015625 -1.34375,0.710937 -2.953125,1.0625 -4.828125,1.0625 -2.4375,0 -4.367188,-0.570313 -5.78125,-1.71875 C 3.1875,-2.703125 2.484375,-4.21875 2.484375,-6.09375 c 0,-1.8125 0.648437,-3.285156 1.953125,-4.421875 1.300781,-1.132813 3.378906,-1.703125 6.234375,-1.703125 H 18.1875 v -1.765625 c 0,-2.039063 -0.554688,-3.59375 -1.65625,-4.65625 C 15.425781,-19.710938 13.804688,-20.25 11.671875,-20.25 c -1.460937,0 -2.855469,0.257812 -4.1875,0.765625 -1.324219,0.5 -2.449219,1.171875 -3.375,2.015625 L 3.0625,-18.984375 c 1.09375,-0.976563 2.410156,-1.738281 3.953125,-2.28125 1.539063,-0.550781 3.148437,-0.828125 4.828125,-0.828125 z m -1.171875,20.546875 c 1.8125,0 3.351563,-0.421875 4.625,-1.265625 1.28125,-0.84375 2.242187,-2.0625 2.890625,-3.65625 v -4.109375 h -7.484375 c -2.15625,0 -3.71875,0.390625 -4.6875,1.171875 -0.960937,0.78125 -1.4375,1.859375 -1.4375,3.234375 0,1.429687 0.53125,2.558594 1.59375,3.390625 1.0625,0.824219 2.5625,1.234375 4.5,1.234375 z m 0,0"
           id="path12"
           style="fill:#ffffff" />
      </g>
    </g>
  </g>
  <g
     fill="#ffffff"
     fill-opacity="1"
     id="g20"
     style="fill:#ffffff"
     transform="translate(-20.011719,-56.562501)">
    <g
       transform="translate(187.49999,163.1765)"
       id="g17"
       style="fill:#ffffff">
      <g
         id="g16"
         style="fill:#ffffff">
        <path
           d="M 29.0625,-29.40625 V 0 H 27.296875 L 7.265625,-25.53125 V 0 H 5.125 V -29.40625 H 6.9375 L 26.921875,-3.859375 V -29.40625 Z m 0,0"
           id="path15"
           style="fill:#ffffff" />
      </g>
    </g>
    <g
       transform="translate(221.68799,163.1765)"
       id="g19"
       style="fill:#ffffff">
      <g
         id="g18"
         style="fill:#ffffff">
        <path
           d="m 11.84375,-22.09375 c 2.71875,0 4.800781,0.695312 6.25,2.078125 1.457031,1.386719 2.1875,3.421875 2.1875,6.109375 V 0 h -2.015625 v -3.90625 c -0.699219,1.292969 -1.71875,2.296875 -3.0625,3.015625 -1.34375,0.710937 -2.953125,1.0625 -4.828125,1.0625 -2.4375,0 -4.367188,-0.570313 -5.78125,-1.71875 C 3.1875,-2.703125 2.484375,-4.21875 2.484375,-6.09375 c 0,-1.8125 0.648437,-3.285156 1.953125,-4.421875 1.300781,-1.132813 3.378906,-1.703125 6.234375,-1.703125 H 18.1875 v -1.765625 c 0,-2.039063 -0.554688,-3.59375 -1.65625,-4.65625 C 15.425781,-19.710938 13.804688,-20.25 11.671875,-20.25 c -1.460937,0 -2.855469,0.257812 -4.1875,0.765625 -1.324219,0.5 -2.449219,1.171875 -3.375,2.015625 L 3.0625,-18.984375 c 1.09375,-0.976563 2.410156,-1.738281 3.953125,-2.28125 1.539063,-0.550781 3.148437,-0.828125 4.828125,-0.828125 z m -1.171875,20.546875 c 1.8125,0 3.351563,-0.421875 4.625,-1.265625 1.28125,-0.84375 2.242187,-2.0625 2.890625,-3.65625 v -4.109375 h -7.484375 c -2.15625,0 -3.71875,0.390625 -4.6875,1.171875 -0.960937,0.78125 -1.4375,1.859375 -1.4375,3.234375 0,1.429687 0.53125,2.558594 1.59375,3.390625 1.0625,0.824219 2.5625,1.234375 4.5,1.234375 z m 0,0"
           id="path17"
           style="fill:#ffffff" />
      </g>
    </g>
  </g>
  <g
     fill="#ffffff"
     fill-opacity="1"
     id="g23"
     style="fill:#ffffff"
     transform="translate(-20.011719,-56.562501)">
    <g
       transform="translate(246.17398,163.1765)"
       id="g22"
       style="fill:#ffffff">
      <g
         id="g21"
         style="fill:#ffffff">
        <path
           d="m 15.328125,-1.390625 c -0.53125,0.511719 -1.199219,0.902344 -2,1.171875 -0.792969,0.2578125 -1.621094,0.390625 -2.484375,0.390625 -1.90625,0 -3.382812,-0.523437 -4.421875,-1.578125 C 5.390625,-2.457031 4.875,-3.921875 4.875,-5.796875 V -20.125 H 0.84375 v -1.796875 H 4.875 v -4.796875 h 2.09375 v 4.796875 H 13.9375 V -20.125 H 6.96875 V -6 c 0,1.429688 0.34375,2.511719 1.03125,3.25 0.6875,0.742188 1.703125,1.109375 3.046875,1.109375 1.375,0 2.507813,-0.40625 3.40625,-1.21875 z m 0,0"
           id="path20"
           style="fill:#ffffff" />
      </g>
    </g>
  </g>
  <g
     fill="#ffffff"
     fill-opacity="1"
     id="g26"
     style="fill:#ffffff"
     transform="translate(-20.011719,-56.562501)">
    <g
       transform="translate(262.88998,163.1765)"
       id="g25"
       style="fill:#ffffff">
      <g
         id="g24"
         style="fill:#ffffff">
        <path
           d="m 4.453125,-21.921875 h 2.09375 V 0 h -2.09375 z m 1.0625,-5.34375 c -0.480469,0 -0.890625,-0.15625 -1.234375,-0.46875 -0.335938,-0.320313 -0.5,-0.722656 -0.5,-1.203125 0,-0.476562 0.164062,-0.882812 0.5,-1.21875 0.34375,-0.332031 0.753906,-0.5 1.234375,-0.5 0.46875,0 0.867187,0.164062 1.203125,0.484375 0.34375,0.324219 0.515625,0.71875 0.515625,1.1875 0,0.480469 -0.171875,0.886719 -0.515625,1.21875 -0.335938,0.335937 -0.734375,0.5 -1.203125,0.5 z m 0,0"
           id="path23"
           style="fill:#ffffff" />
      </g>
    </g>
  </g>
  <g
     fill="#ffffff"
     fill-opacity="1"
     id="g31"
     style="fill:#ffffff"
     transform="translate(-20.011719,-56.562501)">
    <g
       transform="translate(273.85198,163.1765)"
       id="g28"
       style="fill:#ffffff">
      <g
         id="g27"
         style="fill:#ffffff">
        <path
           d="M 13.015625,0.171875 C 10.941406,0.171875 9.070312,-0.300781 7.40625,-1.25 5.738281,-2.207031 4.429688,-3.53125 3.484375,-5.21875 2.535156,-6.914062 2.0625,-8.832031 2.0625,-10.96875 c 0,-2.125 0.472656,-4.03125 1.421875,-5.71875 0.945313,-1.695312 2.253906,-3.019531 3.921875,-3.96875 1.664062,-0.957031 3.535156,-1.4375 5.609375,-1.4375 2.070313,0 3.941406,0.480469 5.609375,1.4375 1.664062,0.949219 2.972656,2.273438 3.921875,3.96875 0.957031,1.6875 1.4375,3.59375 1.4375,5.71875 0,2.136719 -0.480469,4.054688 -1.4375,5.75 -0.949219,1.6875 -2.257813,3.011719 -3.921875,3.96875 -1.667969,0.949219 -3.539062,1.421875 -5.609375,1.421875 z m 0,-1.890625 c 1.6875,0 3.191406,-0.390625 4.515625,-1.171875 1.332031,-0.789063 2.382812,-1.882813 3.15625,-3.28125 0.769531,-1.40625 1.15625,-3.003906 1.15625,-4.796875 0,-1.789062 -0.386719,-3.382812 -1.15625,-4.78125 -0.773438,-1.394531 -1.824219,-2.484375 -3.15625,-3.265625 -1.324219,-0.789063 -2.828125,-1.1875 -4.515625,-1.1875 -1.679687,0 -3.183594,0.398437 -4.515625,1.1875 -1.324219,0.78125 -2.371094,1.871094 -3.140625,3.265625 -0.773437,1.398438 -1.15625,2.992188 -1.15625,4.78125 0,1.792969 0.382813,3.390625 1.15625,4.796875 0.769531,1.398437 1.816406,2.492187 3.140625,3.28125 1.332031,0.78125 2.835938,1.171875 4.515625,1.171875 z m 0,0"
           id="path26"
           style="fill:#ffffff" />
      </g>
    </g>
    <g
       transform="translate(299.89197,163.1765)"
       id="g30"
       style="fill:#ffffff">
      <g
         id="g29"
         style="fill:#ffffff">
        <path
           d="m 15.15625,-22.09375 c 2.75,0 4.921875,0.804688 6.515625,2.40625 1.59375,1.59375 2.390625,3.886719 2.390625,6.875 V 0 h -2.09375 v -12.640625 c 0,-2.46875 -0.625,-4.34375 -1.875,-5.625 -1.242188,-1.289063 -2.980469,-1.9375 -5.21875,-1.9375 -2.585938,0 -4.621094,0.773437 -6.109375,2.3125 -1.480469,1.542969 -2.21875,3.617187 -2.21875,6.21875 V 0 H 4.453125 V -21.921875 H 6.46875 v 4.75 c 0.757812,-1.539063 1.882812,-2.742187 3.375,-3.609375 1.5,-0.875 3.269531,-1.3125 5.3125,-1.3125 z m 0,0"
           id="path28"
           style="fill:#ffffff" />
      </g>
    </g>
  </g>
</svg>
