<?xml version="1.0" encoding="UTF-8"?>
<svg xmlns="http://www.w3.org/2000/svg" width="97" height="65" viewBox="0 0 97 65" fill="none">
  <g id="Ebene_1" clip-path="url(#clip0_221_260)">
    <path id="Vector" d="M97.0002 0H75.4468V64.6667H97.0002V0Z" fill="#313131"></path>
    <path id="Vector_2" d="M43.1133 0V8.25793C49.7222 14.1814 53.8932 22.7756 53.8932 32.3333C53.8932 41.8911 49.7222 50.4853 43.1133 56.4087V64.6667H64.6667V0H43.1133Z" fill="#313131"></path>
    <path id="Vector_3" d="M43.1133 8.25793C37.3838 3.12987 29.8307 0 21.5534 0H0V21.5534H21.5534C27.4963 21.5534 32.3333 26.3905 32.3333 32.3333C32.3333 38.2762 27.4963 43.1133 21.5534 43.1133H0V64.6667H21.5534C29.8307 64.6667 37.3838 61.5368 43.1068 56.4087V8.25793H43.1133Z" fill="#313131"></path>
  </g>
  <defs>
    <clipPath id="clip0_221_260">
      <rect width="97" height="64.6667" fill="white"></rect>
    </clipPath>
  </defs>
</svg>
