<svg id="Layer_1" data-name="Layer 1" xmlns="http://www.w3.org/2000/svg" viewBox="0 0 23.21 23.21"><path d="M.68,17.09A2.32,2.32,0,0,1,0,15.45V7.76A2.32,2.32,0,0,1,.68,6.12L6.12.68A2.32,2.32,0,0,1,7.76,0h7.69a2.32,2.32,0,0,1,1.64.68l5.44,5.44a2.32,2.32,0,0,1,.68,1.64v7.69a2.32,2.32,0,0,1-.68,1.64l-5.44,5.44a2.32,2.32,0,0,1-1.64.68H7.76a2.32,2.32,0,0,1-1.64-.68Z" fill="#0d6efd"/><path d="M11.61,8.91V19.26" fill="none" stroke="#fff" stroke-linecap="round" stroke-linejoin="round" stroke-width="1.25"/><path d="M14.56,12.61H16" fill="none" stroke="#fff" stroke-linecap="round" stroke-linejoin="round" stroke-width="1.25"/><path d="M14.56,9.65H16" fill="none" stroke="#fff" stroke-linecap="round" stroke-linejoin="round" stroke-width="1.25"/><path d="M5,17a.74.74,0,0,1-.74-.74V6.69A.74.74,0,0,1,5,6h3.7a3,3,0,0,1,3,3,3,3,0,0,1,3-3h3.7a.74.74,0,0,1,.74.74V16.3a.74.74,0,0,1-.74.74H13.82a2.22,2.22,0,0,0-2.21,2.22A2.23,2.23,0,0,0,9.39,17Z" fill="none" stroke="#fff" stroke-linecap="round" stroke-linejoin="round" stroke-width="1.25"/><path d="M7.17,12.61H8.65" fill="none" stroke="#fff" stroke-linecap="round" stroke-linejoin="round" stroke-width="1.25"/><path d="M7.17,9.65H8.65" fill="none" stroke="#fff" stroke-linecap="round" stroke-linejoin="round" stroke-width="1.25"/></svg>