<svg xmlns="http://www.w3.org/2000/svg" viewBox="0 0 333 120"><defs><style>.cls{fill:#79a6ab;}.cls{transform-origin: center center; transform: translateY(-4px); animation: hov alternate 3s ease-in-out infinite;}.cls:nth-of-type(odd):not(.m){animation-delay: 1.5s;}@keyframes hov {0%{ transform: translateY(-4px);}100%{transform: translateY(4px);}}</style></defs><g><g><path fill="#dae258" d="M168.08,73.81a8.53,8.53,0,0,1-5.81,0L154,85.09l5.62-12.82h0a.79.79,0,0,0-.36-.92.75.75,0,0,0-.62-.06h0L145.79,76.9l11.28-8.29v0a.76.76,0,0,0,.16-1,.74.74,0,0,0-.51-.37h0l-13.92-1.53,13.92-1.54v0a.79.79,0,0,0,.62-.76.77.77,0,0,0-.26-.58h0l-11.28-8.29,12.82,5.63v0a.77.77,0,0,0,.92-.35.78.78,0,0,0,.07-.63h0L154,46.32l8.28,11.28h0a.78.78,0,0,0,1,.16.74.74,0,0,0,.37-.51h0l1.54-13.92,1.53,13.92h0a.78.78,0,0,0,1.35.36h0l8.29-11.28-5.63,12.82h0a.78.78,0,0,0,.35.92.74.74,0,0,0,.63.06h0l12.82-5.63L173.28,62.8v0a.77.77,0,0,0,.36,1.34h0l13.91,1.54-13.91,1.53v0A.79.79,0,0,0,173,68a.76.76,0,0,0,.27.57h0l11.28,8.29-12.82-5.63v0a.77.77,0,0,0-1,1h0l5.63,12.82Zm7.77,18.52v-.21a28.34,28.34,0,1,0-21.34,0v.14a31.91,31.91,0,0,0,7,1.72V83.68a1.09,1.09,0,0,1,1.09-1.09h5.14a1.09,1.09,0,0,1,1.08,1.09V94a35.08,35.08,0,0,0,7-1.66"/></g><g><path fill="#4aa08c" d="M195.63,34.57a43.61,43.61,0,0,0-32.17-12.24,43.92,43.92,0,0,0-14.33,84.77,9.23,9.23,0,0,0,8.59-.82,9,9,0,0,0,3.8-7.59V94a31.91,31.91,0,0,1-7-1.72v6.43a2.09,2.09,0,0,1-.74,1.79,2.27,2.27,0,0,1-2.08.09,36.92,36.92,0,1,1,26.84.05,2.28,2.28,0,0,1-2,0,2.41,2.41,0,0,1-.66-1.92V92.33a35.24,35.24,0,0,1-7,1.66v4.7a9,9,0,0,0,3.72,7.71,8.56,8.56,0,0,0,4.87,1.46,10,10,0,0,0,3.65-.7,43.92,43.92,0,0,0,14.56-72.59"/></g></g><g><path class="cls" d="M77.43,42.65c2.56-2.57,1.27-6.5-2.36-7.2a4.23,4.23,0,0,0-.88-.09h0c-.78,0-1.33.42-2.48,1.57-1.54,1.54-1.75,2-1.48,3.37A4.17,4.17,0,0,0,77.43,42.65Z"/><path class="cls" d="M120.57,95.14a2.35,2.35,0,0,0-2.28,1.33c-.69,2.18,2,4,3.57,2.37a2.49,2.49,0,0,0-.14-3.32A1.77,1.77,0,0,0,120.57,95.14Z"/><path class="cls" d="M133.24,9.9a4.7,4.7,0,0,0-3.37,2.42c-1.05,1.63-1.24,1.73-2.51,1.25-3.21-1.21-6,1.83-4.91,5.28.91,2.78,3.32,4.58,7.59,5.67,3.08.79,4.28.37,5.74-2a18.84,18.84,0,0,0,1.94-4.93c.5-2.41.46-2.94-.37-4.64C136.29,10.8,134.77,9.77,133.24,9.9Z"/><path class="cls" d="M15.63,57.52a.66.66,0,0,0-.4-.1.93.93,0,0,0-.81,1.31c.48.78,1.74.65,1.74-.17A1.37,1.37,0,0,0,15.63,57.52Z"/><path class="cls" d="M151.16,16.1a2.7,2.7,0,0,0-1.21-.26h0a2.07,2.07,0,0,0-2,2.2c0,1.62.79,2.53,2.2,2.53a2.57,2.57,0,0,0,1.62-.59A2.61,2.61,0,0,0,151.16,16.1Z"/><path class="cls" d="M260.36,76.41c.38,0,.7-.44.7-1a.91.91,0,0,0-.94-1,1,1,0,0,0-.77.49A1,1,0,0,0,260.36,76.41Z"/><path class="cls" d="M95.16,54.63a1,1,0,0,0-1,.88c-.13.66.07.86.72.73a1.06,1.06,0,0,0,.91-.9.64.64,0,0,0-.6-.71Z"/><path class="cls" d="M265.23,46.38l1.66-1.13-1.35-2-1.35-2-1.81,1.23c-2.09,1.42-2.17,1.76-.8,3.69C262.81,47.8,263.1,47.83,265.23,46.38Z"/><path class="cls" d="M54.17,86.35a17.68,17.68,0,0,0-2.78,3.32l-5.75,8a35,35,0,0,0-3.31,5.06c.43.43,20.13,2.35,20.28,2a88.86,88.86,0,0,0-3.87-9.47C56.52,90.26,54.47,86.25,54.17,86.35Z"/><path class="cls" d="M71.12,91.84h0a1,1,0,0,0-.33.06.94.94,0,0,0-.14,1.79c.87.32,1.53-.42,1.19-1.32A.78.78,0,0,0,71.12,91.84Z"/><path class="cls" d="M110.12,75.55a5.07,5.07,0,0,0-4,1.84c-2.12,2.52-2,5.22.2,8.32.83,1.14-1.63,6.37-3,6.37a5,5,0,0,0-2,.51c-.8.43-1.42.16-3.64-1.58S95,88.62,95,87.53c0-1.63-2-3.77-3.43-3.77-1.31,0-3.43,2.1-3.43,3.41a4.35,4.35,0,0,0,.57,1.92c.47.74.31,1.52-.8,4.16-.76,1.78-1.65,3.24-2,3.24a4.83,4.83,0,0,0-1.88,1c-1.69,1.33-1.8,4-.21,5.08a3.5,3.5,0,0,0,4.54-.2c.69-.76.81-1.45.58-3.17s0-2.78,1.13-5.39c1.77-3.95,2.42-4,6.42-1,2.41,1.86,2.9,2.49,2.9,3.72a5,5,0,0,0,4.33,4.34,4.7,4.7,0,0,0,4.48-4.26,7,7,0,0,0-.77-3c-.73-1.23-.7-1.48.41-4,1-2.3,1.4-2.7,2.61-2.8,3.19-.24,5.1-2.41,5.1-5.77A5.5,5.5,0,0,0,110.12,75.55ZM87.06,100a1.27,1.27,0,0,1-2.09.35.91.91,0,0,1,.17-1.07,1,1,0,0,1,.61-.28h0C86.45,99,87.26,99.44,87.06,100Zm4.53-11.88c-.74,0-1-.25-.88-.85a.89.89,0,0,1,1.77,0C92.59,87.91,92.33,88.16,91.59,88.16Zm12.25,10.29a2.06,2.06,0,0,1-2-1,2.17,2.17,0,1,1,3.71-2.21C106.66,96.88,105.81,98.45,103.84,98.45Zm8.25-14.57c-1.33,1.12-2.45,1.08-4-.16a3.27,3.27,0,0,1,1.85-5.83h0a3.33,3.33,0,0,1,2.73,1.31A3.18,3.18,0,0,1,112.09,83.88Z"/><path class="cls m" d="M89.14,67.56c0-1.28-5.07-9.41-5.84-9.46h0l-.06,0c-.23.23-1.69,3-3.26,6L77.14,69.8l-7,.13a46.85,46.85,0,0,0-7,.4c0,.78,6.22,10,6.76,10,.12,0,4.5-2.66,9.71-5.91C86.73,70,89.14,68.27,89.14,67.56Z"/><path class="cls" d="M257.81,66.09a3.06,3.06,0,0,0,1.29-2.91A3.55,3.55,0,0,0,253,60.47,3.71,3.71,0,0,0,257.81,66.09Z"/><path class="cls" d="M8.6,40.48h0a1.06,1.06,0,0,0-.93,1.43.94.94,0,0,0,1.79,0,1.26,1.26,0,0,0-.28-1.22A.77.77,0,0,0,8.6,40.48Z"/><path class="cls" d="M56.2,25.38a.89.89,0,0,0,0-1.78l-.21,0h0c-.45,0-.64.26-.64.91S55.6,25.49,56.2,25.38Z"/><path class="cls" d="M68.45,67.48l7.22-.13,3.19-6.26c2.6-5.12,3-6.33,2.47-6.7a1,1,0,0,0-.54-.18c-.93,0-2.92,1.16-11.3,6.36C58.56,67.36,58.52,67.67,68.45,67.48Z"/><path class="cls" d="M56.33,53.63a2.09,2.09,0,0,0,4,1,1.58,1.58,0,0,0-.33-2.2,2.57,2.57,0,0,0-1.83-.93h0A1.92,1.92,0,0,0,56.33,53.63Z"/><path class="cls" d="M113.28,64.67a1.84,1.84,0,0,0-1.59.93,2.83,2.83,0,0,0,.3,3.55c1.06,1.16,2.38,1.13,3.6-.09a3.28,3.28,0,0,0,1-1.8C116.57,65.69,114.75,64.58,113.28,64.67Z"/><path class="cls" d="M280.94,66.55,280.3,65l-.53,1.52c-.45,1.28-.79,1.53-2.1,1.53h-1.56l1.27,1c1.08.85,1.2,1.19.8,2.24-.66,1.75-.59,1.92.43,1a3.09,3.09,0,0,1,1.69-.81,1.41,1.41,0,0,1,1.09.49c.61,1,1.23.45.92-.8a1.76,1.76,0,0,1,.84-2.2l1.18-.9H283C281.89,68.08,281.44,67.74,280.94,66.55Z"/><path class="cls" d="M242,32.85a2.26,2.26,0,0,0-1.67.74,2.44,2.44,0,0,0,1.55,4.12,3.1,3.1,0,0,0,1.68-.81c1.11-1,1.14-2,.09-3.19A2.4,2.4,0,0,0,242,32.85Z"/><path class="cls" d="M235.84,44.85c-2.55.89-2.34.95-3.38-1a5.42,5.42,0,0,0-4.45-3h0a5.09,5.09,0,0,0-3.86,1.54c-2.36,2.36-2.22,3.55,1.33,10.76l3.21,6.55L234.47,57a38.54,38.54,0,0,0,7.19-4.11,4.8,4.8,0,0,0,.08-6.86C240.07,44.33,238.36,44,235.84,44.85Z"/><path class="cls" d="M264.13,88.29c-3.37-.19-4.52-.46-5.37-1.23-1.22-1.11-4.35-1.8-6.82-1.81-1.49,0-2.73.24-3.19.78s-.85,3.21-1.17,7.43c-.68,8.83-1.11,8.36,8.37,9.15s11.56.83,12.43.28c1.38-.88,2-12.68.77-13.74C268.75,88.82,266.49,88.43,264.13,88.29Z"/><path class="cls" d="M88.42,34.09a12.84,12.84,0,0,0,3.64,0c2.32-.31,2.38-.28,2.91,1.24a14,14,0,0,1,.54,1.76,9.77,9.77,0,0,1-2.8.08L89.91,37l-.35,1.67a4.61,4.61,0,0,0-.07,2.11c.15.24,2,.34,4.12.22,3.45-.2,3.88-.13,4.14.7.44,1.38,1.92.87,1.92-.65h0a3.82,3.82,0,0,1,1.66-2.66c3.12-2.64,3.56-6.52,1-8.83-1.08-1-4-1.24-6.4-.58-1.11.31-1.36.17-1.88-1.08-.8-1.94-.34-2.47,2.17-2.47,1.78,0,2.16-.18,2.41-1.1.77-2.87.63-3-3.37-2.68-3.26.24-3.73.17-4.17-.65a1.17,1.17,0,0,0-.94-.68c-.56,0-1.05.48-.84,1.3s-.38,1.56-1.92,3c-1.84,1.77-2.17,2.37-2.16,4C85.23,31.09,86.75,33.67,88.42,34.09Zm9.49-1.27c1.75,0,2.35,1.25,1.21,2.52s-1.38,1.15-2.06-.34C96.22,33.15,96.34,32.82,97.91,32.82ZM90.8,26.94c.74,0,1.91,2.31,1.5,3s-2,.55-2.64-.25S89.76,26.94,90.8,26.94Z"/><path class="cls" d="M112.38,63.47a8,8,0,0,1,1.62-.28c.8,0,.77-.86-.2-8.2L113,48.87l-2.21.3a13.24,13.24,0,0,0-2.36.46,70.53,70.53,0,0,0,1.4,7.14C111.25,63.24,111.44,63.72,112.38,63.47Z"/><path class="cls" d="M228.41,68.33h0a12.85,12.85,0,0,0-2.46.26c-5.9,1.22-8.17,6.13-5.48,11.86l1.09,2.34-1.42,1.48c-1.19,1.25-1.31,1.57-.7,2,.94.59,1.31.58,3.66-.11a10.32,10.32,0,0,1,2.21-.49l2.93,1a13.43,13.43,0,0,0,8.47.48,8.73,8.73,0,0,0,5.75-5.4C244.22,75.24,236.37,68.24,228.41,68.33Z"/><path class="cls" d="M304.35,40.38h0a.48.48,0,0,0-.24.06,1.63,1.63,0,0,0-.44,1.22.91.91,0,0,0,1.73.44C305.74,41.55,305,40.41,304.35,40.38Z"/><path class="cls" d="M215.81,17.13c-1.64-1.55-1.68-1.67-1-3,.9-1.74.9-1.77-.25-2.39-.83-.44-1.09-.27-1.84,1.19-.67,1.3-1.05,1.6-1.6,1.26s-.63-.71-.14-2c.57-1.52.26-2.43-.35-2.49h0c-.48,0-1.14.44-1.72,1.56-.86,1.66-1,1.7-2.7.73-2.69-1.54-4.52.05-2.22,1.93l1.24,1-2.42,5.14c-2.26,4.79-2.52,5.14-3.77,5s-2.62.57-2.62,1.38c0,.23.88.87,2,1.42a6.41,6.41,0,0,1,2,1.26,9.79,9.79,0,0,1-.78,1.77c-.65,1.24-.67,1.58-.13,1.92,1.16.73,1.75.47,2.38-1s1.41-1.85,2.1-1.17c.17.17,0,1-.47,1.81-.71,1.38-.71,1.54.09,2.12,1.08.79,1.41.59,2.2-1.31.45-1.09.84-1.41,1.41-1.17a15.75,15.75,0,0,0,3.09.57c2.08.22,2.45.1,3.8-1.25A4.09,4.09,0,0,0,215.51,28a3.76,3.76,0,0,0-.73-2.54c-.62-.52-.5-.76.86-1.67a3.23,3.23,0,0,0,1.73-3.07C217.5,19,217.3,18.53,215.81,17.13ZM205.34,28.18l-1.59-.71,1.08-2.22c.59-1.23,1.33-2.23,1.64-2.23h0c.81,0,3.71,2.05,4.34,3.06C212.16,28.25,208.59,29.61,205.34,28.18ZM212.77,21c-.86,1.21-1.77,1.29-4,.33l-1.56-.68.78-2c.55-1.39.82-1.95,1.45-1.91h0a4.91,4.91,0,0,1,1.64.65C213.12,18.43,213.69,19.67,212.77,21Z"/><path class="cls" d="M198.14,104h0a1.82,1.82,0,0,0-.72.08,2.41,2.41,0,0,0-1,3.45,2.52,2.52,0,0,0,3.33.14C201,106.41,199.77,104.12,198.14,104Z"/><path class="cls" d="M179.84,15.18h0a2.92,2.92,0,0,0-2.26,1.09c-1,1.44-1,2.14.22,3.32s2.32,1.25,3.51.17a3.17,3.17,0,0,0,.31-4A2.39,2.39,0,0,0,179.84,15.18Z"/><path class="cls" d="M229.22,25.81c1.8.91,2.37.8,4-.79,1.77-1.77,1.85-3.59.23-5.21a3.91,3.91,0,0,0-3-1.21A3.68,3.68,0,0,0,227.29,21,3.78,3.78,0,0,0,229.22,25.81Z"/><path class="cls" d="M210,96a6.16,6.16,0,0,0-4.77,3.36c-.81,2-.34,3.75,1.43,5.52,1.61,1.61,3.64,1.84,5.9.67,1.78-.92,2.44-2.12,2.44-4.41a7.29,7.29,0,0,0-.5-2.72A6.29,6.29,0,0,0,210,96Z"/><path class="cls" d="M212.62,44.15h0a2,2,0,0,0-1,.28,2.48,2.48,0,0,0-.52,3.35c.89,1.07,3.28.89,3.91-.29a2.94,2.94,0,0,0,.23-2A2.7,2.7,0,0,0,212.62,44.15Z"/>
</g></svg>