<?xml version="1.0" encoding="UTF-8" standalone="no"?>
<svg
   width="497.47355"
   height="574.09078"
   viewBox="0 0 497.47355 574.09078"
   role="img"
   artist="Katerina Limpitsouni"
   source="https://undraw.co/"
   version="1.1"
   id="svg20"
   sodipodi:docname="hero.svg"
   inkscape:version="1.4 (e7c3feb1, 2024-10-09)"
   xmlns:inkscape="http://www.inkscape.org/namespaces/inkscape"
   xmlns:sodipodi="http://sodipodi.sourceforge.net/DTD/sodipodi-0.dtd"
   xmlns="http://www.w3.org/2000/svg"
   xmlns:svg="http://www.w3.org/2000/svg">
  <defs
     id="defs20" />
  <sodipodi:namedview
     id="namedview20"
     pagecolor="#ffffff"
     bordercolor="#000000"
     borderopacity="0.25"
     inkscape:showpageshadow="2"
     inkscape:pageopacity="0.0"
     inkscape:pagecheckerboard="0"
     inkscape:deskcolor="#d1d1d1"
     inkscape:zoom="1.7575618"
     inkscape:cx="248.92439"
     inkscape:cy="286.76089"
     inkscape:window-width="2560"
     inkscape:window-height="1333"
     inkscape:window-x="0"
     inkscape:window-y="25"
     inkscape:window-maximized="1"
     inkscape:current-layer="svg20" />
  <g
     id="g1"
     transform="translate(-38.689962,-1.1379401)">
    <polygon
       points="348.25686,510.94939 363.26715,510.63841 364.09783,550.74157 353.92648,550.95167 "
       fill="#ffb6b6"
       id="polygon1" />
    <path
       d="m 328.20134,569.31798 v 0 c 0,1.50419 1.21938,2.72357 2.72356,2.72357 h 20.1892 c 0,0 1.98677,-6.99125 10.08724,-10 l 0.5591,10 h 10.41489 V 548.6659 c 0,0 0.69433,-5.09173 -5.09173,-9.48912 -5.78606,-4.39739 -0.26971,0 -0.26971,0 l -2.27615,-9.95201 -15.73806,1.62009 -0.11572,15.62234 -7.63759,15.50662 -11.20248,4.84432 c -0.99705,0.43116 -1.64255,1.41356 -1.64255,2.49984 z"
       fill="#2f2e41"
       id="path1" />
  </g>
  <g
     id="g2"
     transform="translate(-38.689962,-1.1379401)">
    <polygon
       points="190.14423,508.68926 204.60095,512.74001 193.77835,551.36416 183.98229,548.61867 "
       fill="#ffb6b6"
       id="polygon2" />
    <path
       d="m 154.03965,558.74498 v 0 c -0.43575,1.43969 0.37809,2.96003 1.81777,3.39578 l 19.32347,5.8487 c 0,0 3.9269,-6.11591 12.55163,-6.64897 l -2.36182,9.73316 9.96829,3.01714 6.7718,-22.37328 c 0,0 2.1396,-4.67225 -2.12444,-10.55727 -4.26404,-5.88502 -0.25815,-0.0781 -0.25815,-0.0781 l 0.7045,-10.18465 -15.53253,-3.00861 -4.63646,14.91892 -11.80226,12.62911 -12.12548,1.39129 c -1.0792,0.12383 -1.98162,0.87711 -2.29631,1.91681 z"
       fill="#2f2e41"
       id="path2" />
  </g>
  <path
     d="m 278.38107,150.20789 -2.53252,-0.15682 c 0.18032,-0.61939 0.36064,-1.23099 0.52531,-1.85038 1.40346,-5.19836 -1.68571,-11.81588 -1.91312,-16.81037 -1.1918,5.27675 0.8468,11.76883 -1.26233,16.77898 -0.23521,0.5567 -0.47047,1.11341 -0.72137,1.66222 l -68.58221,-4.32801 -3.92033,-37.63516 c 0,-21.64804 17.55524,-39.20329 39.20329,-39.20329 9.57346,0 18.34716,3.43421 25.15284,9.12654 6.80569,5.70013 11.65121,13.66626 13.36831,22.73791 1.03497,5.47276 7.49567,24.05513 0.68213,49.6784 z"
     fill="#2f2e41"
     id="path3" />
  <path
     d="m 157.31345,296.82781 6.58126,-18.93282 11.34005,2.2506 -7.67033,19.76937 c 0.22425,0.60758 0.36525,1.25739 0.4046,1.93752 0.21403,3.69914 -2.61123,6.87143 -6.31038,7.08546 -3.69915,0.21403 -6.87143,-2.61123 -7.08546,-6.31038 -0.1365,-2.35911 0.96619,-4.49989 2.74026,-5.79976 z"
     fill="#ffb6b6"
     id="path4" />
  <path
     d="m 305.27608,307.02861 -6.17131,-19.07038 10.40222,-5.04537 5.8073,20.39454 c 0.54535,0.34933 1.04978,0.78255 1.49143,1.30128 2.40206,2.82127 2.06222,7.05566 -0.75905,9.45772 -2.82127,2.40206 -7.05566,2.06222 -9.45772,-0.75905 -1.5319,-1.79925 -1.94375,-4.17185 -1.31287,-6.27874 z"
     fill="#ffb6b6"
     id="path5" />
  <polygon
     points="314.94109,245.32259 295.11719,205.44636 244.26404,221.62158 244.26404,253.99053 "
     fill="#ffb6b6"
     id="polygon5"
     transform="translate(-38.689962,-1.1379401)" />
  <path
     d="m 250.1547,131.39031 h -25.83713 l -8.66177,15.68132 h -23.34293 c 0,0 -10.37189,76.83845 2.95722,78.40658 l 3.92033,0.78407 4.45105,1.40278 c -1.64197,1.71243 -1.38184,3.758 0,6 -1.42029,1.23611 0.13062,3.08524 2,5 l 68.0352,-6.13025 -1.56813,-8.62472 c 0,0 9.40879,0 5.48846,-10.97692 v -60.16933 l -25.0901,-6.47626 -2.3522,-14.89725 z"
     fill="#65e2d9"
     id="path6" />
  <path
     d="m 268.97228,157.26448 8.79627,-4.50066 c 0,0 8.45318,0.58033 12.37351,8.42099 3.92033,7.84066 3.92033,64.29339 3.92033,64.29339 l 18.03351,65.07746 -15.68132,8.62472 -21.31795,-60.37306 -6.12436,-81.54284 z"
     fill="#65e2d9"
     id="path7" />
  <path
     d="m 202.32669,151.77602 -8.79627,-4.50066 c 0,0 -8.45318,0.58033 -12.37351,8.42099 -3.92033,7.84066 -3.92033,64.29339 -3.92033,64.29339 l -18.03351,65.07746 15.68132,8.62472 21.31795,-60.37306 6.12436,-81.54284 z"
     fill="#65e2d9"
     id="path8" />
  <path
     d="m 272.10855,232.53479 -68.21372,12.54505 v 32.81515 c -1.33458,2.53677 -1.34099,5.3172 10e-6,8.34485 -2.55865,3.61203 -1.63293,8.91916 0,14.5704 l -32.5532,93.68783 -23.89955,124.22072 18.03351,3.92033 48.61208,-111.33734 40.77142,-86.24724 54.8846,199.93677 16.46538,-1.56813 c 0,0 22.73791,-232.86754 -54.10054,-290.8884 z"
     fill="#2f2e41"
     id="path9" />
  <circle
     cx="234.81621"
     cy="105.09716"
     r="22.241011"
     fill="#ffb6b6"
     id="circle9" />
  <path
     d="m 265.05195,99.63564 v 4.31236 l -25.0901,-7.05659 -18.80973,3.93598 c -0.21171,-2.86181 -1.05852,-5.67663 -2.46983,-8.16995 0.39988,2.86971 0.41558,5.79426 0.047,8.67961 l -12.48231,2.61095 v -4.31236 c 0,-16.23802 13.16445,-29.40247 29.40247,-29.40247 8.12291,0 15.4696,3.29309 20.79344,8.60903 5.31594,5.32379 8.60903,12.67053 8.60903,20.79344 z"
     fill="#2f2e41"
     id="path10" />
  <g
     id="g18"
     transform="translate(-38.689962,-1.1379401)">
    <path
       d="m 478.83144,356.80298 h -350 c -3.31,0 -6,2.69 -6,6 0,3.31 2.69,6 6,6 h 350 c 3.31,0 6,-2.69 6,-6 0,-3.31 -2.69,-6 -6,-6 z"
       fill="#3f3d56"
       id="path17" />
    <path
       d="m 360.33144,356.80298 v 12 h -231.5 c -3.31,0 -6,-2.69 -6,-6 0,-3.31 2.69,-6 6,-6 z"
       fill="#65e2d9"
       id="path18" />
  </g>
  <circle
     cx="151.64148"
     cy="321.66504"
     r="22"
     fill="#65e2d9"
     id="circle18" />
  <path
     d="m 146.38513,332.79297 c -0.42236,0 -0.84277,-0.12012 -1.21191,-0.35742 -0.646,-0.41504 -1.03174,-1.12109 -1.03174,-1.88867 v -15.875 c 0,-0.80957 0.41797,-1.53516 1.11816,-1.94141 0.70068,-0.40625 1.53809,-0.40918 2.24072,-0.007 l 15.43506,8.81836 c 0.73486,0.4209 1.16748,1.20703 1.12891,2.05273 -0.0381,0.84473 -0.54004,1.58789 -1.30908,1.93945 l -15.43506,7.05469 c -0.29932,0.13672 -0.61768,0.2041 -0.93506,0.2041 z"
     fill="#ffffff"
     id="path19" />
  <path
     d="m 433.47316,328.28681 h -2e-5 c -1.31634,-3.39189 -5.1331,-5.07446 -8.52498,-3.75813 h -2e-5 c -3.35971,1.30385 -5.04051,5.06065 -3.79294,8.42808 l -0.0984,0.0382 4.76686,12.28311 11.30267,-4.38637 c 0.37368,-0.0738 0.7462,-0.17916 1.11362,-0.32177 h 2e-5 c 3.39188,-1.31634 5.07446,-5.13311 3.75811,-8.52499 v -2e-5 c -1.31634,-3.39189 -5.1331,-5.07445 -8.52498,-3.75812 l 4e-5,2e-5 z"
     fill="#ff6584"
     id="path20" />
</svg>
