<svg xmlns="http://www.w3.org/2000/svg" width="24" height="24" viewBox="0 0 24 24" fill="none" stroke-width="2" stroke-linecap="round" stroke-linejoin="round"><path d="M19.5,8l0.7-1.6c0-0.1,0.1-0.2,0.2-0.2L22,5.5c0.4-0.2,0.4-0.7,0-0.9l-1.6-0.7c-0.1-0.1-0.2-0.1-0.2-0.2L19.5,2 c-0.2-0.4-0.7-0.4-0.9,0l-0.7,1.6c-0.1,0.1-0.1,0.2-0.2,0.2L16,4.5c-0.4,0.2-0.4,0.7,0,0.9l1.6,0.7c0.1,0,0.2,0.1,0.2,0.2L18.5,8 C18.7,8.4,19.3,8.4,19.5,8z"/><path d="M18.5,16l-0.7,1.6c0,0.1-0.1,0.2-0.2,0.2L16,18.5c-0.4,0.2-0.4,0.7,0,0.9l1.6,0.7c0.1,0,0.2,0.1,0.2,0.2l0.7,1.6 c0.2,0.4,0.7,0.4,0.9,0l0.7-1.6c0.1-0.1,0.1-0.2,0.2-0.2l1.6-0.7c0.4-0.2,0.4-0.7,0-0.9l-1.6-0.7c-0.1-0.1-0.2-0.1-0.2-0.2L19.5,16 C19.3,15.6,18.7,15.6,18.5,16z" /><path d="M11.4,9.3L9.5,5C9.3,4.6,8.7,4.6,8.5,5l-2,4.3C6.5,9.4,6.4,9.5,6.3,9.6l-4.3,2c-0.4,0.2-0.4,0.7,0,0.9l4.3,2 c0.1,0.1,0.2,0.1,0.2,0.2l2,4.3c0.2,0.4,0.7,0.4,0.9,0l2-4.3c0.1-0.1,0.1-0.2,0.2-0.2l4.3-2c0.4-0.2,0.4-0.7,0-0.9l-4.3-2 C11.6,9.5,11.5,9.4,11.4,9.3z"/></svg>