<?xml version="1.0" encoding="utf-8"?>
<!-- Generator: Adobe Illustrator 25.4.1, SVG Export Plug-In . SVG Version: 6.00 Build 0)  -->
<svg version="1.1" id="Layer_1" xmlns="http://www.w3.org/2000/svg" xmlns:xlink="http://www.w3.org/1999/xlink" x="0px" y="0px"
	 viewBox="0 0 258.5 70.25" style="enable-background:new 0 0 258.5 70.25;" xml:space="preserve">
<style type="text/css">
	.st0{fill:#FFFFFF;}
	.st1{fill:#215656;}
	.st2{fill:#FF0000;}
</style>
<path class="st0" d="M223.5,66h-189C17.1,66,3,51.9,3,34.5v0C3,17.1,17.1,3,34.5,3h189C240.9,3,255,17.1,255,34.5v0
	C255,51.9,240.9,66,223.5,66z"/>
<g>
	<path class="st1" d="M21.93,48.96V19.62h11.91c2.18,0,4.21,0.38,6.08,1.13c1.87,0.75,3.51,1.8,4.93,3.14
		c1.41,1.34,2.52,2.91,3.31,4.69c0.8,1.79,1.19,3.72,1.19,5.79c0,2.04-0.4,3.94-1.19,5.7c-0.8,1.76-1.9,3.3-3.31,4.63
		c-1.41,1.33-3.05,2.37-4.93,3.12c-1.87,0.75-3.9,1.13-6.08,1.13H21.93z M29.14,42.59h4.53c1.15,0,2.21-0.21,3.21-0.63
		c0.99-0.42,1.87-1.01,2.62-1.76s1.34-1.63,1.76-2.62c0.42-0.99,0.63-2.06,0.63-3.21c0-1.17-0.21-2.27-0.63-3.29
		c-0.42-1.02-1.01-1.91-1.76-2.66s-1.63-1.35-2.62-1.78c-0.99-0.43-2.06-0.65-3.21-0.65h-4.53V42.59z"/>
	<path class="st1" d="M65.78,49.42c-2.21,0-4.26-0.38-6.16-1.15c-1.9-0.77-3.56-1.84-4.99-3.23s-2.54-2.99-3.33-4.82
		c-0.8-1.83-1.19-3.81-1.19-5.93c0-2.12,0.4-4.1,1.19-5.93c0.8-1.83,1.91-3.44,3.33-4.82s3.09-2.46,4.99-3.23
		c1.9-0.77,3.95-1.15,6.16-1.15c2.21,0,4.26,0.38,6.16,1.15c1.9,0.77,3.56,1.84,4.99,3.23s2.54,2.99,3.33,4.82
		c0.8,1.83,1.2,3.81,1.2,5.93c0,2.12-0.4,4.1-1.2,5.93c-0.8,1.83-1.91,3.44-3.33,4.82s-3.09,2.46-4.99,3.23
		C70.04,49.04,67.99,49.42,65.78,49.42z M65.78,42.8c1.17,0,2.26-0.22,3.27-0.65c1.01-0.43,1.88-1.03,2.62-1.78
		c0.74-0.75,1.32-1.66,1.74-2.7c0.42-1.05,0.63-2.17,0.63-3.37c0-1.23-0.21-2.36-0.63-3.4c-0.42-1.03-1-1.93-1.74-2.68
		c-0.74-0.75-1.61-1.35-2.62-1.78c-1.01-0.43-2.1-0.65-3.27-0.65c-1.17,0-2.26,0.22-3.27,0.65c-1.01,0.43-1.88,1.03-2.62,1.78
		c-0.74,0.75-1.32,1.65-1.74,2.68c-0.42,1.03-0.63,2.15-0.63,3.35c0,1.23,0.21,2.37,0.63,3.42c0.42,1.05,1,1.95,1.74,2.7
		c0.74,0.75,1.61,1.35,2.62,1.78C63.51,42.58,64.6,42.8,65.78,42.8z"/>
	<path class="st1" d="M83.26,48.96V19.62h6.79l13.33,17.02V19.62h6.79v29.34h-6.37L90.05,31.27v17.69H83.26z"/>
	<path class="st1" d="M110.3,48.96l12.03-29.34h8.26l11.86,29.34h-7.8l-2.68-7.08h-11.44l-2.72,7.08H110.3z M122.7,36.14h7.13
		l-3.52-9.39L122.7,36.14z"/>
	<path class="st1" d="M145.05,48.96V25.99h-9.6v-6.37h26.41v6.37h-9.6v22.97H145.05z"/>
	<path class="st1" d="M163.03,48.96V19.62h23.14v6.25h-15.93v5.28h10.52v6.04h-10.52v5.53h16.1v6.25H163.03z"/>
</g>
<path class="st2" d="M212.55,24.38c3.17-3.78,12.67-12.22,17.44-1.89s-17.44,28.82-17.44,28.82h0.01c0,0-22.22-18.49-17.44-28.82
	C199.89,12.16,209.39,20.6,212.55,24.38L212.55,24.38z"/>
</svg>
