<?xml version="1.0" encoding="UTF-8" standalone="no"?>
<svg
   viewBox="0 0 87.889168 85.569099"
   version="1.1"
   id="svg1134"
   sodipodi:docname="oi-home-banner.svg"
   width="87.889168"
   height="85.569099"
   inkscape:version="1.1.2 (0a00cf5339, 2022-02-04)"
   xmlns:inkscape="http://www.inkscape.org/namespaces/inkscape"
   xmlns:sodipodi="http://sodipodi.sourceforge.net/DTD/sodipodi-0.dtd"
   xmlns="http://www.w3.org/2000/svg"
   xmlns:svg="http://www.w3.org/2000/svg">
  <sodipodi:namedview
     id="namedview1136"
     pagecolor="#ffffff"
     bordercolor="#666666"
     borderopacity="1.0"
     inkscape:pageshadow="2"
     inkscape:pageopacity="0.0"
     inkscape:pagecheckerboard="0"
     showgrid="false"
     fit-margin-top="0"
     fit-margin-left="0"
     fit-margin-right="0"
     fit-margin-bottom="0"
     inkscape:zoom="1.8438438"
     inkscape:cx="23.049674"
     inkscape:cy="170.02524"
     inkscape:window-width="1895"
     inkscape:window-height="1056"
     inkscape:window-x="0"
     inkscape:window-y="0"
     inkscape:window-maximized="1"
     inkscape:current-layer="svg1134" />
  <defs
     id="defs1056">
    <style
       id="style1054">.cls{fill:#79a6ab;}.cls{transform-origin: center center; transform: translateY(-4px); animation: hov alternate 3s ease-in-out infinite;}.cls:nth-of-type(odd):not(.m){animation-delay: 1.5s;}@keyframes hov {0%{ transform: translateY(-4px);}100%{transform: translateY(4px);}}</style>
  </defs>
  <g
     id="g1066"
     transform="translate(-121.25682,-22.291353)">
    <g
       id="g1060">
      <path
         fill="#dae258"
         d="m 168.08,73.81 a 8.53,8.53 0 0 1 -5.81,0 L 154,85.09 159.62,72.27 v 0 a 0.79,0.79 0 0 0 -0.36,-0.92 0.75,0.75 0 0 0 -0.62,-0.06 v 0 l -12.85,5.61 11.28,-8.29 v 0 a 0.76,0.76 0 0 0 0.16,-1 0.74,0.74 0 0 0 -0.51,-0.37 v 0 l -13.92,-1.53 13.92,-1.54 v 0 a 0.79,0.79 0 0 0 0.62,-0.76 0.77,0.77 0 0 0 -0.26,-0.58 v 0 l -11.28,-8.29 12.82,5.63 v 0 a 0.77,0.77 0 0 0 0.92,-0.35 0.78,0.78 0 0 0 0.07,-0.63 v 0 L 154,46.32 162.28,57.6 v 0 a 0.78,0.78 0 0 0 1,0.16 0.74,0.74 0 0 0 0.37,-0.51 v 0 l 1.54,-13.92 1.53,13.92 v 0 a 0.78,0.78 0 0 0 1.35,0.36 v 0 l 8.29,-11.28 -5.63,12.82 v 0 a 0.78,0.78 0 0 0 0.35,0.92 0.74,0.74 0 0 0 0.63,0.06 v 0 l 12.82,-5.63 -11.25,8.3 v 0 a 0.77,0.77 0 0 0 0.36,1.34 v 0 l 13.91,1.54 -13.91,1.53 v 0 A 0.79,0.79 0 0 0 173,68 a 0.76,0.76 0 0 0 0.27,0.57 v 0 l 11.28,8.29 -12.82,-5.63 v 0 a 0.77,0.77 0 0 0 -1,1 v 0 l 5.63,12.82 z m 7.77,18.52 v -0.21 a 28.34,28.34 0 1 0 -21.34,0 v 0.14 a 31.91,31.91 0 0 0 7,1.72 v -10.3 a 1.09,1.09 0 0 1 1.09,-1.09 h 5.14 a 1.09,1.09 0 0 1 1.08,1.09 V 94 a 35.08,35.08 0 0 0 7,-1.66"
         id="path1058" />
    </g>
    <g
       id="g1064">
      <path
         fill="#4aa08c"
         d="m 195.63,34.57 a 43.61,43.61 0 0 0 -32.17,-12.24 43.92,43.92 0 0 0 -14.33,84.77 9.23,9.23 0 0 0 8.59,-0.82 9,9 0 0 0 3.8,-7.59 V 94 a 31.91,31.91 0 0 1 -7,-1.72 v 6.43 a 2.09,2.09 0 0 1 -0.74,1.79 2.27,2.27 0 0 1 -2.08,0.09 36.92,36.92 0 1 1 26.84,0.05 2.28,2.28 0 0 1 -2,0 2.41,2.41 0 0 1 -0.66,-1.92 v -6.39 a 35.24,35.24 0 0 1 -7,1.66 v 4.7 a 9,9 0 0 0 3.72,7.71 8.56,8.56 0 0 0 4.87,1.46 10,10 0 0 0 3.65,-0.7 43.92,43.92 0 0 0 14.56,-72.59"
         id="path1062" />
    </g>
  </g>
</svg>
