<?xml version="1.0" encoding="UTF-8" standalone="no"?>
<svg
   width="651.63019"
   zoomAndPan="magnify"
   viewBox="0 0 488.72264 545.33418"
   height="727.11224"
   preserveAspectRatio="xMidYMid meet"
   version="1.0"
   id="svg154"
   sodipodi:docname="tierrasagrada.svg"
   inkscape:version="1.1.2 (0a00cf5339, 2022-02-04)"
   xmlns:inkscape="http://www.inkscape.org/namespaces/inkscape"
   xmlns:sodipodi="http://sodipodi.sourceforge.net/DTD/sodipodi-0.dtd"
   xmlns="http://www.w3.org/2000/svg"
   xmlns:svg="http://www.w3.org/2000/svg">
  <sodipodi:namedview
     id="namedview156"
     pagecolor="#ffffff"
     bordercolor="#666666"
     borderopacity="1.0"
     inkscape:pageshadow="2"
     inkscape:pageopacity="0.0"
     inkscape:pagecheckerboard="0"
     showgrid="false"
     fit-margin-top="0"
     fit-margin-left="0"
     fit-margin-right="0"
     fit-margin-bottom="0"
     inkscape:zoom="0.77813853"
     inkscape:cx="503.12378"
     inkscape:cy="384.89291"
     inkscape:window-width="1920"
     inkscape:window-height="1012"
     inkscape:window-x="0"
     inkscape:window-y="0"
     inkscape:window-maximized="1"
     inkscape:current-layer="svg154" />
  <defs
     id="defs22">
    <g
       id="g2" />
    <clipPath
       id="3680d14870">
      <path
         d="M 238.29687,57.722656 H 727.01953 V 642.57422 H 238.29687 Z m 0,0"
         clip-rule="nonzero"
         id="path4" />
    </clipPath>
    <clipPath
       id="83f38a6a0f">
      <path
         d="m 266.00781,57.722656 h 433.30078 c 7.35157,0 14.39844,2.921875 19.59375,8.117188 5.19922,5.195312 8.11719,12.246094 8.11719,19.59375 V 614.86328 c 0,7.35156 -2.91797,14.39844 -8.11719,19.59375 -5.19531,5.19922 -12.24218,8.11719 -19.59375,8.11719 H 266.00781 c -7.35156,0 -14.39844,-2.91797 -19.59765,-8.11719 -5.19532,-5.19531 -8.11329,-12.24219 -8.11329,-19.59375 V 85.433594 c 0,-7.347656 2.91797,-14.398438 8.11329,-19.59375 5.19921,-5.195313 12.24609,-8.117188 19.59765,-8.117188"
         clip-rule="nonzero"
         id="path7" />
    </clipPath>
    <clipPath
       id="757e36f70c">
      <path
         d="M 247.20703,63.84375 H 721.91406 V 636.45312 H 247.20703 Z m 0,0"
         clip-rule="nonzero"
         id="path10" />
    </clipPath>
    <clipPath
       id="e4240d8452">
      <path
         d="m 274.91797,63.84375 h 419.28515 c 7.35157,0 14.39844,2.917969 19.59375,8.117188 5.19922,5.195312 8.11719,12.242187 8.11719,19.59375 V 608.74609 c 0,7.34766 -2.91797,14.39453 -8.11719,19.59375 -5.19531,5.19532 -12.24218,8.11328 -19.59375,8.11328 H 274.91797 c -7.35156,0 -14.39844,-2.91796 -19.59375,-8.11328 -5.19922,-5.19922 -8.11719,-12.24609 -8.11719,-19.59375 V 91.554688 c 0,-7.351563 2.91797,-14.398438 8.11719,-19.59375 5.19531,-5.199219 12.24219,-8.117188 19.59375,-8.117188"
         clip-rule="nonzero"
         id="path13" />
    </clipPath>
    <clipPath
       id="59be338f14">
      <path
         d="m 267.88281,86.558594 h 436.6211 V 480.48828 h -436.6211 z m 0,0"
         clip-rule="nonzero"
         id="path16" />
    </clipPath>
    <clipPath
       id="16da0d39ef">
      <path
         d="M 271.57422,89.261719 H 711.1875 V 528.875 H 271.57422 Z m 0,0"
         clip-rule="nonzero"
         id="path19" />
    </clipPath>
  </defs>
  <g
     clip-path="url(#3680d14870)"
     id="g28"
     transform="matrix(1,0,0,0.93243177,-238.29688,-53.822438)">
    <g
       clip-path="url(#83f38a6a0f)"
       id="g26">
      <path
         fill="#f3b71d"
         d="M 238.29687,57.722656 H 727.01953 V 642.57422 H 238.29687 Z m 0,0"
         fill-opacity="1"
         fill-rule="nonzero"
         id="path24" />
    </g>
  </g>
  <g
     clip-path="url(#757e36f70c)"
     id="g34"
     transform="matrix(1,0,0,0.83672578,-238.29688,-47.298617)">
    <g
       clip-path="url(#e4240d8452)"
       id="g32">
      <path
         fill="#1b1c1f"
         d="M 247.20703,63.84375 H 721.91406 V 636.45312 H 247.20703 Z m 0,0"
         fill-opacity="1"
         fill-rule="nonzero"
         id="path30" />
    </g>
  </g>
  <g
     clip-path="url(#59be338f14)"
     id="g38"
     transform="translate(-238.29688,-57.722656)">
    <path
       fill="#414f49"
       d="M 447.02734,480.44922 267.88281,301.35547 V 170.26562 Z M 358.31641,86.597656 H 267.91016 V 136.69922 L 461.61328,472.08203 Z M 704.50391,301.35547 V 170.26562 L 525.35547,480.44922 Z M 494.60937,86.597656 V 467.70703 L 596.71094,86.597656 Z M 704.50391,136.69922 V 86.597656 H 614.09766 L 510.80078,472.08203 Z M 477.80469,86.597656 H 375.70312 L 477.80469,467.70703 Z m 0,0"
       fill-opacity="1"
       fill-rule="nonzero"
       id="path36" />
  </g>
  <g
     clip-path="url(#16da0d39ef)"
     id="g42"
     transform="translate(-238.29688,-57.722656)">
    <path
       fill="#f9f9f7"
       d="M 491.37109,89.261719 271.57422,309.05859 491.37109,528.875 711.1875,309.05859 Z M 367.80078,385.65234 c 36.17969,-35.28906 67.4375,-75.83984 93.16016,-120.77734 -19.3711,55 -43.6211,102.53906 -72.30078,141.63672 z m 30.73438,30.71485 c 31.71093,-42.77344 58.14843,-95.25 78.74218,-156.26172 -9.51562,84.05859 -22.78125,151.49609 -38.68359,196.33984 z m 92.83593,92.85547 -42.20703,-42.20704 c 17.16797,-45.67187 31.9961,-119.19921 42.20703,-208.83203 10.21485,89.63282 25.04297,163.16016 42.20703,208.83203 z m 52.77735,-52.77735 C 528.26562,411.60156 514.98047,344.125 505.46484,260.10547 c 20.59766,60.99219 47.03125,113.48828 78.7461,156.26172 z m 49.93359,-49.93359 C 565.42187,367.41406 541.17187,319.875 521.80078,264.875 c 25.72266,44.91797 56.98047,85.44922 93.16016,120.76172 z m -75.78516,-177.77735 -1.26171,-2.50781 c -1.03516,-2.03515 -2.05469,-4.08984 -3.05079,-6.16015 l -0.71875,-1.50782 -2.24218,0.28125 c -1.84375,0.22657 -3.69141,0.47266 -5.59375,0.64063 -0.60547,0.0586 -1.22657,0.0781 -1.84766,0.0937 l -5.59766,0.28515 c -0.64062,0.0352 -1.26171,0.0742 -1.92187,0.0937 l -1.54297,0.0937 c -0.58594,0.0391 -1.16797,0.0742 -1.77344,0.0937 h -2.78906 c -0.58203,0 -1.18359,-0.0391 -1.76953,-0.0937 l -1.5625,-0.0937 c -0.64063,-0.0195 -1.26563,-0.0586 -1.90625,-0.0937 l -5.59375,-0.28515 c -0.62109,-0.0156 -1.24609,-0.0352 -1.84766,-0.0937 -1.88281,-0.16797 -3.73047,-0.39453 -5.57812,-0.64063 l -2.24219,-0.28125 -0.71484,1.50782 c -0.94141,1.97656 -1.94141,3.9375 -2.92188,5.89843 l -1.39453,2.78907 c -27.71484,55.71484 -63.53516,105.19531 -106.47656,147.0625 L 291.20703,309.07812 491.37109,108.91406 691.51562,309.05859 624.77734,375.80078 C 581.83594,333.94922 546.03516,284.46875 518.29687,228.73437 Z m 0,0"
       fill-opacity="1"
       fill-rule="nonzero"
       id="path40" />
  </g>
  <g
     fill="#ffffff"
     fill-opacity="1"
     id="g96"
     transform="translate(-238.29688,-57.722656)">
    <g
       transform="translate(449.17899,598.41313)"
       id="g94">
      <g
         id="g92" />
    </g>
  </g>
</svg>
